URWBookmanL-LighItal.ufo
<glyph name="exclam" format="1">
  <advance width="320"/>
  <unicode hex="0021"/>
  <outline>
    <contour>
      <point x="209" y="180" type="line"/>
      <point x="225" y="266"/>
      <point x="238" y="314"/>
      <point x="280" y="424" type="curve" smooth="yes"/>
      <point x="332" y="558"/>
      <point x="342" y="592"/>
      <point x="342" y="632" type="curve" smooth="yes"/>
      <point x="342" y="672"/>
      <point x="321" y="694"/>
      <point x="284" y="694" type="curve" smooth="yes"/>
      <point x="252" y="694"/>
      <point x="225" y="672"/>
      <point x="212" y="638" type="curve" smooth="yes"/>
      <point x="198" y="599"/>
      <point x="194" y="556"/>
      <point x="193" y="460" type="curve"/>
      <point x="193" y="342"/>
      <point x="188" y="270"/>
      <point x="172" y="180" type="curve"/>
    </contour>
    <contour>
      <point x="181" y="122" type="curve" smooth="yes"/>
      <point x="140" y="122"/>
      <point x="103" y="84"/>
      <point x="103" y="41" type="curve" smooth="yes"/>
      <point x="103" y="9"/>
      <point x="125" y="-13"/>
      <point x="157" y="-13" type="curve" smooth="yes"/>
      <point x="199" y="-13"/>
      <point x="238" y="24"/>
      <point x="238" y="64" type="curve" smooth="yes"/>
      <point x="238" y="98"/>
      <point x="215" y="122"/>
    </contour>
  </outline>
</glyph>
<glyph name="quotedbl" format="1">
  <advance width="360"/>
  <unicode hex="0022"/>
  <outline>
    <contour>
      <point x="142" y="462" type="line"/>
      <point x="237" y="619" type="line" smooth="yes"/>
      <point x="251" y="642"/>
      <point x="255" y="651"/>
      <point x="255" y="662" type="curve" smooth="yes"/>
      <point x="255" y="681"/>
      <point x="238" y="694"/>
      <point x="213" y="694" type="curve" smooth="yes"/>
      <point x="186" y="694"/>
      <point x="175" y="684"/>
      <point x="164" y="648" type="curve" smooth="yes"/>
      <point x="107" y="462" type="line"/>
    </contour>
    <contour>
      <point x="289" y="462" type="line"/>
      <point x="384" y="619" type="line" smooth="yes"/>
      <point x="398" y="642"/>
      <point x="402" y="651"/>
      <point x="402" y="662" type="curve" smooth="yes"/>
      <point x="402" y="681"/>
      <point x="385" y="694"/>
      <point x="360" y="694" type="curve" smooth="yes"/>
      <point x="333" y="694"/>
      <point x="322" y="684"/>
      <point x="311" y="648" type="curve" smooth="yes"/>
      <point x="254" y="462" type="line"/>
    </contour>
  </outline>
</glyph>
<glyph name="numbersign" format="1">
  <advance width="620"/>
  <unicode hex="0023"/>
  <outline>
    <contour>
      <point x="493" y="405" type="line"/>
      <point x="598" y="405" type="line"/>
      <point x="598" y="462" type="line"/>
      <point x="501" y="462" type="line"/>
      <point x="531" y="666" type="line"/>
      <point x="474" y="666" type="line"/>
      <point x="444" y="462" type="line"/>
      <point x="311" y="462" type="line"/>
      <point x="341" y="666" type="line"/>
      <point x="284" y="666" type="line"/>
      <point x="254" y="462" type="line"/>
      <point x="136" y="462" type="line"/>
      <point x="136" y="405" type="line"/>
      <point x="245" y="405" type="line"/>
      <point x="226" y="273" type="line"/>
      <point x="107" y="273" type="line"/>
      <point x="107" y="216" type="line"/>
      <point x="218" y="216" type="line"/>
      <point x="186" y="0" type="line"/>
      <point x="244" y="0" type="line"/>
      <point x="275" y="216" type="line"/>
      <point x="408" y="216" type="line"/>
      <point x="376" y="0" type="line"/>
      <point x="434" y="0" type="line"/>
      <point x="465" y="216" type="line"/>
      <point x="569" y="216" type="line"/>
      <point x="569" y="273" type="line"/>
      <point x="474" y="273" type="line"/>
    </contour>
    <contour>
      <point x="435" y="405" type="line"/>
      <point x="416" y="273" type="line"/>
      <point x="284" y="273" type="line"/>
      <point x="303" y="405" type="line"/>
    </contour>
  </outline>
</glyph>
<glyph name="dollar" format="1">
  <advance width="620"/>
  <unicode hex="0024"/>
  <outline>
    <contour>
      <point x="460" y="762" type="line"/>
      <point x="418" y="762" type="line"/>
      <point x="399" y="661" type="line"/>
      <point x="335" y="656"/>
      <point x="296" y="647"/>
      <point x="254" y="625" type="curve" smooth="yes"/>
      <point x="182" y="589"/>
      <point x="140" y="529"/>
      <point x="140" y="464" type="curve" smooth="yes"/>
      <point x="140" y="413"/>
      <point x="165" y="369"/>
      <point x="208" y="346" type="curve" smooth="yes"/>
      <point x="240" y="329"/>
      <point x="279" y="316"/>
      <point x="335" y="305" type="curve"/>
      <point x="291" y="67" type="line"/>
      <point x="250" y="71"/>
      <point x="230" y="77"/>
      <point x="211" y="89" type="curve" smooth="yes"/>
      <point x="192" y="102"/>
      <point x="177" y="121"/>
      <point x="177" y="133" type="curve" smooth="yes"/>
      <point x="177" y="138"/>
      <point x="179" y="145"/>
      <point x="183" y="152" type="curve"/>
      <point x="194" y="175"/>
      <point x="196" y="182"/>
      <point x="196" y="196" type="curve" smooth="yes"/>
      <point x="196" y="222"/>
      <point x="174" y="243"/>
      <point x="146" y="243" type="curve" smooth="yes"/>
      <point x="106" y="243"/>
      <point x="78" y="212"/>
      <point x="78" y="168" type="curve" smooth="yes"/>
      <point x="78" y="122"/>
      <point x="104" y="86"/>
      <point x="154" y="60" type="curve" smooth="yes"/>
      <point x="196" y="39"/>
      <point x="236" y="28"/>
      <point x="284" y="25" type="curve"/>
      <point x="264" y="-85" type="line"/>
      <point x="306" y="-85" type="line"/>
      <point x="326" y="25" type="line"/>
      <point x="483" y="36"/>
      <point x="606" y="131"/>
      <point x="606" y="241" type="curve" smooth="yes"/>
      <point x="606" y="292"/>
      <point x="579" y="330"/>
      <point x="523" y="357" type="curve" smooth="yes"/>
      <point x="497" y="370"/>
      <point x="487" y="373"/>
      <point x="393" y="394" type="curve"/>
      <point x="434" y="620" type="line"/>
      <point x="466" y="614"/>
      <point x="482" y="607"/>
      <point x="500" y="593" type="curve" smooth="yes"/>
      <point x="515" y="581"/>
      <point x="526" y="565"/>
      <point x="526" y="555" type="curve" smooth="yes"/>
      <point x="526" y="549"/>
      <point x="523" y="539"/>
      <point x="517" y="526" type="curve" smooth="yes"/>
      <point x="513" y="517"/>
      <point x="511" y="509"/>
      <point x="511" y="502" type="curve" smooth="yes"/>
      <point x="511" y="480"/>
      <point x="534" y="460"/>
      <point x="559" y="460" type="curve" smooth="yes"/>
      <point x="592" y="460"/>
      <point x="619" y="490"/>
      <point x="619" y="526" type="curve" smooth="yes"/>
      <point x="619" y="565"/>
      <point x="592" y="603"/>
      <point x="547" y="627" type="curve" smooth="yes"/>
      <point x="515" y="644"/>
      <point x="490" y="652"/>
      <point x="441" y="659" type="curve"/>
    </contour>
    <contour>
      <point x="352" y="401" type="line"/>
      <point x="261" y="427"/>
      <point x="233" y="449"/>
      <point x="233" y="495" type="curve" smooth="yes"/>
      <point x="233" y="565"/>
      <point x="300" y="619"/>
      <point x="392" y="622" type="curve"/>
    </contour>
    <contour>
      <point x="375" y="296" type="line"/>
      <point x="383" y="294"/>
      <point x="391" y="293"/>
      <point x="394" y="292" type="curve"/>
      <point x="435" y="284"/>
      <point x="455" y="277"/>
      <point x="468" y="270" type="curve" smooth="yes"/>
      <point x="495" y="254"/>
      <point x="510" y="229"/>
      <point x="510" y="201" type="curve" smooth="yes"/>
      <point x="510" y="168"/>
      <point x="488" y="132"/>
      <point x="453" y="105" type="curve" smooth="yes"/>
      <point x="423" y="83"/>
      <point x="394" y="74"/>
      <point x="334" y="68" type="curve"/>
    </contour>
  </outline>
</glyph>
<glyph name="percent" format="1">
  <advance width="800"/>
  <unicode hex="0025"/>
  <outline>
    <contour>
      <point x="271" y="689" type="curve" smooth="yes"/>
      <point x="205" y="689"/>
      <point x="149" y="657"/>
      <point x="110" y="597" type="curve" smooth="yes"/>
      <point x="76" y="545"/>
      <point x="56" y="482"/>
      <point x="56" y="426" type="curve" smooth="yes"/>
      <point x="56" y="329"/>
      <point x="112" y="265"/>
      <point x="199" y="265" type="curve" smooth="yes"/>
      <point x="316" y="265"/>
      <point x="410" y="380"/>
      <point x="410" y="524" type="curve" smooth="yes"/>
      <point x="410" y="625"/>
      <point x="356" y="689"/>
    </contour>
    <contour>
      <point x="265" y="656" type="curve" smooth="yes"/>
      <point x="313" y="656"/>
      <point x="340" y="619"/>
      <point x="340" y="551" type="curve" smooth="yes"/>
      <point x="340" y="497"/>
      <point x="329" y="434"/>
      <point x="311" y="389" type="curve" smooth="yes"/>
      <point x="288" y="331"/>
      <point x="248" y="298"/>
      <point x="200" y="298" type="curve" smooth="yes"/>
      <point x="154" y="298"/>
      <point x="126" y="338"/>
      <point x="126" y="403" type="curve" smooth="yes"/>
      <point x="126" y="445"/>
      <point x="135" y="493"/>
      <point x="150" y="541" type="curve" smooth="yes"/>
      <point x="176" y="618"/>
      <point x="214" y="656"/>
    </contour>
    <contour>
      <point x="647" y="681" type="line"/>
      <point x="595" y="681" type="line"/>
      <point x="221" y="0" type="line"/>
      <point x="273" y="0" type="line"/>
    </contour>
    <contour>
      <point x="672" y="416" type="curve" smooth="yes"/>
      <point x="606" y="416"/>
      <point x="550" y="384"/>
      <point x="511" y="324" type="curve" smooth="yes"/>
      <point x="477" y="273"/>
      <point x="457" y="209"/>
      <point x="457" y="154" type="curve" smooth="yes"/>
      <point x="457" y="56"/>
      <point x="513" y="-8"/>
      <point x="600" y="-8" type="curve" smooth="yes"/>
      <point x="717" y="-8"/>
      <point x="811" y="107"/>
      <point x="811" y="251" type="curve" smooth="yes"/>
      <point x="811" y="352"/>
      <point x="757" y="416"/>
    </contour>
    <contour>
      <point x="666" y="383" type="curve" smooth="yes"/>
      <point x="714" y="383"/>
      <point x="741" y="345"/>
      <point x="741" y="278" type="curve" smooth="yes"/>
      <point x="741" y="224"/>
      <point x="730" y="161"/>
      <point x="712" y="116" type="curve" smooth="yes"/>
      <point x="689" y="58"/>
      <point x="649" y="25"/>
      <point x="601" y="25" type="curve" smooth="yes"/>
      <point x="555" y="25"/>
      <point x="527" y="65"/>
      <point x="527" y="130" type="curve" smooth="yes"/>
      <point x="527" y="172"/>
      <point x="536" y="220"/>
      <point x="551" y="268" type="curve" smooth="yes"/>
      <point x="577" y="345"/>
      <point x="615" y="383"/>
    </contour>
  </outline>
</glyph>
<glyph name="ampersand" format="1">
  <advance width="820"/>
  <unicode hex="0026"/>
  <outline>
    <contour>
      <point x="523" y="65" type="curve"/>
      <point x="571" y="9"/>
      <point x="615" y="-13"/>
      <point x="680" y="-13" type="curve" smooth="yes"/>
      <point x="773" y="-13"/>
      <point x="848" y="44"/>
      <point x="848" y="115" type="curve" smooth="yes"/>
      <point x="848" y="149"/>
      <point x="823" y="176"/>
      <point x="792" y="176" type="curve" smooth="yes"/>
      <point x="758" y="176"/>
      <point x="730" y="148"/>
      <point x="730" y="115" type="curve" smooth="yes"/>
      <point x="730" y="95"/>
      <point x="736" y="83"/>
      <point x="753" y="72" type="curve" smooth="yes"/>
      <point x="760" y="67"/>
      <point x="761" y="65"/>
      <point x="761" y="58" type="curve" smooth="yes"/>
      <point x="761" y="41"/>
      <point x="740" y="29"/>
      <point x="711" y="29" type="curve" smooth="yes"/>
      <point x="663" y="29"/>
      <point x="635" y="54"/>
      <point x="593" y="132" type="curve"/>
      <point x="632" y="175"/>
      <point x="646" y="193"/>
      <point x="663" y="220" type="curve" smooth="yes"/>
      <point x="699" y="276"/>
      <point x="719" y="326"/>
      <point x="719" y="361" type="curve" smooth="yes"/>
      <point x="719" y="406"/>
      <point x="689" y="439"/>
      <point x="648" y="439" type="curve" smooth="yes"/>
      <point x="613" y="439"/>
      <point x="577" y="403"/>
      <point x="577" y="368" type="curve" smooth="yes"/>
      <point x="577" y="340"/>
      <point x="596" y="317"/>
      <point x="619" y="315" type="curve" smooth="yes"/>
      <point x="640" y="313"/>
      <point x="646" y="309"/>
      <point x="646" y="292" type="curve" smooth="yes"/>
      <point x="646" y="264"/>
      <point x="612" y="206"/>
      <point x="574" y="170" type="curve"/>
      <point x="537" y="252"/>
      <point x="480" y="334"/>
      <point x="408" y="407" type="curve"/>
      <point x="510" y="445"/>
      <point x="572" y="512"/>
      <point x="572" y="588" type="curve" smooth="yes"/>
      <point x="572" y="648"/>
      <point x="517" y="694"/>
      <point x="446" y="694" type="curve" smooth="yes"/>
      <point x="336" y="694"/>
      <point x="245" y="614"/>
      <point x="245" y="518" type="curve" smooth="yes"/>
      <point x="245" y="477"/>
      <point x="260" y="438"/>
      <point x="287" y="407" type="curve"/>
      <point x="154" y="370"/>
      <point x="65" y="274"/>
      <point x="65" y="169" type="curve" smooth="yes"/>
      <point x="65" y="64"/>
      <point x="166" y="-13"/>
      <point x="304" y="-13" type="curve" smooth="yes"/>
      <point x="381" y="-13"/>
      <point x="451" y="12"/>
    </contour>
    <contour>
      <point x="381" y="437" type="curve"/>
      <point x="349" y="474"/>
      <point x="334" y="509"/>
      <point x="334" y="548" type="curve" smooth="yes"/>
      <point x="334" y="609"/>
      <point x="378" y="657"/>
      <point x="434" y="657" type="curve" smooth="yes"/>
      <point x="475" y="657"/>
      <point x="502" y="631"/>
      <point x="502" y="591" type="curve" smooth="yes"/>
      <point x="502" y="531"/>
      <point x="463" y="479"/>
      <point x="394" y="443" type="curve"/>
      <point x="387" y="440"/>
      <point x="386" y="440"/>
    </contour>
    <contour>
      <point x="313" y="375" type="curve"/>
      <point x="389" y="303"/>
      <point x="469" y="187"/>
      <point x="505" y="96" type="curve"/>
      <point x="441" y="48"/>
      <point x="386" y="29"/>
      <point x="316" y="29" type="curve" smooth="yes"/>
      <point x="223" y="29"/>
      <point x="167" y="84"/>
      <point x="167" y="175" type="curve" smooth="yes"/>
      <point x="167" y="274"/>
      <point x="232" y="364"/>
    </contour>
  </outline>
</glyph>
<glyph name="quotesingle" format="1">
  <advance width="200"/>
  <unicode hex="0027"/>
  <outline>
    <contour>
      <point x="134" y="462" type="line"/>
      <point x="229" y="619" type="line" smooth="yes"/>
      <point x="243" y="642"/>
      <point x="247" y="651"/>
      <point x="247" y="662" type="curve" smooth="yes"/>
      <point x="247" y="681"/>
      <point x="230" y="694"/>
      <point x="205" y="694" type="curve" smooth="yes"/>
      <point x="178" y="694"/>
      <point x="167" y="684"/>
      <point x="156" y="648" type="curve" smooth="yes"/>
      <point x="99" y="462" type="line"/>
    </contour>
  </outline>
</glyph>
<glyph name="parenleft" format="1">
  <advance width="280"/>
  <unicode hex="0028"/>
  <outline>
    <contour>
      <point x="237" y="-89" type="line"/>
      <point x="219" y="-77"/>
      <point x="210" y="-69"/>
      <point x="203" y="-58" type="curve" smooth="yes"/>
      <point x="188" y="-34"/>
      <point x="178" y="4"/>
      <point x="178" y="41" type="curve" smooth="yes"/>
      <point x="178" y="149"/>
      <point x="223" y="399"/>
      <point x="264" y="524" type="curve" smooth="yes"/>
      <point x="295" y="619"/>
      <point x="323" y="658"/>
      <point x="378" y="686" type="curve"/>
      <point x="383" y="715" type="line"/>
      <point x="354" y="710"/>
      <point x="329" y="701"/>
      <point x="303" y="685" type="curve" smooth="yes"/>
      <point x="233" y="641"/>
      <point x="193" y="578"/>
      <point x="160" y="460" type="curve" smooth="yes"/>
      <point x="125" y="336"/>
      <point x="96" y="165"/>
      <point x="96" y="81" type="curve" smooth="yes"/>
      <point x="96" y="-22"/>
      <point x="148" y="-99"/>
      <point x="231" y="-120" type="curve"/>
    </contour>
  </outline>
</glyph>
<glyph name="parenright" format="1">
  <advance width="280"/>
  <unicode hex="0029"/>
  <outline>
    <contour>
      <point x="138" y="684" type="line"/>
      <point x="156" y="672"/>
      <point x="165" y="664"/>
      <point x="172" y="653" type="curve" smooth="yes"/>
      <point x="187" y="628"/>
      <point x="197" y="590"/>
      <point x="197" y="553" type="curve" smooth="yes"/>
      <point x="197" y="446"/>
      <point x="152" y="196"/>
      <point x="111" y="71" type="curve" smooth="yes"/>
      <point x="80" y="-24"/>
      <point x="52" y="-63"/>
      <point x="-3" y="-91" type="curve"/>
      <point x="-8" y="-120" type="line"/>
      <point x="21" y="-115"/>
      <point x="46" y="-106"/>
      <point x="72" y="-90" type="curve" smooth="yes"/>
      <point x="142" y="-47"/>
      <point x="182" y="17"/>
      <point x="215" y="135" type="curve" smooth="yes"/>
      <point x="250" y="259"/>
      <point x="279" y="429"/>
      <point x="279" y="513" type="curve" smooth="yes"/>
      <point x="279" y="617"/>
      <point x="227" y="694"/>
      <point x="144" y="715" type="curve"/>
    </contour>
  </outline>
</glyph>
<glyph name="asterisk" format="1">
  <advance width="440"/>
  <unicode hex="002A"/>
  <outline>
    <contour>
      <point x="320" y="552" type="line"/>
      <point x="300" y="544" type="line"/>
      <point x="261" y="600" type="line" smooth="yes"/>
      <point x="247" y="621"/>
      <point x="235" y="630"/>
      <point x="221" y="630" type="curve" smooth="yes"/>
      <point x="194" y="630"/>
      <point x="164" y="599"/>
      <point x="164" y="571" type="curve" smooth="yes"/>
      <point x="164" y="551"/>
      <point x="179" y="540"/>
      <point x="212" y="534" type="curve" smooth="yes"/>
      <point x="284" y="523" type="line"/>
      <point x="278" y="503" type="line"/>
      <point x="202" y="489" type="line" smooth="yes"/>
      <point x="158" y="480"/>
      <point x="139" y="465"/>
      <point x="139" y="437" type="curve" smooth="yes"/>
      <point x="139" y="414"/>
      <point x="156" y="393"/>
      <point x="174" y="393" type="curve" smooth="yes"/>
      <point x="191" y="393"/>
      <point x="207" y="402"/>
      <point x="228" y="423" type="curve" smooth="yes"/>
      <point x="286" y="482" type="line"/>
      <point x="300" y="470" type="line"/>
      <point x="263" y="400" type="line" smooth="yes"/>
      <point x="253" y="381"/>
      <point x="248" y="367"/>
      <point x="248" y="356" type="curve" smooth="yes"/>
      <point x="248" y="336"/>
      <point x="263" y="324"/>
      <point x="287" y="324" type="curve" smooth="yes"/>
      <point x="318" y="324"/>
      <point x="341" y="345"/>
      <point x="341" y="375" type="curve"/>
      <point x="339" y="400" type="line"/>
      <point x="324" y="470" type="line"/>
      <point x="344" y="478" type="line"/>
      <point x="383" y="422" type="line" smooth="yes"/>
      <point x="397" y="400"/>
      <point x="409" y="392"/>
      <point x="423" y="392" type="curve" smooth="yes"/>
      <point x="450" y="392"/>
      <point x="480" y="423"/>
      <point x="480" y="451" type="curve" smooth="yes"/>
      <point x="480" y="471"/>
      <point x="465" y="482"/>
      <point x="432" y="488" type="curve" smooth="yes"/>
      <point x="360" y="499" type="line"/>
      <point x="366" y="519" type="line"/>
      <point x="442" y="533" type="line" smooth="yes"/>
      <point x="485" y="541"/>
      <point x="505" y="557"/>
      <point x="505" y="586" type="curve" smooth="yes"/>
      <point x="505" y="609"/>
      <point x="488" y="629"/>
      <point x="469" y="629" type="curve" smooth="yes"/>
      <point x="452" y="629"/>
      <point x="437" y="620"/>
      <point x="416" y="599" type="curve" smooth="yes"/>
      <point x="358" y="540" type="line"/>
      <point x="344" y="552" type="line"/>
      <point x="381" y="622" type="line" smooth="yes"/>
      <point x="392" y="643"/>
      <point x="396" y="655"/>
      <point x="396" y="666" type="curve" smooth="yes"/>
      <point x="396" y="685"/>
      <point x="381" y="698"/>
      <point x="357" y="698" type="curve" smooth="yes"/>
      <point x="326" y="698"/>
      <point x="303" y="676"/>
      <point x="303" y="647" type="curve"/>
      <point x="305" y="622" type="line"/>
    </contour>
  </outline>
</glyph>
<glyph name="plus" format="1">
  <advance width="600"/>
  <unicode hex="002B"/>
  <outline>
    <contour>
      <point x="595" y="390" type="line"/>
      <point x="382" y="390" type="line"/>
      <point x="382" y="594" type="line"/>
      <point x="304" y="594" type="line"/>
      <point x="304" y="390" type="line"/>
      <point x="91" y="390" type="line"/>
      <point x="91" y="310" type="line"/>
      <point x="304" y="310" type="line"/>
      <point x="304" y="106" type="line"/>
      <point x="382" y="106" type="line"/>
      <point x="382" y="310" type="line"/>
      <point x="595" y="310" type="line"/>
    </contour>
  </outline>
</glyph>
<glyph name="comma" format="1">
  <advance width="300"/>
  <unicode hex="002C"/>
  <outline>
    <contour>
      <point x="97" y="-115" type="line"/>
      <point x="174" y="-85"/>
      <point x="227" y="-18"/>
      <point x="227" y="48" type="curve" smooth="yes"/>
      <point x="227" y="85"/>
      <point x="204" y="112"/>
      <point x="174" y="112" type="curve" smooth="yes"/>
      <point x="133" y="112"/>
      <point x="99" y="79"/>
      <point x="99" y="39" type="curve" smooth="yes"/>
      <point x="99" y="12"/>
      <point x="116" y="-9"/>
      <point x="139" y="-9" type="curve" smooth="yes"/>
      <point x="155" y="-9"/>
      <point x="167" y="-4"/>
      <point x="180" y="8" type="curve"/>
      <point x="168" y="-35"/>
      <point x="139" y="-69"/>
      <point x="88" y="-97" type="curve"/>
    </contour>
  </outline>
</glyph>
<glyph name="hyphen" format="1">
  <advance width="320"/>
  <unicode hex="002D"/>
  <outline>
    <contour>
      <point x="104" y="285" type="line"/>
      <point x="78" y="232" type="line"/>
      <point x="308" y="232" type="line"/>
      <point x="336" y="285" type="line"/>
    </contour>
  </outline>
</glyph>
<glyph name="period" format="1">
  <advance width="300"/>
  <unicode hex="002E"/>
  <outline>
    <contour>
      <point x="174" y="122" type="curve" smooth="yes"/>
      <point x="133" y="122"/>
      <point x="96" y="84"/>
      <point x="96" y="41" type="curve" smooth="yes"/>
      <point x="96" y="9"/>
      <point x="118" y="-13"/>
      <point x="150" y="-13" type="curve" smooth="yes"/>
      <point x="192" y="-13"/>
      <point x="231" y="24"/>
      <point x="231" y="64" type="curve" smooth="yes"/>
      <point x="231" y="98"/>
      <point x="208" y="122"/>
    </contour>
  </outline>
</glyph>
<glyph name="slash" format="1">
  <advance width="600"/>
  <unicode hex="002F"/>
  <outline>
    <contour>
      <point x="562" y="715" type="line"/>
      <point x="484" y="715" type="line"/>
      <point x="104" y="-121" type="line"/>
      <point x="181" y="-121" type="line"/>
    </contour>
  </outline>
</glyph>
<glyph name="zero" format="1">
  <advance width="620"/>
  <unicode hex="0030"/>
  <outline>
    <contour>
      <point x="428" y="695" type="curve" smooth="yes"/>
      <point x="325" y="695"/>
      <point x="237" y="642"/>
      <point x="174" y="541" type="curve" smooth="yes"/>
      <point x="119" y="455"/>
      <point x="86" y="346"/>
      <point x="86" y="252" type="curve" smooth="yes"/>
      <point x="86" y="92"/>
      <point x="173" y="-13"/>
      <point x="306" y="-13" type="curve" smooth="yes"/>
      <point x="404" y="-13"/>
      <point x="499" y="41"/>
      <point x="561" y="132" type="curve" smooth="yes"/>
      <point x="615" y="212"/>
      <point x="646" y="319"/>
      <point x="646" y="423" type="curve" smooth="yes"/>
      <point x="646" y="590"/>
      <point x="562" y="695"/>
    </contour>
    <contour>
      <point x="422" y="653" type="curve" smooth="yes"/>
      <point x="500" y="653"/>
      <point x="544" y="589"/>
      <point x="544" y="474" type="curve" smooth="yes"/>
      <point x="544" y="321"/>
      <point x="497" y="154"/>
      <point x="436" y="92" type="curve" smooth="yes"/>
      <point x="399" y="55"/>
      <point x="353" y="34"/>
      <point x="309" y="34" type="curve" smooth="yes"/>
      <point x="234" y="34"/>
      <point x="188" y="102"/>
      <point x="188" y="213" type="curve" smooth="yes"/>
      <point x="188" y="326"/>
      <point x="227" y="479"/>
      <point x="276" y="564" type="curve" smooth="yes"/>
      <point x="309" y="619"/>
      <point x="365" y="653"/>
    </contour>
  </outline>
</glyph>
<glyph name="one" format="1">
  <advance width="620"/>
  <unicode hex="0031"/>
  <outline>
    <contour>
      <point x="495" y="681" type="line"/>
      <point x="455" y="681" type="line"/>
      <point x="384" y="661"/>
      <point x="372" y="658"/>
      <point x="271" y="642" type="curve"/>
      <point x="266" y="614" type="line"/>
      <point x="290" y="614" type="line" smooth="yes"/>
      <point x="358" y="614"/>
      <point x="377" y="602"/>
      <point x="377" y="561" type="curve" smooth="yes"/>
      <point x="377" y="552"/>
      <point x="377" y="546"/>
      <point x="375" y="540" type="curve"/>
      <point x="299" y="121" type="line" smooth="yes"/>
      <point x="288" y="62"/>
      <point x="283" y="55"/>
      <point x="240" y="41" type="curve" smooth="yes"/>
      <point x="212" y="33"/>
      <point x="197" y="31"/>
      <point x="159" y="29" type="curve"/>
      <point x="154" y="0" type="line"/>
      <point x="495" y="0" type="line"/>
      <point x="500" y="29" type="line"/>
      <point x="473" y="31" type="line" smooth="yes"/>
      <point x="411" y="35"/>
      <point x="390" y="49"/>
      <point x="390" y="84" type="curve" smooth="yes"/>
      <point x="390" y="94"/>
      <point x="392" y="115"/>
      <point x="394" y="127" type="curve" smooth="yes"/>
    </contour>
  </outline>
</glyph>
<glyph name="two" format="1">
  <advance width="620"/>
  <unicode hex="0032"/>
  <outline>
    <contour>
      <point x="611" y="185" type="line"/>
      <point x="577" y="198" type="line"/>
      <point x="526" y="105"/>
      <point x="492" y="80"/>
      <point x="417" y="80" type="curve" smooth="yes"/>
      <point x="174" y="80" type="line"/>
      <point x="336" y="172"/>
      <point x="348" y="179"/>
      <point x="425" y="238" type="curve" smooth="yes"/>
      <point x="570" y="349"/>
      <point x="636" y="443"/>
      <point x="636" y="539" type="curve" smooth="yes"/>
      <point x="636" y="630"/>
      <point x="547" y="694"/>
      <point x="418" y="694" type="curve" smooth="yes"/>
      <point x="335" y="694"/>
      <point x="266" y="669"/>
      <point x="209" y="619" type="curve" smooth="yes"/>
      <point x="166" y="580"/>
      <point x="139" y="531"/>
      <point x="139" y="489" type="curve" smooth="yes"/>
      <point x="139" y="456"/>
      <point x="163" y="432"/>
      <point x="194" y="432" type="curve" smooth="yes"/>
      <point x="230" y="432"/>
      <point x="258" y="458"/>
      <point x="258" y="490" type="curve" smooth="yes"/>
      <point x="258" y="498"/>
      <point x="256" y="506"/>
      <point x="251" y="515" type="curve" smooth="yes"/>
      <point x="242" y="532"/>
      <point x="241" y="536"/>
      <point x="241" y="548" type="curve" smooth="yes"/>
      <point x="241" y="599"/>
      <point x="317" y="647"/>
      <point x="399" y="647" type="curve" smooth="yes"/>
      <point x="474" y="647"/>
      <point x="526" y="603"/>
      <point x="526" y="541" type="curve" smooth="yes"/>
      <point x="526" y="489"/>
      <point x="509" y="445"/>
      <point x="466" y="385" type="curve" smooth="yes"/>
      <point x="431" y="336"/>
      <point x="379" y="281"/>
      <point x="318" y="231" type="curve" smooth="yes"/>
      <point x="253" y="176"/>
      <point x="210" y="147"/>
      <point x="79" y="71" type="curve"/>
      <point x="66" y="0" type="line"/>
      <point x="532" y="0" type="line"/>
    </contour>
  </outline>
</glyph>
<glyph name="three" format="1">
  <advance width="620"/>
  <unicode hex="0033"/>
  <outline>
    <contour>
      <point x="276" y="349" type="line"/>
      <point x="304" y="353"/>
      <point x="319" y="354"/>
      <point x="343" y="354" type="curve" smooth="yes"/>
      <point x="447" y="354"/>
      <point x="493" y="316"/>
      <point x="493" y="232" type="curve" smooth="yes"/>
      <point x="493" y="186"/>
      <point x="478" y="139"/>
      <point x="452" y="104" type="curve" smooth="yes"/>
      <point x="414" y="54"/>
      <point x="357" y="29"/>
      <point x="282" y="29" type="curve" smooth="yes"/>
      <point x="206" y="29"/>
      <point x="155" y="58"/>
      <point x="155" y="100" type="curve" smooth="yes"/>
      <point x="155" y="108"/>
      <point x="157" y="115"/>
      <point x="163" y="126" type="curve" smooth="yes"/>
      <point x="174" y="145"/>
      <point x="176" y="149"/>
      <point x="176" y="160" type="curve" smooth="yes"/>
      <point x="176" y="185"/>
      <point x="155" y="205"/>
      <point x="129" y="205" type="curve" smooth="yes"/>
      <point x="91" y="205"/>
      <point x="55" y="164"/>
      <point x="55" y="120" type="curve" smooth="yes"/>
      <point x="55" y="42"/>
      <point x="145" y="-13"/>
      <point x="271" y="-13" type="curve" smooth="yes"/>
      <point x="457" y="-13"/>
      <point x="600" y="92"/>
      <point x="600" y="229" type="curve" smooth="yes"/>
      <point x="600" y="270"/>
      <point x="584" y="306"/>
      <point x="554" y="333" type="curve" smooth="yes"/>
      <point x="528" y="356"/>
      <point x="502" y="365"/>
      <point x="434" y="375" type="curve"/>
      <point x="496" y="390"/>
      <point x="524" y="402"/>
      <point x="556" y="427" type="curve" smooth="yes"/>
      <point x="598" y="460"/>
      <point x="622" y="505"/>
      <point x="622" y="549" type="curve" smooth="yes"/>
      <point x="622" y="595"/>
      <point x="595" y="640"/>
      <point x="554" y="662" type="curve" smooth="yes"/>
      <point x="516" y="682"/>
      <point x="463" y="694"/>
      <point x="410" y="694" type="curve" smooth="yes"/>
      <point x="340" y="694"/>
      <point x="271" y="674"/>
      <point x="223" y="639" type="curve" smooth="yes"/>
      <point x="175" y="605"/>
      <point x="145" y="559"/>
      <point x="145" y="521" type="curve" smooth="yes"/>
      <point x="145" y="494"/>
      <point x="167" y="475"/>
      <point x="198" y="475" type="curve" smooth="yes"/>
      <point x="232" y="475"/>
      <point x="260" y="498"/>
      <point x="260" y="528" type="curve" smooth="yes"/>
      <point x="260" y="533"/>
      <point x="259" y="540"/>
      <point x="257" y="548" type="curve" smooth="yes"/>
      <point x="252" y="565"/>
      <point x="252" y="566"/>
      <point x="252" y="572" type="curve" smooth="yes"/>
      <point x="252" y="615"/>
      <point x="319" y="652"/>
      <point x="398" y="652" type="curve" smooth="yes"/>
      <point x="474" y="652"/>
      <point x="515" y="616"/>
      <point x="515" y="550" type="curve" smooth="yes"/>
      <point x="515" y="494"/>
      <point x="482" y="440"/>
      <point x="433" y="416" type="curve" smooth="yes"/>
      <point x="400" y="401"/>
      <point x="353" y="391"/>
      <point x="312" y="391" type="curve" smooth="yes"/>
      <point x="304" y="391"/>
      <point x="297" y="391"/>
      <point x="283" y="393" type="curve"/>
    </contour>
  </outline>
</glyph>
<glyph name="four" format="1">
  <advance width="620"/>
  <unicode hex="0034"/>
  <outline>
    <contour>
      <point x="572" y="681" type="line"/>
      <point x="478" y="681" type="line"/>
      <point x="69" y="226" type="line"/>
      <point x="79" y="186" type="line"/>
      <point x="388" y="186" type="line"/>
      <point x="378" y="128" type="line" smooth="yes"/>
      <point x="370" y="68"/>
      <point x="339" y="34"/>
      <point x="289" y="31" type="curve" smooth="yes"/>
      <point x="264" y="29" type="line"/>
      <point x="259" y="0" type="line"/>
      <point x="551" y="0" type="line"/>
      <point x="556" y="29" type="line"/>
      <point x="523" y="31" type="line" smooth="yes"/>
      <point x="491" y="33"/>
      <point x="468" y="60"/>
      <point x="468" y="98" type="curve" smooth="yes"/>
      <point x="468" y="103"/>
      <point x="469" y="111"/>
      <point x="470" y="118" type="curve" smooth="yes"/>
      <point x="482" y="186" type="line"/>
      <point x="610" y="186" type="line"/>
      <point x="634" y="239" type="line"/>
      <point x="492" y="239" type="line"/>
    </contour>
    <contour>
      <point x="398" y="239" type="line"/>
      <point x="138" y="239" type="line"/>
      <point x="463" y="599" type="line"/>
    </contour>
  </outline>
</glyph>
<glyph name="five" format="1">
  <advance width="620"/>
  <unicode hex="0035"/>
  <outline>
    <contour>
      <point x="614" y="681" type="line"/>
      <point x="209" y="681" type="line"/>
      <point x="136" y="329" type="line"/>
      <point x="186" y="313" type="line"/>
      <point x="242" y="382"/>
      <point x="297" y="412"/>
      <point x="365" y="412" type="curve" smooth="yes"/>
      <point x="448" y="412"/>
      <point x="501" y="358"/>
      <point x="501" y="273" type="curve" smooth="yes"/>
      <point x="501" y="136"/>
      <point x="403" y="29"/>
      <point x="278" y="29" type="curve" smooth="yes"/>
      <point x="251" y="29"/>
      <point x="222" y="35"/>
      <point x="200" y="46" type="curve" smooth="yes"/>
      <point x="181" y="55"/>
      <point x="172" y="68"/>
      <point x="172" y="84" type="curve" smooth="yes"/>
      <point x="172" y="90"/>
      <point x="175" y="102"/>
      <point x="179" y="114" type="curve" smooth="yes"/>
      <point x="187" y="139"/>
      <point x="188" y="141"/>
      <point x="188" y="152" type="curve" smooth="yes"/>
      <point x="188" y="178"/>
      <point x="168" y="197"/>
      <point x="141" y="197" type="curve" smooth="yes"/>
      <point x="105" y="197"/>
      <point x="70" y="158"/>
      <point x="70" y="116" type="curve" smooth="yes"/>
      <point x="70" y="41"/>
      <point x="157" y="-13"/>
      <point x="277" y="-13" type="curve" smooth="yes"/>
      <point x="462" y="-13"/>
      <point x="611" y="120"/>
      <point x="611" y="285" type="curve" smooth="yes"/>
      <point x="611" y="393"/>
      <point x="527" y="464"/>
      <point x="400" y="464" type="curve" smooth="yes"/>
      <point x="326" y="464"/>
      <point x="265" y="440"/>
      <point x="199" y="387" type="curve"/>
      <point x="247" y="601" type="line"/>
      <point x="587" y="601" type="line"/>
    </contour>
  </outline>
</glyph>
<glyph name="six" format="1">
  <advance width="620"/>
  <unicode hex="0036"/>
  <outline>
    <contour>
      <point x="207" y="333" type="curve"/>
      <point x="217" y="387"/>
      <point x="223" y="414"/>
      <point x="238" y="455" type="curve" smooth="yes"/>
      <point x="281" y="579"/>
      <point x="357" y="647"/>
      <point x="454" y="647" type="curve" smooth="yes"/>
      <point x="506" y="647"/>
      <point x="550" y="627"/>
      <point x="550" y="603" type="curve" smooth="yes"/>
      <point x="550" y="601"/>
      <point x="549" y="597"/>
      <point x="548" y="593" type="curve" smooth="yes"/>
      <point x="545" y="583"/>
      <point x="544" y="577"/>
      <point x="544" y="570" type="curve" smooth="yes"/>
      <point x="544" y="541"/>
      <point x="567" y="519"/>
      <point x="597" y="519" type="curve" smooth="yes"/>
      <point x="628" y="519"/>
      <point x="657" y="548"/>
      <point x="657" y="580" type="curve" smooth="yes"/>
      <point x="657" y="641"/>
      <point x="569" y="694"/>
      <point x="467" y="694" type="curve" smooth="yes"/>
      <point x="387" y="694"/>
      <point x="306" y="661"/>
      <point x="240" y="600" type="curve" smooth="yes"/>
      <point x="150" y="518"/>
      <point x="89" y="368"/>
      <point x="89" y="230" type="curve" smooth="yes"/>
      <point x="89" y="79"/>
      <point x="174" y="-13"/>
      <point x="313" y="-13" type="curve" smooth="yes"/>
      <point x="480" y="-13"/>
      <point x="622" y="110"/>
      <point x="622" y="255" type="curve" smooth="yes"/>
      <point x="622" y="365"/>
      <point x="542" y="436"/>
      <point x="419" y="436" type="curve" smooth="yes"/>
      <point x="334" y="436"/>
      <point x="265" y="403"/>
    </contour>
    <contour>
      <point x="390" y="384" type="curve" smooth="yes"/>
      <point x="466" y="384"/>
      <point x="515" y="334"/>
      <point x="515" y="256" type="curve" smooth="yes"/>
      <point x="515" y="200"/>
      <point x="496" y="142"/>
      <point x="466" y="103" type="curve" smooth="yes"/>
      <point x="434" y="62"/>
      <point x="376" y="34"/>
      <point x="322" y="34" type="curve" smooth="yes"/>
      <point x="241" y="34"/>
      <point x="191" y="83"/>
      <point x="191" y="162" type="curve" smooth="yes"/>
      <point x="191" y="213"/>
      <point x="209" y="269"/>
      <point x="238" y="309" type="curve" smooth="yes"/>
      <point x="272" y="357"/>
      <point x="327" y="384"/>
    </contour>
  </outline>
</glyph>
<glyph name="seven" format="1">
  <advance width="620"/>
  <unicode hex="0037"/>
  <outline>
    <contour>
      <point x="669" y="681" type="line"/>
      <point x="206" y="681" type="line"/>
      <point x="143" y="510" type="line"/>
      <point x="176" y="510" type="line"/>
      <point x="186" y="534"/>
      <point x="212" y="566"/>
      <point x="235" y="581" type="curve" smooth="yes"/>
      <point x="260" y="598"/>
      <point x="284" y="601"/>
      <point x="375" y="601" type="curve" smooth="yes"/>
      <point x="582" y="601" type="line"/>
      <point x="575" y="592"/>
      <point x="561" y="578"/>
      <point x="507" y="524" type="curve" smooth="yes"/>
      <point x="350" y="361"/>
      <point x="219" y="152"/>
      <point x="178" y="0" type="curve"/>
      <point x="309" y="0" type="line"/>
      <point x="337" y="196"/>
      <point x="472" y="431"/>
      <point x="672" y="633" type="curve"/>
    </contour>
  </outline>
</glyph>
<glyph name="eight" format="1">
  <advance width="620"/>
  <unicode hex="0038"/>
  <outline>
    <contour>
      <point x="469" y="384" type="curve"/>
      <point x="520" y="396"/>
      <point x="545" y="404"/>
      <point x="571" y="419" type="curve" smooth="yes"/>
      <point x="624" y="449"/>
      <point x="655" y="496"/>
      <point x="655" y="547" type="curve" smooth="yes"/>
      <point x="655" y="634"/>
      <point x="566" y="694"/>
      <point x="438" y="694" type="curve" smooth="yes"/>
      <point x="287" y="694"/>
      <point x="163" y="600"/>
      <point x="163" y="484" type="curve" smooth="yes"/>
      <point x="163" y="426"/>
      <point x="191" y="392"/>
      <point x="264" y="360" type="curve"/>
      <point x="134" y="329"/>
      <point x="61" y="257"/>
      <point x="61" y="160" type="curve" smooth="yes"/>
      <point x="61" y="56"/>
      <point x="159" y="-13"/>
      <point x="306" y="-13" type="curve" smooth="yes"/>
      <point x="481" y="-13"/>
      <point x="617" y="92"/>
      <point x="617" y="226" type="curve" smooth="yes"/>
      <point x="617" y="270"/>
      <point x="601" y="305"/>
      <point x="567" y="333" type="curve" smooth="yes"/>
      <point x="547" y="349"/>
      <point x="530" y="358"/>
    </contour>
    <contour>
      <point x="418" y="404" type="curve"/>
      <point x="302" y="446"/>
      <point x="270" y="471"/>
      <point x="270" y="520" type="curve" smooth="yes"/>
      <point x="270" y="596"/>
      <point x="348" y="657"/>
      <point x="446" y="657" type="curve" smooth="yes"/>
      <point x="524" y="657"/>
      <point x="573" y="618"/>
      <point x="573" y="554" type="curve" smooth="yes"/>
      <point x="573" y="480"/>
      <point x="513" y="422"/>
    </contour>
    <contour>
      <point x="311" y="340" type="curve"/>
      <point x="334" y="331"/>
      <point x="352" y="325"/>
      <point x="364" y="320" type="curve" smooth="yes"/>
      <point x="438" y="293"/>
      <point x="455" y="285"/>
      <point x="479" y="266" type="curve" smooth="yes"/>
      <point x="502" y="248"/>
      <point x="515" y="219"/>
      <point x="515" y="187" type="curve" smooth="yes"/>
      <point x="515" y="100"/>
      <point x="423" y="29"/>
      <point x="309" y="29" type="curve" smooth="yes"/>
      <point x="207" y="29"/>
      <point x="143" y="78"/>
      <point x="143" y="155" type="curve" smooth="yes"/>
      <point x="143" y="240"/>
      <point x="212" y="315"/>
    </contour>
  </outline>
</glyph>
<glyph name="nine" format="1">
  <advance width="620"/>
  <unicode hex="0039"/>
  <outline>
    <contour>
      <point x="533" y="358" type="curve"/>
      <point x="495" y="143"/>
      <point x="408" y="29"/>
      <point x="280" y="29" type="curve" smooth="yes"/>
      <point x="228" y="29"/>
      <point x="184" y="50"/>
      <point x="184" y="74" type="curve" smooth="yes"/>
      <point x="184" y="77"/>
      <point x="185" y="82"/>
      <point x="186" y="88" type="curve" smooth="yes"/>
      <point x="187" y="94"/>
      <point x="188" y="99"/>
      <point x="188" y="104" type="curve" smooth="yes"/>
      <point x="188" y="138"/>
      <point x="165" y="163"/>
      <point x="134" y="163" type="curve" smooth="yes"/>
      <point x="104" y="163"/>
      <point x="77" y="135"/>
      <point x="77" y="103" type="curve" smooth="yes"/>
      <point x="77" y="41"/>
      <point x="167" y="-13"/>
      <point x="269" y="-13" type="curve" smooth="yes"/>
      <point x="381" y="-13"/>
      <point x="487" y="45"/>
      <point x="550" y="141" type="curve" smooth="yes"/>
      <point x="612" y="235"/>
      <point x="649" y="358"/>
      <point x="649" y="468" type="curve" smooth="yes"/>
      <point x="649" y="605"/>
      <point x="559" y="694"/>
      <point x="422" y="694" type="curve" smooth="yes"/>
      <point x="258" y="694"/>
      <point x="111" y="567"/>
      <point x="111" y="425" type="curve" smooth="yes"/>
      <point x="111" y="322"/>
      <point x="195" y="249"/>
      <point x="313" y="249" type="curve" smooth="yes"/>
      <point x="402" y="249"/>
      <point x="465" y="280"/>
    </contour>
    <contour>
      <point x="415" y="652" type="curve" smooth="yes"/>
      <point x="496" y="652"/>
      <point x="547" y="602"/>
      <point x="547" y="524" type="curve" smooth="yes"/>
      <point x="547" y="471"/>
      <point x="526" y="411"/>
      <point x="495" y="370" type="curve" smooth="yes"/>
      <point x="460" y="325"/>
      <point x="400" y="296"/>
      <point x="342" y="296" type="curve" smooth="yes"/>
      <point x="266" y="296"/>
      <point x="213" y="346"/>
      <point x="213" y="419" type="curve" smooth="yes"/>
      <point x="213" y="473"/>
      <point x="235" y="538"/>
      <point x="267" y="580" type="curve" smooth="yes"/>
      <point x="300" y="624"/>
      <point x="358" y="652"/>
    </contour>
  </outline>
</glyph>
<glyph name="colon" format="1">
  <advance width="300"/>
  <unicode hex="003A"/>
  <outline>
    <contour>
      <point x="174" y="122" type="curve" smooth="yes"/>
      <point x="133" y="122"/>
      <point x="96" y="84"/>
      <point x="96" y="41" type="curve" smooth="yes"/>
      <point x="96" y="9"/>
      <point x="118" y="-13"/>
      <point x="150" y="-13" type="curve" smooth="yes"/>
      <point x="192" y="-13"/>
      <point x="231" y="24"/>
      <point x="231" y="64" type="curve" smooth="yes"/>
      <point x="231" y="98"/>
      <point x="208" y="122"/>
    </contour>
    <contour>
      <point x="235" y="499" type="curve" smooth="yes"/>
      <point x="194" y="499"/>
      <point x="157" y="461"/>
      <point x="157" y="418" type="curve" smooth="yes"/>
      <point x="157" y="386"/>
      <point x="179" y="364"/>
      <point x="211" y="364" type="curve" smooth="yes"/>
      <point x="253" y="364"/>
      <point x="292" y="401"/>
      <point x="292" y="441" type="curve" smooth="yes"/>
      <point x="292" y="475"/>
      <point x="269" y="499"/>
    </contour>
  </outline>
</glyph>
<glyph name="semicolon" format="1">
  <advance width="300"/>
  <unicode hex="003B"/>
  <outline>
    <contour>
      <point x="97" y="-115" type="line"/>
      <point x="174" y="-85"/>
      <point x="227" y="-18"/>
      <point x="227" y="48" type="curve" smooth="yes"/>
      <point x="227" y="85"/>
      <point x="204" y="112"/>
      <point x="174" y="112" type="curve" smooth="yes"/>
      <point x="133" y="112"/>
      <point x="99" y="79"/>
      <point x="99" y="39" type="curve" smooth="yes"/>
      <point x="99" y="12"/>
      <point x="116" y="-9"/>
      <point x="139" y="-9" type="curve" smooth="yes"/>
      <point x="155" y="-9"/>
      <point x="167" y="-4"/>
      <point x="180" y="8" type="curve"/>
      <point x="168" y="-35"/>
      <point x="139" y="-69"/>
      <point x="88" y="-97" type="curve"/>
    </contour>
    <contour>
      <point x="235" y="499" type="curve" smooth="yes"/>
      <point x="194" y="499"/>
      <point x="157" y="461"/>
      <point x="157" y="418" type="curve" smooth="yes"/>
      <point x="157" y="386"/>
      <point x="179" y="364"/>
      <point x="211" y="364" type="curve" smooth="yes"/>
      <point x="253" y="364"/>
      <point x="292" y="401"/>
      <point x="292" y="441" type="curve" smooth="yes"/>
      <point x="292" y="475"/>
      <point x="269" y="499"/>
    </contour>
  </outline>
</glyph>
<glyph name="less" format="1">
  <advance width="600"/>
  <unicode hex="003C"/>
  <outline>
    <contour>
      <point x="79" y="360" type="line"/>
      <point x="79" y="288" type="line"/>
      <point x="588" y="49" type="line"/>
      <point x="588" y="135" type="line"/>
      <point x="185" y="324" type="line"/>
      <point x="588" y="512" type="line"/>
      <point x="588" y="599" type="line"/>
    </contour>
  </outline>
</glyph>
<glyph name="equal" format="1">
  <advance width="600"/>
  <unicode hex="003D"/>
  <outline>
    <contour>
      <point x="595" y="488" type="line"/>
      <point x="91" y="488" type="line"/>
      <point x="91" y="408" type="line"/>
      <point x="595" y="408" type="line"/>
    </contour>
    <contour>
      <point x="595" y="292" type="line"/>
      <point x="91" y="292" type="line"/>
      <point x="91" y="212" type="line"/>
      <point x="595" y="212" type="line"/>
    </contour>
  </outline>
</glyph>
<glyph name="question" format="1">
  <advance width="540"/>
  <unicode hex="003F"/>
  <outline>
    <contour>
      <point x="285" y="177" type="line"/>
      <point x="297" y="269"/>
      <point x="330" y="306"/>
      <point x="430" y="335" type="curve" smooth="yes"/>
      <point x="484" y="352"/>
      <point x="513" y="368"/>
      <point x="544" y="400" type="curve" smooth="yes"/>
      <point x="582" y="440"/>
      <point x="604" y="489"/>
      <point x="604" y="538" type="curve" smooth="yes"/>
      <point x="604" y="631"/>
      <point x="510" y="694"/>
      <point x="373" y="694" type="curve" smooth="yes"/>
      <point x="238" y="694"/>
      <point x="114" y="612"/>
      <point x="114" y="522" type="curve" smooth="yes"/>
      <point x="114" y="492"/>
      <point x="135" y="472"/>
      <point x="165" y="472" type="curve" smooth="yes"/>
      <point x="196" y="472"/>
      <point x="226" y="499"/>
      <point x="226" y="528" type="curve" smooth="yes"/>
      <point x="226" y="533"/>
      <point x="226" y="533"/>
      <point x="221" y="548" type="curve" smooth="yes"/>
      <point x="218" y="556"/>
      <point x="216" y="566"/>
      <point x="216" y="571" type="curve" smooth="yes"/>
      <point x="216" y="619"/>
      <point x="283" y="657"/>
      <point x="369" y="657" type="curve" smooth="yes"/>
      <point x="449" y="657"/>
      <point x="497" y="618"/>
      <point x="497" y="553" type="curve" smooth="yes"/>
      <point x="497" y="516"/>
      <point x="485" y="479"/>
      <point x="464" y="448" type="curve" smooth="yes"/>
      <point x="444" y="419"/>
      <point x="432" y="410"/>
      <point x="379" y="377" type="curve" smooth="yes"/>
      <point x="266" y="312"/>
      <point x="255" y="296"/>
      <point x="240" y="177" type="curve"/>
    </contour>
    <contour>
      <point x="256" y="123" type="curve" smooth="yes"/>
      <point x="213" y="123"/>
      <point x="176" y="85"/>
      <point x="176" y="41" type="curve" smooth="yes"/>
      <point x="176" y="9"/>
      <point x="198" y="-13"/>
      <point x="231" y="-13" type="curve" smooth="yes"/>
      <point x="273" y="-13"/>
      <point x="312" y="24"/>
      <point x="312" y="65" type="curve" smooth="yes"/>
      <point x="312" y="99"/>
      <point x="289" y="123"/>
    </contour>
  </outline>
</glyph>
<glyph name="at" format="1">
  <advance width="780"/>
  <unicode hex="0040"/>
  <outline>
    <contour>
      <point x="575" y="546" type="line"/>
      <point x="568" y="507" type="line"/>
      <point x="541" y="536"/>
      <point x="500" y="553"/>
      <point x="455" y="553" type="curve" smooth="yes"/>
      <point x="335" y="553"/>
      <point x="231" y="438"/>
      <point x="231" y="304" type="curve" smooth="yes"/>
      <point x="231" y="218"/>
      <point x="285" y="160"/>
      <point x="365" y="160" type="curve" smooth="yes"/>
      <point x="426" y="160"/>
      <point x="474" y="189"/>
      <point x="522" y="255" type="curve"/>
      <point x="522" y="244" type="line" smooth="yes"/>
      <point x="522" y="198"/>
      <point x="554" y="160"/>
      <point x="593" y="160" type="curve" smooth="yes"/>
      <point x="641" y="160"/>
      <point x="702" y="194"/>
      <point x="743" y="243" type="curve" smooth="yes"/>
      <point x="781" y="288"/>
      <point x="802" y="345"/>
      <point x="802" y="404" type="curve" smooth="yes"/>
      <point x="802" y="567"/>
      <point x="652" y="700"/>
      <point x="467" y="700" type="curve" smooth="yes"/>
      <point x="264" y="700"/>
      <point x="102" y="540"/>
      <point x="102" y="342" type="curve" smooth="yes"/>
      <point x="102" y="145"/>
      <point x="263" y="-13"/>
      <point x="464" y="-13" type="curve" smooth="yes"/>
      <point x="564" y="-13"/>
      <point x="666" y="29"/>
      <point x="732" y="97" type="curve" smooth="yes"/>
      <point x="757" y="122"/>
      <point x="772" y="145"/>
      <point x="791" y="188" type="curve"/>
      <point x="745" y="188" type="line"/>
      <point x="726" y="155"/>
      <point x="712" y="137"/>
      <point x="691" y="117" type="curve" smooth="yes"/>
      <point x="636" y="67"/>
      <point x="547" y="34"/>
      <point x="464" y="34" type="curve" smooth="yes"/>
      <point x="292" y="34"/>
      <point x="152" y="174"/>
      <point x="152" y="346" type="curve" smooth="yes"/>
      <point x="152" y="514"/>
      <point x="293" y="653"/>
      <point x="464" y="653" type="curve" smooth="yes"/>
      <point x="624" y="653"/>
      <point x="754" y="538"/>
      <point x="754" y="396" type="curve" smooth="yes"/>
      <point x="754" y="350"/>
      <point x="739" y="303"/>
      <point x="712" y="266" type="curve" smooth="yes"/>
      <point x="686" y="231"/>
      <point x="656" y="210"/>
      <point x="631" y="210" type="curve" smooth="yes"/>
      <point x="611" y="210"/>
      <point x="595" y="227"/>
      <point x="595" y="250" type="curve" smooth="yes"/>
      <point x="595" y="257"/>
      <point x="597" y="275"/>
      <point x="600" y="292" type="curve" smooth="yes"/>
      <point x="647" y="546" type="line"/>
    </contour>
    <contour>
      <point x="562" y="474" type="curve"/>
      <point x="541" y="365"/>
      <point x="526" y="318"/>
      <point x="498" y="274" type="curve" smooth="yes"/>
      <point x="469" y="229"/>
      <point x="419" y="197"/>
      <point x="377" y="197" type="curve" smooth="yes"/>
      <point x="333" y="197"/>
      <point x="304" y="232"/>
      <point x="304" y="285" type="curve" smooth="yes"/>
      <point x="304" y="334"/>
      <point x="322" y="398"/>
      <point x="348" y="437" type="curve" smooth="yes"/>
      <point x="380" y="489"/>
      <point x="423" y="516"/>
      <point x="471" y="516" type="curve" smooth="yes"/>
      <point x="508" y="516"/>
      <point x="534" y="504"/>
    </contour>
  </outline>
</glyph>
<glyph name="B" format="1">
  <advance width="720"/>
  <unicode hex="0042"/>
  <outline>
    <contour>
      <point x="145" y="681" type="line"/>
      <point x="139" y="652" type="line"/>
      <point x="155" y="650" type="line" smooth="yes"/>
      <point x="195" y="645"/>
      <point x="212" y="628"/>
      <point x="212" y="596" type="curve" smooth="yes"/>
      <point x="212" y="587"/>
      <point x="210" y="561"/>
      <point x="208" y="553" type="curve"/>
      <point x="131" y="128" type="line" smooth="yes"/>
      <point x="117" y="59"/>
      <point x="98" y="38"/>
      <point x="43" y="31" type="curve" smooth="yes"/>
      <point x="26" y="29" type="line"/>
      <point x="21" y="0" type="line"/>
      <point x="375" y="0" type="line" smooth="yes"/>
      <point x="506" y="0"/>
      <point x="565" y="13"/>
      <point x="626" y="55" type="curve" smooth="yes"/>
      <point x="684" y="95"/>
      <point x="720" y="162"/>
      <point x="720" y="227" type="curve" smooth="yes"/>
      <point x="720" y="267"/>
      <point x="701" y="305"/>
      <point x="667" y="332" type="curve" smooth="yes"/>
      <point x="644" y="351"/>
      <point x="624" y="358"/>
      <point x="570" y="370" type="curve"/>
      <point x="621" y="380"/>
      <point x="647" y="390"/>
      <point x="675" y="411" type="curve" smooth="yes"/>
      <point x="719" y="443"/>
      <point x="746" y="492"/>
      <point x="746" y="542" type="curve" smooth="yes"/>
      <point x="746" y="582"/>
      <point x="728" y="617"/>
      <point x="696" y="640" type="curve" smooth="yes"/>
      <point x="654" y="670"/>
      <point x="605" y="681"/>
      <point x="508" y="681" type="curve" smooth="yes"/>
    </contour>
    <contour>
      <point x="277" y="383" type="line"/>
      <point x="311" y="569" type="line" smooth="yes"/>
      <point x="322" y="627"/>
      <point x="351" y="642"/>
      <point x="450" y="642" type="curve" smooth="yes"/>
      <point x="583" y="642"/>
      <point x="644" y="608"/>
      <point x="644" y="533" type="curve" smooth="yes"/>
      <point x="644" y="491"/>
      <point x="618" y="444"/>
      <point x="582" y="420" type="curve" smooth="yes"/>
      <point x="543" y="395"/>
      <point x="487" y="383"/>
      <point x="405" y="383" type="curve" smooth="yes"/>
    </contour>
    <contour>
      <point x="271" y="346" type="line"/>
      <point x="401" y="346" type="line" smooth="yes"/>
      <point x="561" y="346"/>
      <point x="610" y="320"/>
      <point x="610" y="235" type="curve" smooth="yes"/>
      <point x="610" y="177"/>
      <point x="581" y="118"/>
      <point x="537" y="86" type="curve" smooth="yes"/>
      <point x="492" y="53"/>
      <point x="437" y="40"/>
      <point x="338" y="40" type="curve" smooth="yes"/>
      <point x="260" y="40"/>
      <point x="227" y="56"/>
      <point x="227" y="94" type="curve" smooth="yes"/>
      <point x="227" y="101"/>
      <point x="228" y="111"/>
      <point x="230" y="121" type="curve" smooth="yes"/>
    </contour>
  </outline>
</glyph>
<glyph name="D" format="1">
  <advance width="740"/>
  <unicode hex="0044"/>
  <outline>
    <contour>
      <point x="21" y="0" type="line"/>
      <point x="373" y="0" type="line" smooth="yes"/>
      <point x="506" y="0"/>
      <point x="603" y="40"/>
      <point x="677" y="124" type="curve" smooth="yes"/>
      <point x="743" y="199"/>
      <point x="782" y="304"/>
      <point x="782" y="404" type="curve" smooth="yes"/>
      <point x="782" y="495"/>
      <point x="748" y="578"/>
      <point x="693" y="622" type="curve" smooth="yes"/>
      <point x="647" y="659"/>
      <point x="565" y="681"/>
      <point x="472" y="681" type="curve" smooth="yes"/>
      <point x="145" y="681" type="line"/>
      <point x="139" y="652" type="line"/>
      <point x="155" y="650" type="line" smooth="yes"/>
      <point x="195" y="645"/>
      <point x="212" y="628"/>
      <point x="212" y="596" type="curve" smooth="yes"/>
      <point x="212" y="587"/>
      <point x="210" y="561"/>
      <point x="208" y="553" type="curve"/>
      <point x="131" y="128" type="line" smooth="yes"/>
      <point x="117" y="59"/>
      <point x="98" y="38"/>
      <point x="43" y="31" type="curve" smooth="yes"/>
      <point x="26" y="29" type="line"/>
    </contour>
    <contour>
      <point x="312" y="572" type="line" smooth="yes"/>
      <point x="321" y="625"/>
      <point x="352" y="640"/>
      <point x="452" y="640" type="curve" smooth="yes"/>
      <point x="592" y="640"/>
      <point x="675" y="556"/>
      <point x="675" y="416" type="curve" smooth="yes"/>
      <point x="675" y="320"/>
      <point x="644" y="225"/>
      <point x="589" y="155" type="curve" smooth="yes"/>
      <point x="530" y="79"/>
      <point x="440" y="39"/>
      <point x="326" y="39" type="curve" smooth="yes"/>
      <point x="255" y="39"/>
      <point x="225" y="52"/>
      <point x="225" y="84" type="curve" smooth="yes"/>
      <point x="225" y="90"/>
      <point x="226" y="100"/>
      <point x="228" y="110" type="curve" smooth="yes"/>
    </contour>
  </outline>
</glyph>
<glyph name="F" format="1">
  <advance width="620"/>
  <unicode hex="0046"/>
  <outline>
    <contour>
      <point x="698" y="681" type="line"/>
      <point x="145" y="681" type="line"/>
      <point x="139" y="652" type="line"/>
      <point x="155" y="650" type="line" smooth="yes"/>
      <point x="195" y="645"/>
      <point x="212" y="628"/>
      <point x="212" y="596" type="curve" smooth="yes"/>
      <point x="212" y="587"/>
      <point x="210" y="561"/>
      <point x="208" y="553" type="curve"/>
      <point x="131" y="128" type="line" smooth="yes"/>
      <point x="117" y="59"/>
      <point x="98" y="38"/>
      <point x="43" y="31" type="curve" smooth="yes"/>
      <point x="26" y="29" type="line"/>
      <point x="21" y="0" type="line"/>
      <point x="309" y="0" type="line"/>
      <point x="314" y="29" type="line"/>
      <point x="293" y="31" type="line" smooth="yes"/>
      <point x="247" y="35"/>
      <point x="227" y="52"/>
      <point x="227" y="86" type="curve" smooth="yes"/>
      <point x="227" y="97"/>
      <point x="229" y="114"/>
      <point x="231" y="128" type="curve" smooth="yes"/>
      <point x="269" y="335" type="line"/>
      <point x="344" y="335" type="line" smooth="yes"/>
      <point x="381" y="335"/>
      <point x="411" y="326"/>
      <point x="423" y="312" type="curve" smooth="yes"/>
      <point x="436" y="297"/>
      <point x="446" y="266"/>
      <point x="446" y="239" type="curve" smooth="yes"/>
      <point x="446" y="236"/>
      <point x="445" y="228"/>
      <point x="444" y="218" type="curve"/>
      <point x="444" y="210" type="line"/>
      <point x="476" y="210" type="line"/>
      <point x="529" y="500" type="line"/>
      <point x="496" y="500" type="line"/>
      <point x="494" y="495" type="line"/>
      <point x="471" y="425"/>
      <point x="470" y="423"/>
      <point x="447" y="402" type="curve" smooth="yes"/>
      <point x="425" y="383"/>
      <point x="400" y="375"/>
      <point x="357" y="375" type="curve" smooth="yes"/>
      <point x="276" y="375" type="line"/>
      <point x="304" y="531" type="line" smooth="yes"/>
      <point x="312" y="575"/>
      <point x="322" y="603"/>
      <point x="331" y="612" type="curve" smooth="yes"/>
      <point x="352" y="632"/>
      <point x="378" y="638"/>
      <point x="446" y="638" type="curve" smooth="yes"/>
      <point x="571" y="638"/>
      <point x="650" y="587"/>
      <point x="705" y="471" type="curve"/>
      <point x="743" y="483" type="line"/>
    </contour>
  </outline>
</glyph>
<glyph name="K" format="1">
  <advance width="720"/>
  <unicode hex="004B"/>
  <outline>
    <contour>
      <point x="804" y="681" type="line"/>
      <point x="532" y="681" type="line"/>
      <point x="527" y="652" type="line"/>
      <point x="539" y="650" type="line" smooth="yes"/>
      <point x="575" y="644"/>
      <point x="589" y="634"/>
      <point x="589" y="613" type="curve" smooth="yes"/>
      <point x="589" y="598"/>
      <point x="580" y="583"/>
      <point x="562" y="568" type="curve" smooth="yes"/>
      <point x="269" y="336" type="line"/>
      <point x="308" y="553" type="line" smooth="yes"/>
      <point x="322" y="621"/>
      <point x="342" y="643"/>
      <point x="397" y="650" type="curve" smooth="yes"/>
      <point x="421" y="652" type="line"/>
      <point x="426" y="681" type="line"/>
      <point x="145" y="681" type="line"/>
      <point x="139" y="652" type="line"/>
      <point x="155" y="650" type="line" smooth="yes"/>
      <point x="195" y="645"/>
      <point x="212" y="628"/>
      <point x="212" y="596" type="curve" smooth="yes"/>
      <point x="212" y="586"/>
      <point x="210" y="561"/>
      <point x="208" y="553" type="curve"/>
      <point x="131" y="128" type="line" smooth="yes"/>
      <point x="117" y="59"/>
      <point x="98" y="38"/>
      <point x="43" y="31" type="curve" smooth="yes"/>
      <point x="26" y="29" type="line"/>
      <point x="21" y="0" type="line"/>
      <point x="303" y="0" type="line"/>
      <point x="308" y="29" type="line"/>
      <point x="285" y="31" type="line" smooth="yes"/>
      <point x="247" y="34"/>
      <point x="227" y="53"/>
      <point x="227" y="87" type="curve" smooth="yes"/>
      <point x="227" y="97"/>
      <point x="229" y="115"/>
      <point x="231" y="128" type="curve" smooth="yes"/>
      <point x="258" y="277" type="line"/>
      <point x="381" y="371" type="line"/>
      <point x="534" y="98" type="line" smooth="yes"/>
      <point x="539" y="88"/>
      <point x="543" y="76"/>
      <point x="543" y="68" type="curve" smooth="yes"/>
      <point x="543" y="47"/>
      <point x="525" y="37"/>
      <point x="480" y="31" type="curve" smooth="yes"/>
      <point x="464" y="29" type="line"/>
      <point x="459" y="0" type="line"/>
      <point x="749" y="0" type="line"/>
      <point x="755" y="29" type="line"/>
      <point x="695" y="44"/>
      <point x="673" y="62"/>
      <point x="636" y="127" type="curve" smooth="yes"/>
      <point x="459" y="430" type="line"/>
      <point x="621" y="552" type="line" smooth="yes"/>
      <point x="689" y="607"/>
      <point x="746" y="639"/>
      <point x="799" y="652" type="curve"/>
    </contour>
  </outline>
</glyph>
<glyph name="M" format="1">
  <advance width="860"/>
  <unicode hex="004D"/>
  <outline>
    <contour>
      <point x="372" y="0" type="line"/>
      <point x="415" y="0" type="line"/>
      <point x="756" y="612" type="line"/>
      <point x="669" y="128" type="line" smooth="yes"/>
      <point x="654" y="59"/>
      <point x="635" y="38"/>
      <point x="580" y="31" type="curve" smooth="yes"/>
      <point x="564" y="29" type="line"/>
      <point x="558" y="0" type="line"/>
      <point x="832" y="0" type="line"/>
      <point x="838" y="29" type="line"/>
      <point x="822" y="31" type="line" smooth="yes"/>
      <point x="782" y="36"/>
      <point x="765" y="53"/>
      <point x="765" y="85" type="curve" smooth="yes"/>
      <point x="765" y="94"/>
      <point x="767" y="120"/>
      <point x="769" y="128" type="curve"/>
      <point x="846" y="553" type="line" smooth="yes"/>
      <point x="860" y="622"/>
      <point x="879" y="643"/>
      <point x="934" y="650" type="curve" smooth="yes"/>
      <point x="951" y="652" type="line"/>
      <point x="956" y="681" type="line"/>
      <point x="741" y="681" type="line"/>
      <point x="449" y="156" type="line"/>
      <point x="365" y="681" type="line"/>
      <point x="142" y="681" type="line"/>
      <point x="136" y="652" type="line"/>
      <point x="152" y="650" type="line" smooth="yes"/>
      <point x="192" y="645"/>
      <point x="209" y="628"/>
      <point x="209" y="596" type="curve" smooth="yes"/>
      <point x="209" y="587"/>
      <point x="207" y="561"/>
      <point x="205" y="553" type="curve"/>
      <point x="128" y="128" type="line" smooth="yes"/>
      <point x="114" y="59"/>
      <point x="95" y="38"/>
      <point x="40" y="31" type="curve" smooth="yes"/>
      <point x="23" y="29" type="line"/>
      <point x="18" y="0" type="line"/>
      <point x="247" y="0" type="line"/>
      <point x="252" y="29" type="line"/>
      <point x="237" y="31" type="line" smooth="yes"/>
      <point x="196" y="36"/>
      <point x="179" y="53"/>
      <point x="179" y="87" type="curve" smooth="yes"/>
      <point x="179" y="97"/>
      <point x="181" y="115"/>
      <point x="183" y="128" type="curve" smooth="yes"/>
      <point x="272" y="620" type="line"/>
    </contour>
  </outline>
</glyph>
<glyph name="P" format="1">
  <advance width="600"/>
  <unicode hex="0050"/>
  <outline>
    <contour>
      <point x="260" y="289" type="line"/>
      <point x="353" y="289" type="line" smooth="yes"/>
      <point x="469" y="289"/>
      <point x="541" y="304"/>
      <point x="592" y="338" type="curve" smooth="yes"/>
      <point x="644" y="374"/>
      <point x="681" y="448"/>
      <point x="681" y="518" type="curve" smooth="yes"/>
      <point x="681" y="574"/>
      <point x="659" y="619"/>
      <point x="617" y="647" type="curve" smooth="yes"/>
      <point x="577" y="674"/>
      <point x="541" y="681"/>
      <point x="450" y="681" type="curve" smooth="yes"/>
      <point x="145" y="681" type="line"/>
      <point x="139" y="652" type="line"/>
      <point x="155" y="650" type="line" smooth="yes"/>
      <point x="195" y="645"/>
      <point x="212" y="628"/>
      <point x="212" y="596" type="curve" smooth="yes"/>
      <point x="212" y="587"/>
      <point x="210" y="561"/>
      <point x="208" y="553" type="curve"/>
      <point x="131" y="128" type="line" smooth="yes"/>
      <point x="117" y="59"/>
      <point x="98" y="38"/>
      <point x="43" y="31" type="curve" smooth="yes"/>
      <point x="26" y="29" type="line"/>
      <point x="21" y="0" type="line"/>
      <point x="309" y="0" type="line"/>
      <point x="314" y="29" type="line"/>
      <point x="285" y="31" type="line" smooth="yes"/>
      <point x="248" y="33"/>
      <point x="227" y="53"/>
      <point x="227" y="85" type="curve" smooth="yes"/>
      <point x="227" y="95"/>
      <point x="229" y="117"/>
      <point x="231" y="128" type="curve" smooth="yes"/>
    </contour>
    <contour>
      <point x="267" y="326" type="line"/>
      <point x="311" y="569" type="line" smooth="yes"/>
      <point x="318" y="605"/>
      <point x="322" y="615"/>
      <point x="335" y="623" type="curve"/>
      <point x="352" y="632"/>
      <point x="393" y="639"/>
      <point x="435" y="639" type="curve" smooth="yes"/>
      <point x="484" y="639"/>
      <point x="522" y="630"/>
      <point x="543" y="614" type="curve" smooth="yes"/>
      <point x="568" y="594"/>
      <point x="584" y="557"/>
      <point x="584" y="518" type="curve" smooth="yes"/>
      <point x="584" y="462"/>
      <point x="555" y="398"/>
      <point x="515" y="365" type="curve" smooth="yes"/>
      <point x="481" y="338"/>
      <point x="434" y="326"/>
      <point x="360" y="326" type="curve" smooth="yes"/>
    </contour>
  </outline>
</glyph>
<glyph name="Q" format="1">
  <advance width="780"/>
  <unicode hex="0051"/>
  <outline>
    <contour>
      <point x="583" y="32" type="curve"/>
      <point x="590" y="17"/>
      <point x="594" y="6"/>
      <point x="594" y="-1" type="curve" smooth="yes"/>
      <point x="594" y="-39"/>
      <point x="562" y="-80"/>
      <point x="512" y="-106" type="curve" smooth="yes"/>
      <point x="465" y="-132"/>
      <point x="411" y="-144"/>
      <point x="344" y="-144" type="curve" smooth="yes"/>
      <point x="253" y="-144"/>
      <point x="171" y="-114"/>
      <point x="171" y="-81" type="curve" smooth="yes"/>
      <point x="171" y="-77"/>
      <point x="172" y="-72"/>
      <point x="173" y="-67" type="curve" smooth="yes"/>
      <point x="175" y="-59"/>
      <point x="176" y="-52"/>
      <point x="176" y="-45" type="curve" smooth="yes"/>
      <point x="176" y="-22"/>
      <point x="153" y="-3"/>
      <point x="125" y="-3" type="curve" smooth="yes"/>
      <point x="91" y="-3"/>
      <point x="61" y="-29"/>
      <point x="61" y="-59" type="curve" smooth="yes"/>
      <point x="61" y="-80"/>
      <point x="79" y="-107"/>
      <point x="107" y="-127" type="curve" smooth="yes"/>
      <point x="164" y="-168"/>
      <point x="251" y="-191"/>
      <point x="351" y="-191" type="curve" smooth="yes"/>
      <point x="537" y="-191"/>
      <point x="676" y="-107"/>
      <point x="676" y="4" type="curve" smooth="yes"/>
      <point x="676" y="33"/>
      <point x="669" y="55"/>
      <point x="651" y="78" type="curve"/>
      <point x="752" y="155"/>
      <point x="812" y="276"/>
      <point x="812" y="406" type="curve" smooth="yes"/>
      <point x="812" y="583"/>
      <point x="694" y="694"/>
      <point x="506" y="694" type="curve" smooth="yes"/>
      <point x="384" y="694"/>
      <point x="285" y="652"/>
      <point x="202" y="566" type="curve" smooth="yes"/>
      <point x="124" y="484"/>
      <point x="80" y="375"/>
      <point x="80" y="266" type="curve" smooth="yes"/>
      <point x="80" y="100"/>
      <point x="206" y="-13"/>
      <point x="390" y="-13" type="curve" smooth="yes"/>
      <point x="463" y="-13"/>
      <point x="512" y="-2"/>
    </contour>
    <contour>
      <point x="600" y="129" type="curve"/>
      <point x="553" y="156"/>
      <point x="518" y="166"/>
      <point x="465" y="166" type="curve" smooth="yes"/>
      <point x="379" y="166"/>
      <point x="317" y="127"/>
      <point x="317" y="73" type="curve" smooth="yes"/>
      <point x="317" y="54"/>
      <point x="323" y="42"/>
      <point x="342" y="25" type="curve"/>
      <point x="295" y="33"/>
      <point x="265" y="50"/>
      <point x="235" y="87" type="curve" smooth="yes"/>
      <point x="204" y="124"/>
      <point x="187" y="179"/>
      <point x="187" y="237" type="curve" smooth="yes"/>
      <point x="187" y="331"/>
      <point x="221" y="440"/>
      <point x="274" y="520" type="curve" smooth="yes"/>
      <point x="327" y="599"/>
      <point x="414" y="647"/>
      <point x="507" y="647" type="curve" smooth="yes"/>
      <point x="571" y="647"/>
      <point x="627" y="623"/>
      <point x="658" y="582" type="curve" smooth="yes"/>
      <point x="685" y="546"/>
      <point x="702" y="492"/>
      <point x="702" y="440" type="curve" smooth="yes"/>
      <point x="702" y="384"/>
      <point x="686" y="296"/>
      <point x="667" y="241" type="curve" smooth="yes"/>
      <point x="649" y="192"/>
      <point x="628" y="158"/>
    </contour>
    <contour>
      <point x="547" y="71" type="curve"/>
      <point x="512" y="42"/>
      <point x="462" y="24"/>
      <point x="417" y="24" type="curve" smooth="yes"/>
      <point x="383" y="24"/>
      <point x="360" y="36"/>
      <point x="360" y="54" type="curve" smooth="yes"/>
      <point x="360" y="80"/>
      <point x="393" y="98"/>
      <point x="443" y="98" type="curve" smooth="yes"/>
      <point x="486" y="98"/>
      <point x="516" y="90"/>
    </contour>
  </outline>
</glyph>
<glyph name="V" format="1">
  <advance width="680"/>
  <unicode hex="0056"/>
  <outline>
    <contour>
      <point x="364" y="681" type="line"/>
      <point x="92" y="681" type="line"/>
      <point x="87" y="652" type="line"/>
      <point x="100" y="650" type="line" smooth="yes"/>
      <point x="145" y="642"/>
      <point x="161" y="626"/>
      <point x="172" y="575" type="curve" smooth="yes"/>
      <point x="297" y="0" type="line"/>
      <point x="358" y="0" type="line"/>
      <point x="678" y="555" type="line" smooth="yes"/>
      <point x="712" y="616"/>
      <point x="745" y="642"/>
      <point x="797" y="650" type="curve" smooth="yes"/>
      <point x="810" y="652" type="line"/>
      <point x="815" y="681" type="line"/>
      <point x="564" y="681" type="line"/>
      <point x="558" y="652" type="line"/>
      <point x="576" y="650" type="line" smooth="yes"/>
      <point x="614" y="646"/>
      <point x="636" y="629"/>
      <point x="636" y="603" type="curve" smooth="yes"/>
      <point x="636" y="590"/>
      <point x="630" y="570"/>
      <point x="622" y="555" type="curve" smooth="yes"/>
      <point x="368" y="107" type="line"/>
      <point x="281" y="553" type="line" smooth="yes"/>
      <point x="278" y="568"/>
      <point x="277" y="582"/>
      <point x="277" y="594" type="curve" smooth="yes"/>
      <point x="277" y="625"/>
      <point x="301" y="646"/>
      <point x="339" y="650" type="curve" smooth="yes"/>
      <point x="359" y="652" type="line"/>
    </contour>
  </outline>
</glyph>
<glyph name="W" format="1">
  <advance width="960"/>
  <unicode hex="0057"/>
  <outline>
    <contour>
      <point x="263" y="0" type="line"/>
      <point x="326" y="0" type="line"/>
      <point x="549" y="442" type="line"/>
      <point x="615" y="0" type="line"/>
      <point x="680" y="0" type="line"/>
      <point x="965" y="554" type="line" smooth="yes"/>
      <point x="995" y="615"/>
      <point x="1028" y="643"/>
      <point x="1078" y="650" type="curve" smooth="yes"/>
      <point x="1090" y="652" type="line"/>
      <point x="1095" y="681" type="line"/>
      <point x="855" y="681" type="line"/>
      <point x="850" y="652" type="line"/>
      <point x="864" y="650" type="line" smooth="yes"/>
      <point x="906" y="643"/>
      <point x="922" y="630"/>
      <point x="922" y="604" type="curve" smooth="yes"/>
      <point x="922" y="589"/>
      <point x="914" y="568"/>
      <point x="891" y="521" type="curve" smooth="yes"/>
      <point x="695" y="126" type="line"/>
      <point x="635" y="554" type="line" smooth="yes"/>
      <point x="630" y="585"/>
      <point x="630" y="585"/>
      <point x="630" y="595" type="curve" smooth="yes"/>
      <point x="630" y="628"/>
      <point x="647" y="645"/>
      <point x="684" y="650" type="curve" smooth="yes"/>
      <point x="700" y="652" type="line"/>
      <point x="705" y="681" type="line"/>
      <point x="449" y="681" type="line"/>
      <point x="444" y="652" type="line"/>
      <point x="454" y="650" type="line"/>
      <point x="505" y="634"/>
      <point x="522" y="607"/>
      <point x="534" y="521" type="curve"/>
      <point x="340" y="126" type="line"/>
      <point x="280" y="539" type="line"/>
      <point x="279" y="552"/>
      <point x="277" y="565"/>
      <point x="276" y="566" type="curve"/>
      <point x="274" y="579"/>
      <point x="273" y="590"/>
      <point x="273" y="597" type="curve" smooth="yes"/>
      <point x="273" y="625"/>
      <point x="294" y="645"/>
      <point x="331" y="650" type="curve" smooth="yes"/>
      <point x="346" y="652" type="line"/>
      <point x="351" y="681" type="line"/>
      <point x="92" y="681" type="line"/>
      <point x="87" y="652" type="line"/>
      <point x="96" y="650" type="line"/>
      <point x="152" y="634"/>
      <point x="159" y="624"/>
      <point x="174" y="540" type="curve" smooth="yes"/>
    </contour>
  </outline>
</glyph>
<glyph name="bracketleft" format="1">
  <advance width="260"/>
  <unicode hex="005B"/>
  <outline>
    <contour>
      <point x="208" y="715" type="line"/>
      <point x="56" y="-121" type="line"/>
      <point x="199" y="-121" type="line"/>
      <point x="205" y="-90" type="line"/>
      <point x="193" y="-90" type="line" smooth="yes"/>
      <point x="157" y="-90"/>
      <point x="142" y="-82"/>
      <point x="142" y="-62" type="curve" smooth="yes"/>
      <point x="142" y="-56"/>
      <point x="142" y="-54"/>
      <point x="148" y="-21" type="curve" smooth="yes"/>
      <point x="264" y="615" type="line" smooth="yes"/>
      <point x="275" y="677"/>
      <point x="282" y="684"/>
      <point x="331" y="684" type="curve" smooth="yes"/>
      <point x="345" y="684" type="line"/>
      <point x="351" y="715" type="line"/>
    </contour>
  </outline>
</glyph>
<glyph name="backslash" format="1">
  <advance width="600"/>
  <unicode hex="005C"/>
  <outline>
    <contour>
      <point x="162" y="717" type="line"/>
      <point x="84" y="717" type="line"/>
      <point x="465" y="0" type="line"/>
      <point x="542" y="0" type="line"/>
    </contour>
  </outline>
</glyph>
<glyph name="bracketright" format="1">
  <advance width="260"/>
  <unicode hex="005D"/>
  <outline>
    <contour>
      <point x="157" y="-120" type="line"/>
      <point x="309" y="715" type="line"/>
      <point x="167" y="715" type="line"/>
      <point x="161" y="684" type="line"/>
      <point x="209" y="684"/>
      <point x="223" y="678"/>
      <point x="223" y="657" type="curve" smooth="yes"/>
      <point x="223" y="651"/>
      <point x="223" y="651"/>
      <point x="217" y="615" type="curve" smooth="yes"/>
      <point x="101" y="-20" type="line" smooth="yes"/>
      <point x="90" y="-82"/>
      <point x="83" y="-89"/>
      <point x="35" y="-89" type="curve" smooth="yes"/>
      <point x="21" y="-89" type="line"/>
      <point x="15" y="-120" type="line"/>
    </contour>
  </outline>
</glyph>
<glyph name="asciicircum" format="1">
  <advance width="600"/>
  <unicode hex="005E"/>
  <outline>
    <contour>
      <point x="599" y="318" type="line"/>
      <point x="390" y="722" type="line"/>
      <point x="306" y="722" type="line"/>
      <point x="97" y="318" type="line"/>
      <point x="186" y="318" type="line"/>
      <point x="348" y="626" type="line"/>
      <point x="510" y="318" type="line"/>
    </contour>
  </outline>
</glyph>
<glyph name="grave" format="1">
  <advance width="340"/>
  <unicode hex="0060"/>
  <outline>
    <contour>
      <point x="364" y="538" type="line"/>
      <point x="377" y="567" type="line"/>
      <point x="308" y="635" type="line" smooth="yes"/>
      <point x="269" y="674"/>
      <point x="246" y="689"/>
      <point x="226" y="689" type="curve" smooth="yes"/>
      <point x="202" y="689"/>
      <point x="182" y="670"/>
      <point x="182" y="647" type="curve" smooth="yes"/>
      <point x="182" y="620"/>
      <point x="201" y="603"/>
      <point x="252" y="583" type="curve" smooth="yes"/>
    </contour>
  </outline>
</glyph>
<glyph name="b" format="1">
  <advance width="600"/>
  <unicode hex="0062"/>
  <outline>
    <contour>
      <point x="310" y="715" type="line"/>
      <point x="269" y="715" type="line"/>
      <point x="224" y="697"/>
      <point x="191" y="689"/>
      <point x="122" y="682" type="curve"/>
      <point x="117" y="653" type="line"/>
      <point x="132" y="651" type="line" smooth="yes"/>
      <point x="180" y="645"/>
      <point x="195" y="633"/>
      <point x="195" y="600" type="curve" smooth="yes"/>
      <point x="195" y="593"/>
      <point x="194" y="585"/>
      <point x="193" y="577" type="curve"/>
      <point x="88" y="0" type="line"/>
      <point x="152" y="0" type="line"/>
      <point x="191" y="59" type="line"/>
      <point x="225" y="17"/>
      <point x="284" y="-9"/>
      <point x="345" y="-9" type="curve" smooth="yes"/>
      <point x="491" y="-9"/>
      <point x="621" y="141"/>
      <point x="621" y="309" type="curve" smooth="yes"/>
      <point x="621" y="421"/>
      <point x="554" y="495"/>
      <point x="453" y="495" type="curve" smooth="yes"/>
      <point x="371" y="495"/>
      <point x="292" y="444"/>
      <point x="246" y="361" type="curve"/>
    </contour>
    <contour>
      <point x="198" y="96" type="curve"/>
      <point x="216" y="192"/>
      <point x="227" y="235"/>
      <point x="245" y="279" type="curve" smooth="yes"/>
      <point x="288" y="386"/>
      <point x="359" y="448"/>
      <point x="437" y="448" type="curve" smooth="yes"/>
      <point x="489" y="448"/>
      <point x="524" y="404"/>
      <point x="524" y="338" type="curve" smooth="yes"/>
      <point x="524" y="279"/>
      <point x="507" y="211"/>
      <point x="478" y="154" type="curve" smooth="yes"/>
      <point x="441" y="82"/>
      <point x="380" y="38"/>
      <point x="316" y="38" type="curve" smooth="yes"/>
      <point x="271" y="38"/>
      <point x="232" y="56"/>
      <point x="201" y="92" type="curve"/>
      <point x="201" y="93"/>
      <point x="199" y="94"/>
    </contour>
  </outline>
</glyph>
<glyph name="e" format="1">
  <advance width="540"/>
  <unicode hex="0065"/>
  <outline>
    <contour>
      <point x="501" y="114" type="line"/>
      <point x="415" y="65"/>
      <point x="371" y="51"/>
      <point x="312" y="51" type="curve" smooth="yes"/>
      <point x="222" y="51"/>
      <point x="174" y="96"/>
      <point x="174" y="182" type="curve" smooth="yes"/>
      <point x="174" y="194"/>
      <point x="175" y="203"/>
      <point x="179" y="218" type="curve"/>
      <point x="280" y="224"/>
      <point x="341" y="232"/>
      <point x="404" y="248" type="curve" smooth="yes"/>
      <point x="514" y="276"/>
      <point x="575" y="326"/>
      <point x="575" y="387" type="curve" smooth="yes"/>
      <point x="575" y="449"/>
      <point x="505" y="495"/>
      <point x="411" y="495" type="curve" smooth="yes"/>
      <point x="229" y="495"/>
      <point x="65" y="345"/>
      <point x="65" y="178" type="curve" smooth="yes"/>
      <point x="65" y="71"/>
      <point x="157" y="-9"/>
      <point x="281" y="-9" type="curve" smooth="yes"/>
      <point x="359" y="-9"/>
      <point x="445" y="24"/>
      <point x="527" y="87" type="curve"/>
    </contour>
    <contour>
      <point x="186" y="255" type="line"/>
      <point x="206" y="319"/>
      <point x="223" y="352"/>
      <point x="256" y="390" type="curve" smooth="yes"/>
      <point x="297" y="435"/>
      <point x="341" y="458"/>
      <point x="390" y="458" type="curve" smooth="yes"/>
      <point x="442" y="458"/>
      <point x="478" y="428"/>
      <point x="478" y="386" type="curve" smooth="yes"/>
      <point x="478" y="338"/>
      <point x="433" y="297"/>
      <point x="359" y="278" type="curve" smooth="yes"/>
      <point x="311" y="265"/>
      <point x="238" y="255"/>
      <point x="199" y="255" type="curve" smooth="yes"/>
    </contour>
  </outline>
</glyph>
<glyph name="f" format="1">
  <advance width="340"/>
  <unicode hex="0066"/>
  <outline>
    <contour>
      <point x="313" y="486" type="line"/>
      <point x="330" y="579" type="line" smooth="yes"/>
      <point x="339" y="630"/>
      <point x="344" y="647"/>
      <point x="358" y="667" type="curve" smooth="yes"/>
      <point x="371" y="685"/>
      <point x="391" y="695"/>
      <point x="414" y="695" type="curve" smooth="yes"/>
      <point x="436" y="695"/>
      <point x="445" y="688"/>
      <point x="461" y="661" type="curve" smooth="yes"/>
      <point x="474" y="638"/>
      <point x="490" y="627"/>
      <point x="511" y="627" type="curve" smooth="yes"/>
      <point x="536" y="627"/>
      <point x="557" y="645"/>
      <point x="557" y="668" type="curve" smooth="yes"/>
      <point x="557" y="703"/>
      <point x="512" y="728"/>
      <point x="451" y="728" type="curve" smooth="yes"/>
      <point x="369" y="728"/>
      <point x="296" y="687"/>
      <point x="258" y="620" type="curve" smooth="yes"/>
      <point x="240" y="588"/>
      <point x="230" y="554"/>
      <point x="219" y="486" type="curve"/>
      <point x="131" y="486" type="line"/>
      <point x="125" y="454" type="line"/>
      <point x="215" y="454" type="line"/>
      <point x="148" y="84" type="line" smooth="yes"/>
      <point x="122" y="-74"/>
      <point x="112" y="-112"/>
      <point x="88" y="-138" type="curve" smooth="yes"/>
      <point x="70" y="-159"/>
      <point x="44" y="-171"/>
      <point x="20" y="-171" type="curve" smooth="yes"/>
      <point x="-3" y="-171"/>
      <point x="-24" y="-160"/>
      <point x="-45" y="-135" type="curve" smooth="yes"/>
      <point x="-76" y="-99"/>
      <point x="-89" y="-91"/>
      <point x="-115" y="-91" type="curve" smooth="yes"/>
      <point x="-141" y="-91"/>
      <point x="-160" y="-109"/>
      <point x="-160" y="-132" type="curve" smooth="yes"/>
      <point x="-160" y="-174"/>
      <point x="-100" y="-206"/>
      <point x="-21" y="-206" type="curve" smooth="yes"/>
      <point x="59" y="-206"/>
      <point x="129" y="-176"/>
      <point x="169" y="-125" type="curve" smooth="yes"/>
      <point x="204" y="-81"/>
      <point x="216" y="-45"/>
      <point x="237" y="69" type="curve" smooth="yes"/>
      <point x="307" y="454" type="line"/>
      <point x="408" y="454" type="line"/>
      <point x="414" y="486" type="line"/>
    </contour>
  </outline>
</glyph>
<glyph name="l" format="1">
  <advance width="280"/>
  <unicode hex="006C"/>
  <outline>
    <contour>
      <point x="319" y="85" type="line"/>
      <point x="289" y="58"/>
      <point x="270" y="48"/>
      <point x="248" y="48" type="curve" smooth="yes"/>
      <point x="216" y="48"/>
      <point x="193" y="71"/>
      <point x="193" y="101" type="curve" smooth="yes"/>
      <point x="193" y="114"/>
      <point x="193" y="116"/>
      <point x="202" y="164" type="curve" smooth="yes"/>
      <point x="302" y="715" type="line"/>
      <point x="261" y="715" type="line"/>
      <point x="216" y="697"/>
      <point x="183" y="689"/>
      <point x="114" y="682" type="curve"/>
      <point x="109" y="653" type="line"/>
      <point x="124" y="651" type="line" smooth="yes"/>
      <point x="172" y="645"/>
      <point x="187" y="633"/>
      <point x="187" y="599" type="curve" smooth="yes"/>
      <point x="187" y="593"/>
      <point x="186" y="585"/>
      <point x="185" y="577" type="curve"/>
      <point x="108" y="153" type="line" smooth="yes"/>
      <point x="103" y="125"/>
      <point x="100" y="101"/>
      <point x="100" y="85" type="curve" smooth="yes"/>
      <point x="100" y="32"/>
      <point x="140" y="-9"/>
      <point x="192" y="-9" type="curve" smooth="yes"/>
      <point x="247" y="-9"/>
      <point x="301" y="17"/>
      <point x="342" y="64" type="curve"/>
    </contour>
  </outline>
</glyph>
<glyph name="p" format="1">
  <advance width="600"/>
  <unicode hex="0070"/>
  <outline>
    <contour>
      <point x="281" y="486" type="line"/>
      <point x="243" y="486" type="line"/>
      <point x="186" y="473"/>
      <point x="170" y="470"/>
      <point x="103" y="464" type="curve"/>
      <point x="98" y="435" type="line"/>
      <point x="109" y="433" type="line" smooth="yes"/>
      <point x="153" y="426"/>
      <point x="168" y="412"/>
      <point x="168" y="383" type="curve" smooth="yes"/>
      <point x="168" y="376"/>
      <point x="167" y="367"/>
      <point x="166" y="358" type="curve"/>
      <point x="81" y="-107" type="line" smooth="yes"/>
      <point x="72" y="-155"/>
      <point x="50" y="-175"/>
      <point x="-2" y="-181" type="curve" smooth="yes"/>
      <point x="-19" y="-183" type="line"/>
      <point x="-24" y="-212" type="line"/>
      <point x="240" y="-212" type="line"/>
      <point x="245" y="-183" type="line"/>
      <point x="230" y="-181" type="line" smooth="yes"/>
      <point x="189" y="-176"/>
      <point x="171" y="-161"/>
      <point x="171" y="-133" type="curve" smooth="yes"/>
      <point x="171" y="-127"/>
      <point x="172" y="-112"/>
      <point x="173" y="-107" type="curve" smooth="yes"/>
      <point x="202" y="55" type="line"/>
      <point x="236" y="14"/>
      <point x="288" y="-9"/>
      <point x="345" y="-9" type="curve" smooth="yes"/>
      <point x="490" y="-9"/>
      <point x="620" y="143"/>
      <point x="620" y="314" type="curve" smooth="yes"/>
      <point x="620" y="423"/>
      <point x="555" y="495"/>
      <point x="458" y="495" type="curve" smooth="yes"/>
      <point x="374" y="495"/>
      <point x="296" y="440"/>
      <point x="257" y="353" type="curve"/>
    </contour>
    <contour>
      <point x="216" y="122" type="line" smooth="yes"/>
      <point x="232" y="194"/>
      <point x="239" y="226"/>
      <point x="245" y="244" type="curve" smooth="yes"/>
      <point x="259" y="292"/>
      <point x="282" y="338"/>
      <point x="305" y="369" type="curve" smooth="yes"/>
      <point x="344" y="419"/>
      <point x="393" y="448"/>
      <point x="440" y="448" type="curve" smooth="yes"/>
      <point x="492" y="448"/>
      <point x="527" y="404"/>
      <point x="527" y="339" type="curve" smooth="yes"/>
      <point x="527" y="264"/>
      <point x="500" y="173"/>
      <point x="462" y="120" type="curve" smooth="yes"/>
      <point x="424" y="67"/>
      <point x="376" y="38"/>
      <point x="324" y="38" type="curve" smooth="yes"/>
      <point x="276" y="38"/>
      <point x="236" y="58"/>
      <point x="210" y="95" type="curve"/>
    </contour>
  </outline>
</glyph>
<glyph name="q" format="1">
  <advance width="560"/>
  <unicode hex="0071"/>
  <outline>
    <contour>
      <point x="490" y="425" type="line"/>
      <point x="443" y="475"/>
      <point x="400" y="495"/>
      <point x="338" y="495" type="curve" smooth="yes"/>
      <point x="193" y="495"/>
      <point x="65" y="350"/>
      <point x="65" y="184" type="curve" smooth="yes"/>
      <point x="65" y="68"/>
      <point x="131" y="-9"/>
      <point x="230" y="-9" type="curve" smooth="yes"/>
      <point x="309" y="-9"/>
      <point x="378" y="36"/>
      <point x="425" y="118" type="curve"/>
      <point x="384" y="-107" type="line" smooth="yes"/>
      <point x="376" y="-155"/>
      <point x="353" y="-175"/>
      <point x="301" y="-181" type="curve" smooth="yes"/>
      <point x="285" y="-183" type="line"/>
      <point x="279" y="-212" type="line"/>
      <point x="543" y="-212" type="line"/>
      <point x="549" y="-183" type="line"/>
      <point x="533" y="-181" type="line" smooth="yes"/>
      <point x="492" y="-176"/>
      <point x="474" y="-161"/>
      <point x="474" y="-133" type="curve" smooth="yes"/>
      <point x="474" y="-126"/>
      <point x="475" y="-114"/>
      <point x="476" y="-107" type="curve" smooth="yes"/>
      <point x="584" y="486" type="line"/>
      <point x="529" y="486" type="line"/>
    </contour>
    <contour>
      <point x="476" y="396" type="curve"/>
      <point x="453" y="250"/>
      <point x="442" y="207"/>
      <point x="413" y="154" type="curve" smooth="yes"/>
      <point x="375" y="83"/>
      <point x="313" y="38"/>
      <point x="253" y="38" type="curve" smooth="yes"/>
      <point x="193" y="38"/>
      <point x="158" y="83"/>
      <point x="158" y="159" type="curve" smooth="yes"/>
      <point x="158" y="226"/>
      <point x="179" y="303"/>
      <point x="211" y="354" type="curve" smooth="yes"/>
      <point x="249" y="416"/>
      <point x="300" y="448"/>
      <point x="359" y="448" type="curve" smooth="yes"/>
      <point x="401" y="448"/>
      <point x="440" y="433"/>
      <point x="465" y="408" type="curve"/>
      <point x="467" y="405"/>
      <point x="472" y="401"/>
    </contour>
  </outline>
</glyph>
<glyph name="t" format="1">
  <advance width="340"/>
  <unicode hex="0074"/>
  <outline>
    <contour>
      <point x="300" y="665" type="line"/>
      <point x="264" y="665" type="line"/>
      <point x="237" y="536"/>
      <point x="196" y="493"/>
      <point x="94" y="486" type="curve"/>
      <point x="88" y="454" type="line"/>
      <point x="170" y="454" type="line"/>
      <point x="115" y="153" type="line" smooth="yes"/>
      <point x="108" y="113"/>
      <point x="105" y="93"/>
      <point x="105" y="73" type="curve" smooth="yes"/>
      <point x="105" y="21"/>
      <point x="150" y="-9"/>
      <point x="226" y="-9" type="curve" smooth="yes"/>
      <point x="283" y="-9"/>
      <point x="334" y="12"/>
      <point x="380" y="55" type="curve"/>
      <point x="358" y="80" type="line"/>
      <point x="319" y="46"/>
      <point x="289" y="33"/>
      <point x="256" y="33" type="curve" smooth="yes"/>
      <point x="222" y="33"/>
      <point x="199" y="57"/>
      <point x="199" y="92" type="curve" smooth="yes"/>
      <point x="199" y="109"/>
      <point x="201" y="121"/>
      <point x="210" y="170" type="curve" smooth="yes"/>
      <point x="262" y="454" type="line"/>
      <point x="405" y="454" type="line"/>
      <point x="411" y="486" type="line"/>
      <point x="268" y="486" type="line"/>
    </contour>
  </outline>
</glyph>
<glyph name="u" format="1">
  <advance width="620"/>
  <unicode hex="0075"/>
  <outline>
    <contour>
      <point x="607" y="486" type="line"/>
      <point x="515" y="486" type="line"/>
      <point x="449" y="123" type="line"/>
      <point x="368" y="64"/>
      <point x="319" y="43"/>
      <point x="265" y="43" type="curve" smooth="yes"/>
      <point x="227" y="43"/>
      <point x="204" y="66"/>
      <point x="204" y="103" type="curve" smooth="yes"/>
      <point x="204" y="113"/>
      <point x="205" y="121"/>
      <point x="209" y="143" type="curve" smooth="yes"/>
      <point x="271" y="486" type="line"/>
      <point x="233" y="486" type="line"/>
      <point x="176" y="473"/>
      <point x="161" y="470"/>
      <point x="93" y="464" type="curve"/>
      <point x="88" y="435" type="line"/>
      <point x="100" y="433" type="line" smooth="yes"/>
      <point x="142" y="426"/>
      <point x="158" y="412"/>
      <point x="158" y="382" type="curve" smooth="yes"/>
      <point x="158" y="372"/>
      <point x="158" y="367"/>
      <point x="156" y="358" type="curve" smooth="yes"/>
      <point x="117" y="144" type="line" smooth="yes"/>
      <point x="113" y="121"/>
      <point x="111" y="101"/>
      <point x="111" y="84" type="curve" smooth="yes"/>
      <point x="111" y="26"/>
      <point x="152" y="-9"/>
      <point x="223" y="-9" type="curve" smooth="yes"/>
      <point x="271" y="-9"/>
      <point x="313" y="2"/>
      <point x="362" y="28" type="curve" smooth="yes"/>
      <point x="398" y="47"/>
      <point x="424" y="66"/>
      <point x="442" y="83" type="curve"/>
      <point x="450" y="25"/>
      <point x="488" y="-9"/>
      <point x="545" y="-9" type="curve" smooth="yes"/>
      <point x="595" y="-9"/>
      <point x="644" y="17"/>
      <point x="686" y="66" type="curve"/>
      <point x="663" y="87" type="line"/>
      <point x="643" y="61"/>
      <point x="614" y="43"/>
      <point x="591" y="43" type="curve" smooth="yes"/>
      <point x="562" y="43"/>
      <point x="540" y="69"/>
      <point x="540" y="103" type="curve" smooth="yes"/>
      <point x="540" y="111"/>
      <point x="540" y="111"/>
      <point x="548" y="159" type="curve" smooth="yes"/>
    </contour>
  </outline>
</glyph>
<glyph name="v" format="1">
  <advance width="540"/>
  <unicode hex="0076"/>
  <outline>
    <contour>
      <point x="88" y="435" type="line"/>
      <point x="100" y="433" type="line" smooth="yes"/>
      <point x="142" y="426"/>
      <point x="158" y="412"/>
      <point x="158" y="383" type="curve" smooth="yes"/>
      <point x="158" y="373"/>
      <point x="157" y="367"/>
      <point x="156" y="358" type="curve"/>
      <point x="118" y="150" type="line" smooth="yes"/>
      <point x="114" y="128"/>
      <point x="112" y="107"/>
      <point x="112" y="88" type="curve" smooth="yes"/>
      <point x="112" y="27"/>
      <point x="161" y="-9"/>
      <point x="245" y="-9" type="curve" smooth="yes"/>
      <point x="425" y="-9"/>
      <point x="562" y="149"/>
      <point x="562" y="359" type="curve" smooth="yes"/>
      <point x="562" y="445"/>
      <point x="532" y="499"/>
      <point x="483" y="499" type="curve" smooth="yes"/>
      <point x="451" y="499"/>
      <point x="422" y="467"/>
      <point x="422" y="430" type="curve" smooth="yes"/>
      <point x="422" y="414"/>
      <point x="429" y="401"/>
      <point x="447" y="387" type="curve" smooth="yes"/>
      <point x="486" y="356"/>
      <point x="500" y="326"/>
      <point x="500" y="277" type="curve" smooth="yes"/>
      <point x="500" y="154"/>
      <point x="396" y="43"/>
      <point x="281" y="43" type="curve" smooth="yes"/>
      <point x="232" y="43"/>
      <point x="205" y="65"/>
      <point x="205" y="105" type="curve" smooth="yes"/>
      <point x="205" y="117"/>
      <point x="206" y="126"/>
      <point x="208" y="137" type="curve" smooth="yes"/>
      <point x="271" y="486" type="line"/>
      <point x="233" y="486" type="line"/>
      <point x="176" y="473"/>
      <point x="161" y="470"/>
      <point x="93" y="464" type="curve"/>
    </contour>
  </outline>
</glyph>
<glyph name="w" format="1">
  <advance width="880"/>
  <unicode hex="0077"/>
  <outline>
    <contour>
      <point x="609" y="486" type="line"/>
      <point x="517" y="486" type="line"/>
      <point x="450" y="115" type="line"/>
      <point x="394" y="69"/>
      <point x="327" y="38"/>
      <point x="282" y="38" type="curve" smooth="yes"/>
      <point x="234" y="38"/>
      <point x="205" y="62"/>
      <point x="205" y="102" type="curve" smooth="yes"/>
      <point x="205" y="114"/>
      <point x="208" y="138"/>
      <point x="212" y="163" type="curve" smooth="yes"/>
      <point x="271" y="486" type="line"/>
      <point x="233" y="486" type="line"/>
      <point x="176" y="473"/>
      <point x="161" y="470"/>
      <point x="93" y="464" type="curve"/>
      <point x="88" y="435" type="line"/>
      <point x="100" y="433" type="line" smooth="yes"/>
      <point x="142" y="426"/>
      <point x="158" y="412"/>
      <point x="158" y="383" type="curve" smooth="yes"/>
      <point x="158" y="373"/>
      <point x="157" y="367"/>
      <point x="156" y="358" type="curve"/>
      <point x="114" y="127" type="line" smooth="yes"/>
      <point x="111" y="113"/>
      <point x="110" y="99"/>
      <point x="110" y="86" type="curve" smooth="yes"/>
      <point x="110" y="27"/>
      <point x="158" y="-9"/>
      <point x="237" y="-9" type="curve" smooth="yes"/>
      <point x="308" y="-9"/>
      <point x="390" y="23"/>
      <point x="452" y="75" type="curve"/>
      <point x="456" y="22"/>
      <point x="503" y="-9"/>
      <point x="578" y="-9" type="curve" smooth="yes"/>
      <point x="659" y="-9"/>
      <point x="733" y="23"/>
      <point x="790" y="84" type="curve" smooth="yes"/>
      <point x="852" y="150"/>
      <point x="893" y="264"/>
      <point x="893" y="374" type="curve" smooth="yes"/>
      <point x="893" y="450"/>
      <point x="861" y="499"/>
      <point x="812" y="499" type="curve" smooth="yes"/>
      <point x="780" y="499"/>
      <point x="751" y="468"/>
      <point x="751" y="433" type="curve" smooth="yes"/>
      <point x="751" y="412"/>
      <point x="758" y="401"/>
      <point x="784" y="381" type="curve" smooth="yes"/>
      <point x="815" y="357"/>
      <point x="829" y="324"/>
      <point x="829" y="277" type="curve" smooth="yes"/>
      <point x="829" y="156"/>
      <point x="729" y="38"/>
      <point x="628" y="38" type="curve" smooth="yes"/>
      <point x="576" y="38"/>
      <point x="545" y="66"/>
      <point x="545" y="112" type="curve" smooth="yes"/>
      <point x="545" y="127"/>
      <point x="548" y="150"/>
      <point x="555" y="190" type="curve" smooth="yes"/>
    </contour>
  </outline>
</glyph>
<glyph name="x" format="1">
  <advance width="540"/>
  <unicode hex="0078"/>
  <outline>
    <contour>
      <point x="560" y="75" type="line"/>
      <point x="534" y="57"/>
      <point x="521" y="51"/>
      <point x="503" y="51" type="curve" smooth="yes"/>
      <point x="480" y="51"/>
      <point x="459" y="64"/>
      <point x="438" y="92" type="curve" smooth="yes"/>
      <point x="421" y="116"/>
      <point x="413" y="133"/>
      <point x="370" y="242" type="curve"/>
      <point x="431" y="343"/>
      <point x="490" y="399"/>
      <point x="535" y="399" type="curve" smooth="yes"/>
      <point x="538" y="399"/>
      <point x="543" y="399"/>
      <point x="549" y="398" type="curve"/>
      <point x="558" y="398" type="line" smooth="yes"/>
      <point x="596" y="398"/>
      <point x="626" y="423"/>
      <point x="626" y="454" type="curve" smooth="yes"/>
      <point x="626" y="479"/>
      <point x="608" y="499"/>
      <point x="585" y="499" type="curve" smooth="yes"/>
      <point x="523" y="499"/>
      <point x="445" y="425"/>
      <point x="352" y="279" type="curve"/>
      <point x="282" y="486" type="line"/>
      <point x="256" y="486" type="line"/>
      <point x="212" y="474"/>
      <point x="185" y="470"/>
      <point x="132" y="464" type="curve"/>
      <point x="127" y="435" type="line"/>
      <point x="194" y="420"/>
      <point x="205" y="408"/>
      <point x="239" y="318" type="curve" smooth="yes"/>
      <point x="264" y="253" type="line"/>
      <point x="200" y="135"/>
      <point x="151" y="87"/>
      <point x="95" y="87" type="curve" smooth="yes"/>
      <point x="91" y="87"/>
      <point x="87" y="87"/>
      <point x="82" y="88" type="curve"/>
      <point x="70" y="89"/>
      <point x="61" y="90"/>
      <point x="59" y="90" type="curve" smooth="yes"/>
      <point x="30" y="90"/>
      <point x="9" y="69"/>
      <point x="9" y="40" type="curve" smooth="yes"/>
      <point x="9" y="8"/>
      <point x="28" y="-13"/>
      <point x="56" y="-13" type="curve" smooth="yes"/>
      <point x="124" y="-13"/>
      <point x="189" y="51"/>
      <point x="280" y="211" type="curve"/>
      <point x="303" y="156" type="line" smooth="yes"/>
      <point x="337" y="72"/>
      <point x="343" y="59"/>
      <point x="359" y="39" type="curve" smooth="yes"/>
      <point x="382" y="8"/>
      <point x="414" y="-9"/>
      <point x="450" y="-9" type="curve" smooth="yes"/>
      <point x="492" y="-9"/>
      <point x="543" y="16"/>
      <point x="582" y="55" type="curve"/>
    </contour>
  </outline>
</glyph>
<glyph name="braceleft" format="1">
  <advance width="360"/>
  <unicode hex="007B"/>
  <outline>
    <contour>
      <point x="289" y="-125" type="line"/>
      <point x="234" y="-120"/>
      <point x="214" y="-103"/>
      <point x="214" y="-61" type="curve" smooth="yes"/>
      <point x="214" y="-48"/>
      <point x="218" y="-7"/>
      <point x="220" y="9" type="curve" smooth="yes"/>
      <point x="241" y="132" type="line" smooth="yes"/>
      <point x="246" y="163"/>
      <point x="248" y="183"/>
      <point x="248" y="204" type="curve" smooth="yes"/>
      <point x="248" y="251"/>
      <point x="235" y="276"/>
      <point x="201" y="298" type="curve"/>
      <point x="256" y="321"/>
      <point x="281" y="364"/>
      <point x="295" y="455" type="curve" smooth="yes"/>
      <point x="318" y="585" type="line" smooth="yes"/>
      <point x="335" y="691"/>
      <point x="359" y="720"/>
      <point x="434" y="719" type="curve"/>
      <point x="439" y="750" type="line"/>
      <point x="435" y="750" type="line" smooth="yes"/>
      <point x="351" y="750"/>
      <point x="304" y="725"/>
      <point x="271" y="663" type="curve" smooth="yes"/>
      <point x="258" y="639"/>
      <point x="257" y="638"/>
      <point x="248" y="585" type="curve" smooth="yes"/>
      <point x="225" y="455" type="line" smooth="yes"/>
      <point x="212" y="367"/>
      <point x="190" y="333"/>
      <point x="130" y="312" type="curve"/>
      <point x="125" y="284" type="line"/>
      <point x="162" y="265"/>
      <point x="178" y="240"/>
      <point x="178" y="202" type="curve" smooth="yes"/>
      <point x="178" y="189"/>
      <point x="176" y="168"/>
      <point x="173" y="150" type="curve" smooth="yes"/>
      <point x="150" y="20" type="line" smooth="yes"/>
      <point x="147" y="6"/>
      <point x="144" y="-30"/>
      <point x="144" y="-42" type="curve" smooth="yes"/>
      <point x="144" y="-75"/>
      <point x="158" y="-107"/>
      <point x="181" y="-127" type="curve" smooth="yes"/>
      <point x="202" y="-146"/>
      <point x="232" y="-155"/>
      <point x="283" y="-155" type="curve"/>
    </contour>
  </outline>
</glyph>
<glyph name="braceright" format="1">
  <advance width="380"/>
  <unicode hex="007D"/>
  <outline>
    <contour>
      <point x="165" y="720" type="line"/>
      <point x="220" y="715"/>
      <point x="240" y="698"/>
      <point x="240" y="656" type="curve" smooth="yes"/>
      <point x="240" y="643"/>
      <point x="236" y="602"/>
      <point x="234" y="586" type="curve" smooth="yes"/>
      <point x="213" y="462" type="line" smooth="yes"/>
      <point x="208" y="432"/>
      <point x="206" y="412"/>
      <point x="206" y="390" type="curve" smooth="yes"/>
      <point x="206" y="344"/>
      <point x="219" y="318"/>
      <point x="253" y="297" type="curve"/>
      <point x="198" y="273"/>
      <point x="173" y="230"/>
      <point x="159" y="140" type="curve" smooth="yes"/>
      <point x="136" y="10" type="line" smooth="yes"/>
      <point x="119" y="-97"/>
      <point x="95" y="-125"/>
      <point x="20" y="-125" type="curve"/>
      <point x="15" y="-155" type="line"/>
      <point x="19" y="-155" type="line"/>
      <point x="36" y="-155" type="line" smooth="yes"/>
      <point x="129" y="-155"/>
      <point x="195" y="-92"/>
      <point x="206" y="10" type="curve"/>
      <point x="229" y="140" type="line" smooth="yes"/>
      <point x="242" y="228"/>
      <point x="265" y="262"/>
      <point x="325" y="283" type="curve"/>
      <point x="330" y="311" type="line"/>
      <point x="292" y="330"/>
      <point x="276" y="354"/>
      <point x="276" y="393" type="curve" smooth="yes"/>
      <point x="276" y="406"/>
      <point x="278" y="427"/>
      <point x="281" y="445" type="curve" smooth="yes"/>
      <point x="304" y="575" type="line" smooth="yes"/>
      <point x="307" y="589"/>
      <point x="310" y="624"/>
      <point x="310" y="637" type="curve" smooth="yes"/>
      <point x="310" y="707"/>
      <point x="261" y="750"/>
      <point x="182" y="750" type="curve" smooth="yes"/>
      <point x="171" y="750" type="line"/>
    </contour>
  </outline>
</glyph>
<glyph name="asciitilde" format="1">
  <advance width="600"/>
  <unicode hex="007E"/>
  <outline>
    <contour>
      <point x="552" y="332" type="line"/>
      <point x="517" y="274"/>
      <point x="489" y="250"/>
      <point x="456" y="250" type="curve" smooth="yes"/>
      <point x="437" y="250"/>
      <point x="419" y="255"/>
      <point x="376" y="273" type="curve" smooth="yes"/>
      <point x="311" y="300" type="line" smooth="yes"/>
      <point x="282" y="313"/>
      <point x="256" y="319"/>
      <point x="235" y="319" type="curve" smooth="yes"/>
      <point x="179" y="319"/>
      <point x="142" y="288"/>
      <point x="91" y="199" type="curve"/>
      <point x="133" y="152" type="line"/>
      <point x="152" y="184"/>
      <point x="158" y="192"/>
      <point x="168" y="207" type="curve"/>
      <point x="185" y="229"/>
      <point x="209" y="242"/>
      <point x="235" y="242" type="curve" smooth="yes"/>
      <point x="254" y="242"/>
      <point x="265" y="239"/>
      <point x="308" y="221" type="curve" smooth="yes"/>
      <point x="362" y="199" type="line" smooth="yes"/>
      <point x="407" y="180"/>
      <point x="432" y="173"/>
      <point x="455" y="173" type="curve" smooth="yes"/>
      <point x="507" y="173"/>
      <point x="558" y="214"/>
      <point x="595" y="285" type="curve"/>
    </contour>
  </outline>
</glyph>
<glyph name="exclamdown" format="1">
  <advance width="320"/>
  <unicode hex="00A1"/>
  <outline>
    <contour>
      <point x="203" y="302" type="line"/>
      <point x="188" y="216"/>
      <point x="175" y="169"/>
      <point x="134" y="58" type="curve" smooth="yes"/>
      <point x="82" y="-78"/>
      <point x="73" y="-110"/>
      <point x="73" y="-150" type="curve" smooth="yes"/>
      <point x="73" y="-190"/>
      <point x="92" y="-212"/>
      <point x="128" y="-212" type="curve" smooth="yes"/>
      <point x="160" y="-212"/>
      <point x="187" y="-190"/>
      <point x="200" y="-156" type="curve" smooth="yes"/>
      <point x="214" y="-117"/>
      <point x="218" y="-74"/>
      <point x="219" y="22" type="curve" smooth="yes"/>
      <point x="219" y="140"/>
      <point x="224" y="212"/>
      <point x="240" y="302" type="curve"/>
    </contour>
    <contour>
      <point x="249" y="494" type="curve" smooth="yes"/>
      <point x="206" y="494"/>
      <point x="167" y="457"/>
      <point x="167" y="418" type="curve" smooth="yes"/>
      <point x="167" y="384"/>
      <point x="191" y="360"/>
      <point x="224" y="360" type="curve" smooth="yes"/>
      <point x="265" y="360"/>
      <point x="301" y="398"/>
      <point x="301" y="441" type="curve" smooth="yes"/>
      <point x="301" y="471"/>
      <point x="279" y="494"/>
    </contour>
  </outline>
</glyph>
<glyph name="cent" format="1">
  <advance width="620"/>
  <unicode hex="00A2"/>
  <outline>
    <contour>
      <point x="441" y="552" type="line"/>
      <point x="478" y="545"/>
      <point x="499" y="525"/>
      <point x="499" y="496" type="curve" smooth="yes"/>
      <point x="499" y="491"/>
      <point x="497" y="484"/>
      <point x="494" y="478" type="curve" smooth="yes"/>
      <point x="485" y="460"/>
      <point x="485" y="459"/>
      <point x="485" y="450" type="curve" smooth="yes"/>
      <point x="485" y="425"/>
      <point x="504" y="406"/>
      <point x="529" y="406" type="curve" smooth="yes"/>
      <point x="565" y="406"/>
      <point x="596" y="439"/>
      <point x="596" y="478" type="curve" smooth="yes"/>
      <point x="596" y="539"/>
      <point x="537" y="587"/>
      <point x="449" y="596" type="curve"/>
      <point x="470" y="715" type="line"/>
      <point x="428" y="715" type="line"/>
      <point x="407" y="596" type="line"/>
      <point x="344" y="590"/>
      <point x="298" y="572"/>
      <point x="257" y="538" type="curve" smooth="yes"/>
      <point x="190" y="482"/>
      <point x="148" y="392"/>
      <point x="148" y="302" type="curve" smooth="yes"/>
      <point x="148" y="241"/>
      <point x="168" y="190"/>
      <point x="207" y="157" type="curve" smooth="yes"/>
      <point x="233" y="135"/>
      <point x="265" y="123"/>
      <point x="319" y="113" type="curve"/>
      <point x="293" y="-29" type="line"/>
      <point x="335" y="-29" type="line"/>
      <point x="361" y="113" type="line"/>
      <point x="447" y="121"/>
      <point x="510" y="156"/>
      <point x="560" y="225" type="curve"/>
      <point x="526" y="245" type="line"/>
      <point x="478" y="189"/>
      <point x="426" y="158"/>
      <point x="379" y="158" type="curve" smooth="yes"/>
      <point x="369" y="158" type="line"/>
    </contour>
    <contour>
      <point x="329" y="166" type="line"/>
      <point x="272" y="183"/>
      <point x="245" y="223"/>
      <point x="245" y="289" type="curve" smooth="yes"/>
      <point x="245" y="359"/>
      <point x="267" y="438"/>
      <point x="300" y="487" type="curve" smooth="yes"/>
      <point x="329" y="530"/>
      <point x="358" y="549"/>
      <point x="399" y="552" type="curve"/>
    </contour>
  </outline>
</glyph>
<glyph name="sterling" format="1">
  <advance width="620"/>
  <unicode hex="00A3"/>
  <outline>
    <contour>
      <point x="350" y="407" type="line"/>
      <point x="349" y="426"/>
      <point x="348" y="440"/>
      <point x="348" y="451" type="curve" smooth="yes"/>
      <point x="348" y="500"/>
      <point x="359" y="549"/>
      <point x="376" y="576" type="curve" smooth="yes"/>
      <point x="406" y="626"/>
      <point x="453" y="652"/>
      <point x="510" y="652" type="curve" smooth="yes"/>
      <point x="570" y="652"/>
      <point x="620" y="622"/>
      <point x="620" y="586" type="curve" smooth="yes"/>
      <point x="620" y="575"/>
      <point x="616" y="565"/>
      <point x="605" y="552" type="curve"/>
      <point x="587" y="528"/>
      <point x="583" y="521"/>
      <point x="583" y="506" type="curve" smooth="yes"/>
      <point x="583" y="483"/>
      <point x="600" y="467"/>
      <point x="626" y="467" type="curve" smooth="yes"/>
      <point x="671" y="467"/>
      <point x="702" y="505"/>
      <point x="702" y="561" type="curve" smooth="yes"/>
      <point x="702" y="639"/>
      <point x="625" y="694"/>
      <point x="515" y="694" type="curve" smooth="yes"/>
      <point x="364" y="694"/>
      <point x="243" y="585"/>
      <point x="243" y="449" type="curve" smooth="yes"/>
      <point x="243" y="438"/>
      <point x="244" y="428"/>
      <point x="246" y="407" type="curve"/>
      <point x="130" y="407" type="line"/>
      <point x="109" y="363" type="line"/>
      <point x="248" y="363" type="line"/>
      <point x="250" y="348"/>
      <point x="252" y="334"/>
      <point x="253" y="329" type="curve"/>
      <point x="262" y="258"/>
      <point x="264" y="239"/>
      <point x="264" y="208" type="curve" smooth="yes"/>
      <point x="264" y="189"/>
      <point x="263" y="176"/>
      <point x="258" y="152" type="curve"/>
      <point x="201" y="171"/>
      <point x="173" y="177"/>
      <point x="144" y="177" type="curve" smooth="yes"/>
      <point x="68" y="177"/>
      <point x="4" y="125"/>
      <point x="4" y="65" type="curve" smooth="yes"/>
      <point x="4" y="18"/>
      <point x="43" y="-13"/>
      <point x="102" y="-13" type="curve" smooth="yes"/>
      <point x="171" y="-13"/>
      <point x="228" y="14"/>
      <point x="290" y="76" type="curve"/>
      <point x="326" y="54"/>
      <point x="371" y="25"/>
      <point x="374" y="23" type="curve" smooth="yes"/>
      <point x="416" y="-3"/>
      <point x="444" y="-13"/>
      <point x="475" y="-13" type="curve" smooth="yes"/>
      <point x="558" y="-13"/>
      <point x="638" y="60"/>
      <point x="638" y="137" type="curve" smooth="yes"/>
      <point x="638" y="190"/>
      <point x="602" y="224"/>
      <point x="547" y="224" type="curve" smooth="yes"/>
      <point x="517" y="224"/>
      <point x="492" y="216"/>
      <point x="459" y="197" type="curve"/>
      <point x="469" y="169" type="line"/>
      <point x="475" y="172"/>
      <point x="480" y="174"/>
      <point x="482" y="174" type="curve"/>
      <point x="512" y="186"/>
      <point x="516" y="187"/>
      <point x="530" y="187" type="curve" smooth="yes"/>
      <point x="557" y="187"/>
      <point x="576" y="169"/>
      <point x="576" y="144" type="curve" smooth="yes"/>
      <point x="576" y="107"/>
      <point x="539" y="75"/>
      <point x="495" y="75" type="curve" smooth="yes"/>
      <point x="460" y="75"/>
      <point x="415" y="89"/>
      <point x="327" y="127" type="curve"/>
      <point x="354" y="167"/>
      <point x="366" y="207"/>
      <point x="366" y="255" type="curve" smooth="yes"/>
      <point x="366" y="273"/>
      <point x="366" y="273"/>
      <point x="354" y="363" type="curve"/>
      <point x="504" y="363" type="line"/>
      <point x="520" y="407" type="line"/>
    </contour>
    <contour>
      <point x="242" y="101" type="curve"/>
      <point x="207" y="58"/>
      <point x="164" y="34"/>
      <point x="123" y="34" type="curve" smooth="yes"/>
      <point x="85" y="34"/>
      <point x="61" y="50"/>
      <point x="61" y="74" type="curve" smooth="yes"/>
      <point x="61" y="104"/>
      <point x="95" y="130"/>
      <point x="134" y="130" type="curve" smooth="yes"/>
      <point x="173" y="130"/>
      <point x="206" y="121"/>
    </contour>
  </outline>
</glyph>
<glyph name="currency" format="1">
  <advance width="620"/>
  <unicode hex="00A4"/>
  <outline>
    <contour>
      <point x="101" y="152" type="line"/>
      <point x="151" y="101" type="line"/>
      <point x="204" y="154" type="line"/>
      <point x="253" y="117"/>
      <point x="296" y="102"/>
      <point x="353" y="102" type="curve" smooth="yes"/>
      <point x="410" y="102"/>
      <point x="453" y="117"/>
      <point x="502" y="154" type="curve"/>
      <point x="555" y="101" type="line"/>
      <point x="605" y="152" type="line"/>
      <point x="552" y="205" type="line"/>
      <point x="587" y="252"/>
      <point x="601" y="293"/>
      <point x="601" y="350" type="curve" smooth="yes"/>
      <point x="601" y="408"/>
      <point x="587" y="450"/>
      <point x="550" y="498" type="curve"/>
      <point x="603" y="550" type="line"/>
      <point x="553" y="602" type="line"/>
      <point x="500" y="549" type="line"/>
      <point x="451" y="584"/>
      <point x="408" y="599"/>
      <point x="354" y="599" type="curve" smooth="yes"/>
      <point x="299" y="599"/>
      <point x="252" y="583"/>
      <point x="205" y="548" type="curve"/>
      <point x="151" y="602" type="line"/>
      <point x="100" y="550" type="line"/>
      <point x="154" y="496" type="line"/>
      <point x="118" y="449"/>
      <point x="105" y="409"/>
      <point x="105" y="350" type="curve" smooth="yes"/>
      <point x="105" y="294"/>
      <point x="118" y="256"/>
      <point x="154" y="205" type="curve"/>
    </contour>
    <contour>
      <point x="356" y="516" type="curve" smooth="yes"/>
      <point x="444" y="516"/>
      <point x="519" y="440"/>
      <point x="519" y="351" type="curve" smooth="yes"/>
      <point x="519" y="260"/>
      <point x="444" y="185"/>
      <point x="353" y="185" type="curve" smooth="yes"/>
      <point x="261" y="185"/>
      <point x="187" y="259"/>
      <point x="187" y="352" type="curve" smooth="yes"/>
      <point x="187" y="443"/>
      <point x="262" y="516"/>
    </contour>
  </outline>
</glyph>
<glyph name="yen" format="1">
  <advance width="620"/>
  <unicode hex="00A5"/>
  <outline>
    <contour>
      <point x="376" y="339" type="line"/>
      <point x="313" y="563" type="line" smooth="yes"/>
      <point x="303" y="595"/>
      <point x="303" y="597"/>
      <point x="303" y="608" type="curve" smooth="yes"/>
      <point x="303" y="633"/>
      <point x="325" y="646"/>
      <point x="375" y="652" type="curve"/>
      <point x="380" y="681" type="line"/>
      <point x="123" y="681" type="line"/>
      <point x="118" y="652" type="line"/>
      <point x="137" y="647" type="line"/>
      <point x="184" y="631"/>
      <point x="199" y="613"/>
      <point x="218" y="548" type="curve" smooth="yes"/>
      <point x="249" y="450" type="line"/>
      <point x="106" y="450" type="line"/>
      <point x="98" y="406" type="line"/>
      <point x="260" y="406" type="line"/>
      <point x="291" y="301" type="line"/>
      <point x="79" y="301" type="line"/>
      <point x="71" y="257" type="line"/>
      <point x="293" y="257" type="line"/>
      <point x="269" y="122" type="line" smooth="yes"/>
      <point x="258" y="58"/>
      <point x="235" y="37"/>
      <point x="170" y="31" type="curve" smooth="yes"/>
      <point x="154" y="29" type="line"/>
      <point x="148" y="0" type="line"/>
      <point x="431" y="0" type="line"/>
      <point x="438" y="29" type="line"/>
      <point x="421" y="31" type="line" smooth="yes"/>
      <point x="395" y="34"/>
      <point x="391" y="35"/>
      <point x="382" y="41" type="curve" smooth="yes"/>
      <point x="367" y="52"/>
      <point x="357" y="72"/>
      <point x="357" y="91" type="curve" smooth="yes"/>
      <point x="357" y="98"/>
      <point x="358" y="108"/>
      <point x="360" y="120" type="curve" smooth="yes"/>
      <point x="385" y="257" type="line"/>
      <point x="609" y="257" type="line"/>
      <point x="617" y="301" type="line"/>
      <point x="394" y="301" type="line"/>
      <point x="468" y="406" type="line"/>
      <point x="636" y="406" type="line"/>
      <point x="644" y="450" type="line"/>
      <point x="500" y="450" type="line"/>
      <point x="548" y="517" type="line" smooth="yes"/>
      <point x="625" y="617"/>
      <point x="637" y="626"/>
      <point x="710" y="647" type="curve" smooth="yes"/>
      <point x="730" y="652" type="line"/>
      <point x="735" y="681" type="line"/>
      <point x="489" y="681" type="line"/>
      <point x="484" y="652" type="line"/>
      <point x="500" y="650" type="line" smooth="yes"/>
      <point x="526" y="647"/>
      <point x="544" y="632"/>
      <point x="544" y="614" type="curve" smooth="yes"/>
      <point x="544" y="594"/>
      <point x="541" y="589"/>
      <point x="507" y="539" type="curve" smooth="yes"/>
    </contour>
  </outline>
</glyph>
<glyph name="section" format="1">
  <advance width="620"/>
  <unicode hex="00A7"/>
  <outline>
    <contour>
      <point x="229" y="404" type="curve"/>
      <point x="177" y="365"/>
      <point x="169" y="359"/>
      <point x="153" y="343" type="curve" smooth="yes"/>
      <point x="126" y="316"/>
      <point x="108" y="274"/>
      <point x="108" y="237" type="curve" smooth="yes"/>
      <point x="108" y="180"/>
      <point x="143" y="137"/>
      <point x="209" y="112" type="curve" smooth="yes"/>
      <point x="245" y="98"/>
      <point x="327" y="72"/>
      <point x="380" y="59" type="curve" smooth="yes"/>
      <point x="448" y="41"/>
      <point x="474" y="19"/>
      <point x="474" y="-22" type="curve" smooth="yes"/>
      <point x="474" y="-92"/>
      <point x="391" y="-148"/>
      <point x="286" y="-148" type="curve" smooth="yes"/>
      <point x="242" y="-148"/>
      <point x="183" y="-136"/>
      <point x="161" y="-123" type="curve" smooth="yes"/>
      <point x="146" y="-114"/>
      <point x="134" y="-100"/>
      <point x="134" y="-91" type="curve" smooth="yes"/>
      <point x="134" y="-85"/>
      <point x="139" y="-70"/>
      <point x="148" y="-50" type="curve" smooth="yes"/>
      <point x="152" y="-41"/>
      <point x="154" y="-32"/>
      <point x="154" y="-22" type="curve" smooth="yes"/>
      <point x="154" y="6"/>
      <point x="131" y="28"/>
      <point x="101" y="28" type="curve" smooth="yes"/>
      <point x="66" y="28"/>
      <point x="38" y="-5"/>
      <point x="38" y="-46" type="curve" smooth="yes"/>
      <point x="38" y="-125"/>
      <point x="135" y="-181"/>
      <point x="273" y="-181" type="curve" smooth="yes"/>
      <point x="365" y="-181"/>
      <point x="438" y="-159"/>
      <point x="496" y="-113" type="curve" smooth="yes"/>
      <point x="543" y="-76"/>
      <point x="570" y="-29"/>
      <point x="570" y="16" type="curve" smooth="yes"/>
      <point x="570" y="40"/>
      <point x="561" y="66"/>
      <point x="546" y="88" type="curve" smooth="yes"/>
      <point x="535" y="104"/>
      <point x="523" y="113"/>
      <point x="495" y="128" type="curve"/>
      <point x="581" y="185"/>
      <point x="608" y="222"/>
      <point x="608" y="281" type="curve" smooth="yes"/>
      <point x="608" y="338"/>
      <point x="580" y="378"/>
      <point x="520" y="406" type="curve" smooth="yes"/>
      <point x="492" y="419"/>
      <point x="431" y="439"/>
      <point x="356" y="461" type="curve" smooth="yes"/>
      <point x="279" y="483"/>
      <point x="254" y="504"/>
      <point x="254" y="546" type="curve" smooth="yes"/>
      <point x="254" y="609"/>
      <point x="330" y="661"/>
      <point x="422" y="661" type="curve" smooth="yes"/>
      <point x="489" y="661"/>
      <point x="542" y="633"/>
      <point x="542" y="596" type="curve" smooth="yes"/>
      <point x="542" y="589"/>
      <point x="541" y="578"/>
      <point x="538" y="567" type="curve" smooth="yes"/>
      <point x="535" y="557"/>
      <point x="534" y="547"/>
      <point x="534" y="539" type="curve" smooth="yes"/>
      <point x="534" y="514"/>
      <point x="558" y="491"/>
      <point x="584" y="491" type="curve" smooth="yes"/>
      <point x="614" y="491"/>
      <point x="638" y="518"/>
      <point x="638" y="553" type="curve" smooth="yes"/>
      <point x="638" y="634"/>
      <point x="545" y="694"/>
      <point x="420" y="694" type="curve" smooth="yes"/>
      <point x="273" y="694"/>
      <point x="161" y="616"/>
      <point x="161" y="514" type="curve" smooth="yes"/>
      <point x="161" y="466"/>
      <point x="182" y="433"/>
    </contour>
    <contour>
      <point x="257" y="392" type="curve"/>
      <point x="281" y="383"/>
      <point x="294" y="378"/>
      <point x="328" y="368" type="curve" smooth="yes"/>
      <point x="452" y="332"/>
      <point x="478" y="323"/>
      <point x="494" y="312" type="curve" smooth="yes"/>
      <point x="520" y="295"/>
      <point x="535" y="270"/>
      <point x="535" y="244" type="curve" smooth="yes"/>
      <point x="535" y="209"/>
      <point x="517" y="180"/>
      <point x="468" y="139" type="curve"/>
      <point x="444" y="149"/>
      <point x="432" y="153"/>
      <point x="392" y="164" type="curve" smooth="yes"/>
      <point x="324" y="182"/>
      <point x="279" y="195"/>
      <point x="251" y="205" type="curve" smooth="yes"/>
      <point x="199" y="223"/>
      <point x="178" y="245"/>
      <point x="178" y="284" type="curve" smooth="yes"/>
      <point x="178" y="320"/>
      <point x="205" y="357"/>
    </contour>
  </outline>
</glyph>
<glyph name="dieresis" format="1">
  <advance width="420"/>
  <unicode hex="00A8"/>
  <outline>
    <contour>
      <point x="256" y="672" type="curve" smooth="yes"/>
      <point x="219" y="672"/>
      <point x="185" y="640"/>
      <point x="185" y="604" type="curve" smooth="yes"/>
      <point x="185" y="573"/>
      <point x="204" y="552"/>
      <point x="233" y="552" type="curve" smooth="yes"/>
      <point x="271" y="552"/>
      <point x="305" y="585"/>
      <point x="305" y="622" type="curve" smooth="yes"/>
      <point x="305" y="651"/>
      <point x="284" y="672"/>
    </contour>
    <contour>
      <point x="418" y="672" type="curve" smooth="yes"/>
      <point x="381" y="672"/>
      <point x="347" y="640"/>
      <point x="347" y="604" type="curve" smooth="yes"/>
      <point x="347" y="573"/>
      <point x="366" y="552"/>
      <point x="395" y="552" type="curve" smooth="yes"/>
      <point x="433" y="552"/>
      <point x="467" y="585"/>
      <point x="467" y="622" type="curve" smooth="yes"/>
      <point x="467" y="651"/>
      <point x="446" y="672"/>
    </contour>
  </outline>
</glyph>
<glyph name="copyright" format="1">
  <advance width="740"/>
  <unicode hex="00A9"/>
  <outline>
    <contour>
      <point x="571" y="529" type="line"/>
      <point x="549" y="529" type="line"/>
      <point x="538" y="508" type="line"/>
      <point x="508" y="530"/>
      <point x="472" y="541"/>
      <point x="426" y="541" type="curve" smooth="yes"/>
      <point x="381" y="541"/>
      <point x="329" y="517"/>
      <point x="294" y="480" type="curve" smooth="yes"/>
      <point x="261" y="444"/>
      <point x="242" y="395"/>
      <point x="242" y="342" type="curve" smooth="yes"/>
      <point x="242" y="231"/>
      <point x="326" y="147"/>
      <point x="439" y="147" type="curve" smooth="yes"/>
      <point x="512" y="147"/>
      <point x="568" y="179"/>
      <point x="611" y="246" type="curve"/>
      <point x="582" y="262" type="line"/>
      <point x="547" y="210"/>
      <point x="499" y="180"/>
      <point x="447" y="180" type="curve" smooth="yes"/>
      <point x="414" y="180"/>
      <point x="376" y="198"/>
      <point x="352" y="223" type="curve" smooth="yes"/>
      <point x="327" y="251"/>
      <point x="313" y="295"/>
      <point x="313" y="343" type="curve" smooth="yes"/>
      <point x="313" y="438"/>
      <point x="366" y="508"/>
      <point x="437" y="508" type="curve" smooth="yes"/>
      <point x="476" y="508"/>
      <point x="516" y="486"/>
      <point x="541" y="449" type="curve" smooth="yes"/>
      <point x="552" y="434"/>
      <point x="558" y="423"/>
      <point x="576" y="391" type="curve"/>
      <point x="599" y="391" type="line"/>
    </contour>
    <contour>
      <point x="438" y="700" type="curve" smooth="yes"/>
      <point x="347" y="700"/>
      <point x="257" y="663"/>
      <point x="187" y="597" type="curve" smooth="yes"/>
      <point x="120" y="535"/>
      <point x="84" y="448"/>
      <point x="84" y="352" type="curve" smooth="yes"/>
      <point x="84" y="157"/>
      <point x="240" y="0"/>
      <point x="434" y="0" type="curve" smooth="yes"/>
      <point x="628" y="0"/>
      <point x="784" y="157"/>
      <point x="784" y="353" type="curve" smooth="yes"/>
      <point x="784" y="448"/>
      <point x="748" y="533"/>
      <point x="681" y="597" type="curve" smooth="yes"/>
      <point x="616" y="660"/>
      <point x="521" y="700"/>
    </contour>
    <contour>
      <point x="437" y="658" type="curve" smooth="yes"/>
      <point x="510" y="658"/>
      <point x="592" y="623"/>
      <point x="651" y="568" type="curve" smooth="yes"/>
      <point x="709" y="513"/>
      <point x="741" y="437"/>
      <point x="741" y="353" type="curve" smooth="yes"/>
      <point x="741" y="180"/>
      <point x="604" y="42"/>
      <point x="434" y="42" type="curve" smooth="yes"/>
      <point x="264" y="42"/>
      <point x="127" y="180"/>
      <point x="127" y="352" type="curve" smooth="yes"/>
      <point x="127" y="437"/>
      <point x="158" y="511"/>
      <point x="217" y="568" type="curve" smooth="yes"/>
      <point x="277" y="625"/>
      <point x="357" y="658"/>
    </contour>
  </outline>
</glyph>
<glyph name="ordfeminine" format="1">
  <advance width="440"/>
  <unicode hex="00AA"/>
  <outline>
    <contour>
      <point x="470" y="689" type="line"/>
      <point x="408" y="689" type="line"/>
      <point x="402" y="658" type="line"/>
      <point x="379" y="682"/>
      <point x="349" y="694"/>
      <point x="313" y="694" type="curve" smooth="yes"/>
      <point x="222" y="694"/>
      <point x="140" y="604"/>
      <point x="140" y="504" type="curve" smooth="yes"/>
      <point x="140" y="432"/>
      <point x="181" y="388"/>
      <point x="247" y="388" type="curve" smooth="yes"/>
      <point x="291" y="388"/>
      <point x="329" y="411"/>
      <point x="366" y="462" type="curve"/>
      <point x="366" y="453" type="line" smooth="yes"/>
      <point x="366" y="416"/>
      <point x="390" y="389"/>
      <point x="424" y="389" type="curve" smooth="yes"/>
      <point x="456" y="389"/>
      <point x="497" y="409"/>
      <point x="513" y="433" type="curve"/>
      <point x="499" y="446" type="line"/>
      <point x="484" y="429"/>
      <point x="469" y="421"/>
      <point x="455" y="421" type="curve" smooth="yes"/>
      <point x="440" y="421"/>
      <point x="428" y="436"/>
      <point x="428" y="456" type="curve" smooth="yes"/>
      <point x="428" y="463"/>
      <point x="428" y="464"/>
      <point x="433" y="489" type="curve" smooth="yes"/>
    </contour>
    <contour>
      <point x="397" y="633" type="curve"/>
      <point x="381" y="550"/>
      <point x="370" y="514"/>
      <point x="348" y="480" type="curve" smooth="yes"/>
      <point x="325" y="446"/>
      <point x="286" y="421"/>
      <point x="254" y="421" type="curve" smooth="yes"/>
      <point x="223" y="421"/>
      <point x="202" y="447"/>
      <point x="202" y="485" type="curve" smooth="yes"/>
      <point x="202" y="577"/>
      <point x="260" y="661"/>
      <point x="325" y="661" type="curve" smooth="yes"/>
      <point x="357" y="661"/>
      <point x="375" y="654"/>
    </contour>
    <contour>
      <point x="101" y="341" type="line"/>
      <point x="94" y="304" type="line"/>
      <point x="483" y="304" type="line"/>
      <point x="490" y="341" type="line"/>
    </contour>
  </outline>
</glyph>
<glyph name="guillemotleft" format="1">
  <advance width="300"/>
  <unicode hex="00AB"/>
  <outline>
    <contour>
      <point x="180" y="268" type="line"/>
      <point x="238" y="105" type="line"/>
      <point x="262" y="113" type="line"/>
      <point x="241" y="268" type="line"/>
      <point x="313" y="391" type="line"/>
      <point x="293" y="406" type="line"/>
    </contour>
    <contour>
      <point x="70" y="268" type="line"/>
      <point x="135" y="99" type="line"/>
      <point x="155" y="108" type="line"/>
      <point x="132" y="268" type="line"/>
      <point x="206" y="390" type="line"/>
      <point x="182" y="404" type="line"/>
    </contour>
  </outline>
</glyph>
<glyph name="logicalnot" format="1">
  <advance width="600"/>
  <unicode hex="00AC"/>
  <outline>
    <contour>
      <point x="91" y="369" type="line"/>
      <point x="91" y="290" type="line"/>
      <point x="517" y="290" type="line"/>
      <point x="517" y="80" type="line"/>
      <point x="595" y="80" type="line"/>
      <point x="595" y="369" type="line"/>
    </contour>
  </outline>
</glyph>
<glyph name="registered" format="1">
  <advance width="740"/>
  <unicode hex="00AE"/>
  <outline>
    <contour>
      <point x="510" y="361" type="line"/>
      <point x="572" y="371"/>
      <point x="610" y="409"/>
      <point x="610" y="462" type="curve" smooth="yes"/>
      <point x="610" y="522"/>
      <point x="561" y="558"/>
      <point x="480" y="558" type="curve" smooth="yes"/>
      <point x="254" y="558" type="line"/>
      <point x="254" y="536" type="line"/>
      <point x="270" y="534" type="line" smooth="yes"/>
      <point x="297" y="530"/>
      <point x="303" y="520"/>
      <point x="303" y="477" type="curve" smooth="yes"/>
      <point x="303" y="260" type="line" smooth="yes"/>
      <point x="303" y="217"/>
      <point x="297" y="206"/>
      <point x="270" y="203" type="curve" smooth="yes"/>
      <point x="254" y="201" type="line"/>
      <point x="254" y="178" type="line"/>
      <point x="419" y="178" type="line"/>
      <point x="419" y="201" type="line"/>
      <point x="397" y="203" type="line" smooth="yes"/>
      <point x="371" y="205"/>
      <point x="364" y="218"/>
      <point x="364" y="260" type="curve" smooth="yes"/>
      <point x="364" y="354" type="line"/>
      <point x="438" y="354" type="line"/>
      <point x="562" y="178" type="line"/>
      <point x="658" y="178" type="line"/>
      <point x="658" y="200" type="line"/>
      <point x="629" y="206"/>
      <point x="616" y="213"/>
      <point x="599" y="235" type="curve" smooth="yes"/>
    </contour>
    <contour>
      <point x="364" y="384" type="line"/>
      <point x="364" y="500" type="line" smooth="yes"/>
      <point x="364" y="521"/>
      <point x="385" y="529"/>
      <point x="441" y="529" type="curve" smooth="yes"/>
      <point x="511" y="529"/>
      <point x="545" y="506"/>
      <point x="545" y="458" type="curve" smooth="yes"/>
      <point x="545" y="410"/>
      <point x="512" y="384"/>
      <point x="453" y="384" type="curve" smooth="yes"/>
    </contour>
    <contour>
      <point x="438" y="700" type="curve" smooth="yes"/>
      <point x="347" y="700"/>
      <point x="257" y="663"/>
      <point x="187" y="597" type="curve" smooth="yes"/>
      <point x="120" y="535"/>
      <point x="84" y="448"/>
      <point x="84" y="352" type="curve" smooth="yes"/>
      <point x="84" y="157"/>
      <point x="240" y="0"/>
      <point x="434" y="0" type="curve" smooth="yes"/>
      <point x="628" y="0"/>
      <point x="784" y="157"/>
      <point x="784" y="353" type="curve" smooth="yes"/>
      <point x="784" y="448"/>
      <point x="748" y="533"/>
      <point x="681" y="597" type="curve" smooth="yes"/>
      <point x="616" y="660"/>
      <point x="521" y="700"/>
    </contour>
    <contour>
      <point x="437" y="658" type="curve" smooth="yes"/>
      <point x="510" y="658"/>
      <point x="592" y="623"/>
      <point x="651" y="568" type="curve" smooth="yes"/>
      <point x="709" y="513"/>
      <point x="741" y="437"/>
      <point x="741" y="353" type="curve" smooth="yes"/>
      <point x="741" y="180"/>
      <point x="604" y="42"/>
      <point x="434" y="42" type="curve" smooth="yes"/>
      <point x="264" y="42"/>
      <point x="127" y="180"/>
      <point x="127" y="352" type="curve" smooth="yes"/>
      <point x="127" y="437"/>
      <point x="158" y="511"/>
      <point x="217" y="568" type="curve" smooth="yes"/>
      <point x="277" y="625"/>
      <point x="357" y="658"/>
    </contour>
  </outline>
</glyph>
<glyph name="macron" format="1">
  <advance width="440"/>
  <unicode hex="00AF"/>
  <outline>
    <contour>
      <point x="197" y="638" type="line"/>
      <point x="178" y="581" type="line"/>
      <point x="465" y="581" type="line"/>
      <point x="484" y="638" type="line"/>
    </contour>
  </outline>
</glyph>
<glyph name="degree" format="1">
  <advance width="400"/>
  <unicode hex="00B0"/>
  <outline>
    <contour>
      <point x="273" y="686" type="curve" smooth="yes"/>
      <point x="188" y="686"/>
      <point x="120" y="619"/>
      <point x="120" y="534" type="curve" smooth="yes"/>
      <point x="120" y="448"/>
      <point x="186" y="380"/>
      <point x="270" y="380" type="curve" smooth="yes"/>
      <point x="354" y="380"/>
      <point x="420" y="447"/>
      <point x="420" y="533" type="curve" smooth="yes"/>
      <point x="420" y="619"/>
      <point x="356" y="686"/>
    </contour>
    <contour>
      <point x="272" y="629" type="curve" smooth="yes"/>
      <point x="322" y="629"/>
      <point x="363" y="586"/>
      <point x="363" y="533" type="curve" smooth="yes"/>
      <point x="363" y="479"/>
      <point x="322" y="437"/>
      <point x="270" y="437" type="curve" smooth="yes"/>
      <point x="219" y="437"/>
      <point x="176" y="480"/>
      <point x="176" y="533" type="curve" smooth="yes"/>
      <point x="176" y="586"/>
      <point x="218" y="629"/>
    </contour>
  </outline>
</glyph>
<glyph name="plusminus" format="1">
  <advance width="600"/>
  <unicode hex="00B1"/>
  <outline>
    <contour>
      <point x="595" y="390" type="line"/>
      <point x="382" y="390" type="line"/>
      <point x="382" y="594" type="line"/>
      <point x="304" y="594" type="line"/>
      <point x="304" y="390" type="line"/>
      <point x="91" y="390" type="line"/>
      <point x="91" y="310" type="line"/>
      <point x="304" y="310" type="line"/>
      <point x="304" y="124" type="line"/>
      <point x="382" y="124" type="line"/>
      <point x="382" y="310" type="line"/>
      <point x="595" y="310" type="line"/>
    </contour>
    <contour>
      <point x="595" y="80" type="line"/>
      <point x="91" y="80" type="line"/>
      <point x="91" y="0" type="line"/>
      <point x="595" y="0" type="line"/>
    </contour>
  </outline>
</glyph>
<glyph name="acute" format="1">
  <advance width="320"/>
  <unicode hex="00B4"/>
  <outline>
    <contour>
      <point x="190" y="538" type="line"/>
      <point x="303" y="583" type="line" smooth="yes"/>
      <point x="352" y="602"/>
      <point x="373" y="621"/>
      <point x="373" y="646" type="curve" smooth="yes"/>
      <point x="373" y="669"/>
      <point x="353" y="689"/>
      <point x="331" y="689" type="curve" smooth="yes"/>
      <point x="310" y="689"/>
      <point x="288" y="674"/>
      <point x="247" y="635" type="curve" smooth="yes"/>
      <point x="178" y="567" type="line"/>
    </contour>
  </outline>
</glyph>
<glyph name="paragraph" format="1">
  <advance width="620"/>
  <unicode hex="00B6"/>
  <outline>
    <contour>
      <point x="602" y="0" type="line"/>
      <point x="608" y="32" type="line"/>
      <point x="590" y="34" type="line" smooth="yes"/>
      <point x="546" y="39"/>
      <point x="530" y="53"/>
      <point x="530" y="86" type="curve" smooth="yes"/>
      <point x="530" y="100"/>
      <point x="530" y="104"/>
      <point x="536" y="137" type="curve" smooth="yes"/>
      <point x="609" y="542" type="line" smooth="yes"/>
      <point x="623" y="626"/>
      <point x="630" y="634"/>
      <point x="700" y="643" type="curve" smooth="yes"/>
      <point x="712" y="645" type="line"/>
      <point x="718" y="675" type="line"/>
      <point x="420" y="675" type="line" smooth="yes"/>
      <point x="317" y="675"/>
      <point x="281" y="669"/>
      <point x="230" y="645" type="curve" smooth="yes"/>
      <point x="161" y="611"/>
      <point x="112" y="532"/>
      <point x="112" y="455" type="curve" smooth="yes"/>
      <point x="112" y="391"/>
      <point x="147" y="335"/>
      <point x="200" y="315" type="curve" smooth="yes"/>
      <point x="233" y="303"/>
      <point x="265" y="298"/>
      <point x="319" y="298" type="curve"/>
      <point x="290" y="137" type="line" smooth="yes"/>
      <point x="272" y="51"/>
      <point x="262" y="40"/>
      <point x="187" y="34" type="curve" smooth="yes"/>
      <point x="169" y="32" type="line"/>
      <point x="163" y="0" type="line"/>
    </contour>
    <contour>
      <point x="556" y="635" type="line"/>
      <point x="448" y="46" type="line"/>
      <point x="345" y="46" type="line"/>
      <point x="452" y="635" type="line"/>
    </contour>
  </outline>
</glyph>
<glyph name="periodcentered" format="1">
  <advance width="300"/>
  <unicode hex="00B7"/>
  <outline>
    <contour>
      <point x="216" y="364" type="curve" smooth="yes"/>
      <point x="174" y="364"/>
      <point x="137" y="326"/>
      <point x="137" y="283" type="curve" smooth="yes"/>
      <point x="137" y="251"/>
      <point x="159" y="229"/>
      <point x="191" y="229" type="curve" smooth="yes"/>
      <point x="233" y="229"/>
      <point x="272" y="266"/>
      <point x="272" y="306" type="curve" smooth="yes"/>
      <point x="272" y="340"/>
      <point x="249" y="364"/>
    </contour>
  </outline>
</glyph>
<glyph name="cedilla" format="1">
  <advance width="320"/>
  <unicode hex="00B8"/>
  <outline>
    <contour>
      <point x="157" y="0" type="line"/>
      <point x="120" y="0" type="line"/>
      <point x="91" y="-74" type="line"/>
      <point x="106" y="-70"/>
      <point x="119" y="-68"/>
      <point x="132" y="-68" type="curve" smooth="yes"/>
      <point x="165" y="-68"/>
      <point x="188" y="-84"/>
      <point x="188" y="-107" type="curve" smooth="yes"/>
      <point x="188" y="-132"/>
      <point x="161" y="-155"/>
      <point x="131" y="-155" type="curve" smooth="yes"/>
      <point x="111" y="-155"/>
      <point x="98" y="-145"/>
      <point x="95" y="-128" type="curve"/>
      <point x="93" y="-111"/>
      <point x="87" y="-106"/>
      <point x="70" y="-106" type="curve" smooth="yes"/>
      <point x="56" y="-106"/>
      <point x="45" y="-119"/>
      <point x="45" y="-134" type="curve" smooth="yes"/>
      <point x="45" y="-162"/>
      <point x="80" y="-182"/>
      <point x="128" y="-182" type="curve" smooth="yes"/>
      <point x="190" y="-182"/>
      <point x="240" y="-146"/>
      <point x="240" y="-101" type="curve" smooth="yes"/>
      <point x="240" y="-66"/>
      <point x="209" y="-43"/>
      <point x="162" y="-43" type="curve" smooth="yes"/>
      <point x="151" y="-43" type="line"/>
      <point x="143" y="-43" type="line"/>
    </contour>
  </outline>
</glyph>
<glyph name="ordmasculine" format="1">
  <advance width="400"/>
  <unicode hex="00BA"/>
  <outline>
    <contour>
      <point x="330" y="694" type="curve" smooth="yes"/>
      <point x="235" y="694"/>
      <point x="157" y="609"/>
      <point x="157" y="506" type="curve" smooth="yes"/>
      <point x="157" y="436"/>
      <point x="205" y="388"/>
      <point x="275" y="388" type="curve" smooth="yes"/>
      <point x="371" y="388"/>
      <point x="449" y="471"/>
      <point x="449" y="572" type="curve" smooth="yes"/>
      <point x="449" y="646"/>
      <point x="402" y="694"/>
    </contour>
    <contour>
      <point x="327" y="661" type="curve" smooth="yes"/>
      <point x="365" y="661"/>
      <point x="387" y="634"/>
      <point x="387" y="587" type="curve" smooth="yes"/>
      <point x="387" y="553"/>
      <point x="375" y="504"/>
      <point x="359" y="474" type="curve" smooth="yes"/>
      <point x="340" y="440"/>
      <point x="312" y="421"/>
      <point x="280" y="421" type="curve" smooth="yes"/>
      <point x="241" y="421"/>
      <point x="219" y="447"/>
      <point x="219" y="492" type="curve" smooth="yes"/>
      <point x="219" y="535"/>
      <point x="235" y="591"/>
      <point x="257" y="621" type="curve" smooth="yes"/>
      <point x="274" y="646"/>
      <point x="300" y="661"/>
    </contour>
    <contour>
      <point x="101" y="341" type="line"/>
      <point x="94" y="304" type="line"/>
      <point x="448" y="304" type="line"/>
      <point x="455" y="341" type="line"/>
    </contour>
  </outline>
</glyph>
<glyph name="guillemotright" format="1">
  <advance width="300"/>
  <unicode hex="00BB"/>
  <outline>
    <contour>
      <point x="131" y="403" type="line"/>
      <point x="108" y="389" type="line"/>
      <point x="131" y="265" type="line"/>
      <point x="60" y="105" type="line"/>
      <point x="86" y="97" type="line"/>
      <point x="193" y="265" type="line"/>
    </contour>
    <contour>
      <point x="241" y="403" type="line"/>
      <point x="218" y="389" type="line"/>
      <point x="241" y="265" type="line"/>
      <point x="170" y="105" type="line"/>
      <point x="196" y="97" type="line"/>
      <point x="303" y="265" type="line"/>
    </contour>
  </outline>
</glyph>
<glyph name="onequarter" format="1">
  <advance width="930"/>
  <unicode hex="00BC"/>
  <outline>
    <contour>
      <point x="310" y="681" type="line"/>
      <point x="279" y="681" type="line"/>
      <point x="235" y="669"/>
      <point x="228" y="668"/>
      <point x="160" y="658" type="curve"/>
      <point x="155" y="631" type="line"/>
      <point x="218" y="631"/>
      <point x="226" y="628"/>
      <point x="226" y="605" type="curve" smooth="yes"/>
      <point x="226" y="602"/>
      <point x="226" y="598"/>
      <point x="225" y="593" type="curve" smooth="yes"/>
      <point x="180" y="349" type="line"/>
      <point x="175" y="310"/>
      <point x="165" y="305"/>
      <point x="96" y="300" type="curve"/>
      <point x="91" y="273" type="line"/>
      <point x="311" y="273" type="line"/>
      <point x="316" y="300" type="line"/>
      <point x="295" y="302" type="line" smooth="yes"/>
      <point x="259" y="304"/>
      <point x="247" y="311"/>
      <point x="247" y="328" type="curve" smooth="yes"/>
      <point x="247" y="332"/>
      <point x="249" y="346"/>
      <point x="250" y="352" type="curve" smooth="yes"/>
    </contour>
    <contour>
      <point x="765" y="681" type="line"/>
      <point x="709" y="681" type="line"/>
      <point x="214" y="0" type="line"/>
      <point x="270" y="0" type="line"/>
    </contour>
    <contour>
      <point x="870" y="408" type="line"/>
      <point x="804" y="408" type="line"/>
      <point x="549" y="137" type="line"/>
      <point x="557" y="109" type="line"/>
      <point x="747" y="109" type="line"/>
      <point x="742" y="81" type="line"/>
      <point x="738" y="48"/>
      <point x="721" y="30"/>
      <point x="693" y="29" type="curve"/>
      <point x="673" y="27" type="line"/>
      <point x="668" y="0" type="line"/>
      <point x="859" y="0" type="line"/>
      <point x="865" y="27" type="line"/>
      <point x="839" y="29" type="line" smooth="yes"/>
      <point x="822" y="30"/>
      <point x="809" y="45"/>
      <point x="809" y="64" type="curve" smooth="yes"/>
      <point x="809" y="70"/>
      <point x="809" y="71"/>
      <point x="810" y="75" type="curve"/>
      <point x="816" y="109" type="line"/>
      <point x="894" y="109" type="line"/>
      <point x="913" y="149" type="line"/>
      <point x="824" y="149" type="line"/>
    </contour>
    <contour>
      <point x="755" y="149" type="line"/>
      <point x="610" y="149" type="line"/>
      <point x="789" y="339" type="line"/>
    </contour>
  </outline>
</glyph>
<glyph name="onehalf" format="1">
  <advance width="930"/>
  <unicode hex="00BD"/>
  <outline>
    <contour>
      <point x="310" y="681" type="line"/>
      <point x="279" y="681" type="line"/>
      <point x="235" y="669"/>
      <point x="228" y="668"/>
      <point x="160" y="658" type="curve"/>
      <point x="155" y="631" type="line"/>
      <point x="218" y="631"/>
      <point x="226" y="628"/>
      <point x="226" y="605" type="curve" smooth="yes"/>
      <point x="226" y="602"/>
      <point x="226" y="598"/>
      <point x="225" y="593" type="curve" smooth="yes"/>
      <point x="180" y="349" type="line"/>
      <point x="175" y="310"/>
      <point x="165" y="305"/>
      <point x="96" y="300" type="curve"/>
      <point x="91" y="273" type="line"/>
      <point x="311" y="273" type="line"/>
      <point x="316" y="300" type="line"/>
      <point x="295" y="302" type="line" smooth="yes"/>
      <point x="259" y="304"/>
      <point x="247" y="311"/>
      <point x="247" y="328" type="curve" smooth="yes"/>
      <point x="247" y="332"/>
      <point x="249" y="346"/>
      <point x="250" y="352" type="curve" smooth="yes"/>
    </contour>
    <contour>
      <point x="755" y="681" type="line"/>
      <point x="699" y="681" type="line"/>
      <point x="204" y="0" type="line"/>
      <point x="260" y="0" type="line"/>
    </contour>
    <contour>
      <point x="913" y="117" type="line"/>
      <point x="883" y="128" type="line"/>
      <point x="852" y="71"/>
      <point x="833" y="57"/>
      <point x="787" y="57" type="curve" smooth="yes"/>
      <point x="656" y="57" type="line"/>
      <point x="836" y="150"/>
      <point x="925" y="237"/>
      <point x="925" y="320" type="curve" smooth="yes"/>
      <point x="925" y="376"/>
      <point x="867" y="416"/>
      <point x="784" y="416" type="curve" smooth="yes"/>
      <point x="691" y="416"/>
      <point x="606" y="356"/>
      <point x="606" y="290" type="curve" smooth="yes"/>
      <point x="606" y="269"/>
      <point x="622" y="252"/>
      <point x="642" y="252" type="curve" smooth="yes"/>
      <point x="666" y="252"/>
      <point x="690" y="273"/>
      <point x="690" y="293" type="curve" smooth="yes"/>
      <point x="690" y="298"/>
      <point x="688" y="304"/>
      <point x="685" y="310" type="curve" smooth="yes"/>
      <point x="680" y="319"/>
      <point x="679" y="321"/>
      <point x="679" y="327" type="curve" smooth="yes"/>
      <point x="679" y="354"/>
      <point x="723" y="379"/>
      <point x="769" y="379" type="curve" smooth="yes"/>
      <point x="815" y="379"/>
      <point x="843" y="357"/>
      <point x="843" y="319" type="curve" smooth="yes"/>
      <point x="843" y="277"/>
      <point x="815" y="231"/>
      <point x="754" y="174" type="curve" smooth="yes"/>
      <point x="698" y="121"/>
      <point x="645" y="87"/>
      <point x="563" y="49" type="curve"/>
      <point x="554" y="0" type="line"/>
      <point x="861" y="0" type="line"/>
    </contour>
  </outline>
</glyph>
<glyph name="threequarters" format="1">
  <advance width="930"/>
  <unicode hex="00BE"/>
  <outline>
    <contour>
      <point x="237" y="476" type="line"/>
      <point x="256" y="479"/>
      <point x="270" y="480"/>
      <point x="285" y="480" type="curve" smooth="yes"/>
      <point x="346" y="480"/>
      <point x="374" y="459"/>
      <point x="374" y="411" type="curve" smooth="yes"/>
      <point x="374" y="341"/>
      <point x="326" y="298"/>
      <point x="248" y="298" type="curve" smooth="yes"/>
      <point x="203" y="298"/>
      <point x="172" y="314"/>
      <point x="172" y="336" type="curve" smooth="yes"/>
      <point x="172" y="340"/>
      <point x="173" y="343"/>
      <point x="176" y="348" type="curve" smooth="yes"/>
      <point x="183" y="360"/>
      <point x="185" y="364"/>
      <point x="185" y="372" type="curve" smooth="yes"/>
      <point x="185" y="389"/>
      <point x="170" y="403"/>
      <point x="151" y="403" type="curve" smooth="yes"/>
      <point x="124" y="403"/>
      <point x="99" y="376"/>
      <point x="99" y="347" type="curve" smooth="yes"/>
      <point x="99" y="299"/>
      <point x="157" y="265"/>
      <point x="239" y="265" type="curve" smooth="yes"/>
      <point x="360" y="265"/>
      <point x="451" y="328"/>
      <point x="451" y="411" type="curve" smooth="yes"/>
      <point x="451" y="457"/>
      <point x="422" y="488"/>
      <point x="368" y="499" type="curve"/>
      <point x="428" y="515"/>
      <point x="468" y="555"/>
      <point x="468" y="599" type="curve" smooth="yes"/>
      <point x="468" y="653"/>
      <point x="412" y="689"/>
      <point x="326" y="689" type="curve" smooth="yes"/>
      <point x="238" y="689"/>
      <point x="156" y="638"/>
      <point x="156" y="582" type="curve" smooth="yes"/>
      <point x="156" y="564"/>
      <point x="171" y="550"/>
      <point x="192" y="550" type="curve" smooth="yes"/>
      <point x="215" y="550"/>
      <point x="238" y="570"/>
      <point x="238" y="589" type="curve" smooth="yes"/>
      <point x="238" y="591"/>
      <point x="237" y="596"/>
      <point x="236" y="601" type="curve" smooth="yes"/>
      <point x="234" y="609"/>
      <point x="233" y="612"/>
      <point x="233" y="615" type="curve" smooth="yes"/>
      <point x="233" y="637"/>
      <point x="272" y="656"/>
      <point x="318" y="656" type="curve" smooth="yes"/>
      <point x="365" y="656"/>
      <point x="391" y="636"/>
      <point x="391" y="600" type="curve" smooth="yes"/>
      <point x="391" y="546"/>
      <point x="343" y="512"/>
      <point x="267" y="512" type="curve" smooth="yes"/>
      <point x="261" y="512"/>
      <point x="255" y="512"/>
      <point x="244" y="513" type="curve"/>
    </contour>
    <contour>
      <point x="827" y="681" type="line"/>
      <point x="771" y="681" type="line"/>
      <point x="276" y="0" type="line"/>
      <point x="332" y="0" type="line"/>
    </contour>
    <contour>
      <point x="870" y="408" type="line"/>
      <point x="804" y="408" type="line"/>
      <point x="549" y="137" type="line"/>
      <point x="557" y="109" type="line"/>
      <point x="747" y="109" type="line"/>
      <point x="742" y="81" type="line"/>
      <point x="738" y="48"/>
      <point x="721" y="30"/>
      <point x="693" y="29" type="curve"/>
      <point x="673" y="27" type="line"/>
      <point x="668" y="0" type="line"/>
      <point x="859" y="0" type="line"/>
      <point x="865" y="27" type="line"/>
      <point x="839" y="29" type="line" smooth="yes"/>
      <point x="822" y="30"/>
      <point x="809" y="45"/>
      <point x="809" y="64" type="curve" smooth="yes"/>
      <point x="809" y="70"/>
      <point x="809" y="71"/>
      <point x="810" y="75" type="curve"/>
      <point x="816" y="109" type="line"/>
      <point x="894" y="109" type="line"/>
      <point x="913" y="149" type="line"/>
      <point x="824" y="149" type="line"/>
    </contour>
    <contour>
      <point x="755" y="149" type="line"/>
      <point x="610" y="149" type="line"/>
      <point x="789" y="339" type="line"/>
    </contour>
  </outline>
</glyph>
<glyph name="questiondown" format="1">
  <advance width="540"/>
  <unicode hex="00BF"/>
  <outline>
    <contour>
      <point x="337" y="304" type="line"/>
      <point x="325" y="213"/>
      <point x="291" y="175"/>
      <point x="192" y="147" type="curve" smooth="yes"/>
      <point x="138" y="130"/>
      <point x="109" y="113"/>
      <point x="78" y="82" type="curve" smooth="yes"/>
      <point x="40" y="42"/>
      <point x="18" y="-7"/>
      <point x="18" y="-56" type="curve" smooth="yes"/>
      <point x="18" y="-149"/>
      <point x="111" y="-212"/>
      <point x="249" y="-212" type="curve" smooth="yes"/>
      <point x="384" y="-212"/>
      <point x="508" y="-130"/>
      <point x="508" y="-40" type="curve" smooth="yes"/>
      <point x="508" y="-11"/>
      <point x="487" y="10"/>
      <point x="455" y="10" type="curve" smooth="yes"/>
      <point x="424" y="10"/>
      <point x="392" y="-17"/>
      <point x="392" y="-45" type="curve" smooth="yes"/>
      <point x="392" y="-48"/>
      <point x="393" y="-51"/>
      <point x="394" y="-54" type="curve"/>
      <point x="404" y="-75"/>
      <point x="406" y="-82"/>
      <point x="406" y="-90" type="curve" smooth="yes"/>
      <point x="406" y="-137"/>
      <point x="337" y="-175"/>
      <point x="250" y="-175" type="curve" smooth="yes"/>
      <point x="169" y="-175"/>
      <point x="120" y="-136"/>
      <point x="120" y="-71" type="curve" smooth="yes"/>
      <point x="120" y="-34"/>
      <point x="132" y="3"/>
      <point x="153" y="33" type="curve" smooth="yes"/>
      <point x="173" y="62"/>
      <point x="186" y="72"/>
      <point x="240" y="105" type="curve" smooth="yes"/>
      <point x="355" y="168"/>
      <point x="367" y="186"/>
      <point x="382" y="304" type="curve"/>
    </contour>
    <contour>
      <point x="390" y="496" type="curve" smooth="yes"/>
      <point x="348" y="496"/>
      <point x="309" y="459"/>
      <point x="309" y="418" type="curve" smooth="yes"/>
      <point x="309" y="384"/>
      <point x="332" y="360"/>
      <point x="366" y="360" type="curve" smooth="yes"/>
      <point x="408" y="360"/>
      <point x="445" y="399"/>
      <point x="445" y="442" type="curve" smooth="yes"/>
      <point x="445" y="474"/>
      <point x="423" y="496"/>
    </contour>
  </outline>
</glyph>
<glyph name="Agrave" format="1">
  <advance width="700"/>
  <unicode hex="00C0"/>
  <outline>
    <contour>
      <point x="518" y="681" type="line"/>
      <point x="422" y="681" type="line"/>
      <point x="137" y="175" type="line" smooth="yes"/>
      <point x="73" y="64"/>
      <point x="55" y="46"/>
      <point x="-7" y="31" type="curve"/>
      <point x="-20" y="29" type="line"/>
      <point x="-25" y="0" type="line"/>
      <point x="237" y="0" type="line"/>
      <point x="242" y="29" type="line"/>
      <point x="230" y="31" type="line" smooth="yes"/>
      <point x="187" y="38"/>
      <point x="167" y="53"/>
      <point x="167" y="80" type="curve" smooth="yes"/>
      <point x="167" y="100"/>
      <point x="175" y="123"/>
      <point x="193" y="157" type="curve" smooth="yes"/>
      <point x="246" y="253" type="line"/>
      <point x="502" y="253" type="line"/>
      <point x="524" y="136" type="line" smooth="yes"/>
      <point x="529" y="114"/>
      <point x="531" y="98"/>
      <point x="531" y="89" type="curve" smooth="yes"/>
      <point x="531" y="57"/>
      <point x="510" y="39"/>
      <point x="461" y="31" type="curve" smooth="yes"/>
      <point x="449" y="29" type="line"/>
      <point x="444" y="0" type="line"/>
      <point x="715" y="0" type="line"/>
      <point x="720" y="29" type="line"/>
      <point x="708" y="31" type="line"/>
      <point x="654" y="44"/>
      <point x="645" y="57"/>
      <point x="624" y="156" type="curve" smooth="yes"/>
    </contour>
    <contour>
      <point x="497" y="293" type="line"/>
      <point x="269" y="293" type="line"/>
      <point x="434" y="598" type="line"/>
    </contour>
    <contour>
      <point x="522" y="725" type="line"/>
      <point x="535" y="754" type="line"/>
      <point x="466" y="822" type="line" smooth="yes"/>
      <point x="427" y="861"/>
      <point x="404" y="876"/>
      <point x="384" y="876" type="curve" smooth="yes"/>
      <point x="360" y="876"/>
      <point x="340" y="857"/>
      <point x="340" y="834" type="curve" smooth="yes"/>
      <point x="340" y="807"/>
      <point x="359" y="790"/>
      <point x="410" y="770" type="curve" smooth="yes"/>
    </contour>
  </outline>
</glyph>
<glyph name="Aacute" format="1">
  <advance width="700"/>
  <unicode hex="00C1"/>
  <outline>
    <contour>
      <point x="518" y="681" type="line"/>
      <point x="422" y="681" type="line"/>
      <point x="137" y="175" type="line" smooth="yes"/>
      <point x="73" y="64"/>
      <point x="55" y="46"/>
      <point x="-7" y="31" type="curve"/>
      <point x="-20" y="29" type="line"/>
      <point x="-25" y="0" type="line"/>
      <point x="237" y="0" type="line"/>
      <point x="242" y="29" type="line"/>
      <point x="230" y="31" type="line" smooth="yes"/>
      <point x="187" y="38"/>
      <point x="167" y="53"/>
      <point x="167" y="80" type="curve" smooth="yes"/>
      <point x="167" y="100"/>
      <point x="175" y="123"/>
      <point x="193" y="157" type="curve" smooth="yes"/>
      <point x="246" y="253" type="line"/>
      <point x="502" y="253" type="line"/>
      <point x="524" y="136" type="line" smooth="yes"/>
      <point x="529" y="114"/>
      <point x="531" y="98"/>
      <point x="531" y="89" type="curve" smooth="yes"/>
      <point x="531" y="57"/>
      <point x="510" y="39"/>
      <point x="461" y="31" type="curve" smooth="yes"/>
      <point x="449" y="29" type="line"/>
      <point x="444" y="0" type="line"/>
      <point x="715" y="0" type="line"/>
      <point x="720" y="29" type="line"/>
      <point x="708" y="31" type="line"/>
      <point x="654" y="44"/>
      <point x="645" y="57"/>
      <point x="624" y="156" type="curve" smooth="yes"/>
    </contour>
    <contour>
      <point x="497" y="293" type="line"/>
      <point x="269" y="293" type="line"/>
      <point x="434" y="598" type="line"/>
    </contour>
    <contour>
      <point x="435" y="725" type="line"/>
      <point x="548" y="770" type="line" smooth="yes"/>
      <point x="597" y="789"/>
      <point x="618" y="808"/>
      <point x="618" y="833" type="curve" smooth="yes"/>
      <point x="618" y="856"/>
      <point x="598" y="876"/>
      <point x="576" y="876" type="curve" smooth="yes"/>
      <point x="555" y="876"/>
      <point x="533" y="861"/>
      <point x="492" y="822" type="curve" smooth="yes"/>
      <point x="423" y="754" type="line"/>
    </contour>
  </outline>
</glyph>
<glyph name="Acircumflex" format="1">
  <advance width="700"/>
  <unicode hex="00C2"/>
  <outline>
    <contour>
      <point x="518" y="681" type="line"/>
      <point x="422" y="681" type="line"/>
      <point x="137" y="175" type="line" smooth="yes"/>
      <point x="73" y="64"/>
      <point x="55" y="46"/>
      <point x="-7" y="31" type="curve"/>
      <point x="-20" y="29" type="line"/>
      <point x="-25" y="0" type="line"/>
      <point x="237" y="0" type="line"/>
      <point x="242" y="29" type="line"/>
      <point x="230" y="31" type="line" smooth="yes"/>
      <point x="187" y="38"/>
      <point x="167" y="53"/>
      <point x="167" y="80" type="curve" smooth="yes"/>
      <point x="167" y="100"/>
      <point x="175" y="123"/>
      <point x="193" y="157" type="curve" smooth="yes"/>
      <point x="246" y="253" type="line"/>
      <point x="502" y="253" type="line"/>
      <point x="524" y="136" type="line" smooth="yes"/>
      <point x="529" y="114"/>
      <point x="531" y="98"/>
      <point x="531" y="89" type="curve" smooth="yes"/>
      <point x="531" y="57"/>
      <point x="510" y="39"/>
      <point x="461" y="31" type="curve" smooth="yes"/>
      <point x="449" y="29" type="line"/>
      <point x="444" y="0" type="line"/>
      <point x="715" y="0" type="line"/>
      <point x="720" y="29" type="line"/>
      <point x="708" y="31" type="line"/>
      <point x="654" y="44"/>
      <point x="645" y="57"/>
      <point x="624" y="156" type="curve" smooth="yes"/>
    </contour>
    <contour>
      <point x="497" y="293" type="line"/>
      <point x="269" y="293" type="line"/>
      <point x="434" y="598" type="line"/>
    </contour>
    <contour>
      <point x="319" y="754" type="line"/>
      <point x="341" y="728" type="line"/>
      <point x="474" y="774" type="line"/>
      <point x="597" y="729" type="line"/>
      <point x="622" y="754" type="line"/>
      <point x="485" y="853" type="line"/>
    </contour>
  </outline>
</glyph>
<glyph name="Atilde" format="1">
  <advance width="700"/>
  <unicode hex="00C3"/>
  <outline>
    <contour>
      <point x="518" y="681" type="line"/>
      <point x="422" y="681" type="line"/>
      <point x="137" y="175" type="line" smooth="yes"/>
      <point x="73" y="64"/>
      <point x="55" y="46"/>
      <point x="-7" y="31" type="curve"/>
      <point x="-20" y="29" type="line"/>
      <point x="-25" y="0" type="line"/>
      <point x="237" y="0" type="line"/>
      <point x="242" y="29" type="line"/>
      <point x="230" y="31" type="line" smooth="yes"/>
      <point x="187" y="38"/>
      <point x="167" y="53"/>
      <point x="167" y="80" type="curve" smooth="yes"/>
      <point x="167" y="100"/>
      <point x="175" y="123"/>
      <point x="193" y="157" type="curve" smooth="yes"/>
      <point x="246" y="253" type="line"/>
      <point x="502" y="253" type="line"/>
      <point x="524" y="136" type="line" smooth="yes"/>
      <point x="529" y="114"/>
      <point x="531" y="98"/>
      <point x="531" y="89" type="curve" smooth="yes"/>
      <point x="531" y="57"/>
      <point x="510" y="39"/>
      <point x="461" y="31" type="curve" smooth="yes"/>
      <point x="449" y="29" type="line"/>
      <point x="444" y="0" type="line"/>
      <point x="715" y="0" type="line"/>
      <point x="720" y="29" type="line"/>
      <point x="708" y="31" type="line"/>
      <point x="654" y="44"/>
      <point x="645" y="57"/>
      <point x="624" y="156" type="curve" smooth="yes"/>
    </contour>
    <contour>
      <point x="497" y="293" type="line"/>
      <point x="269" y="293" type="line"/>
      <point x="434" y="598" type="line"/>
    </contour>
    <contour>
      <point x="602" y="839" type="line"/>
      <point x="582" y="823"/>
      <point x="567" y="816"/>
      <point x="548" y="816" type="curve" smooth="yes"/>
      <point x="541" y="816"/>
      <point x="530" y="818"/>
      <point x="511" y="822" type="curve" smooth="yes"/>
      <point x="455" y="835"/>
      <point x="445" y="837"/>
      <point x="428" y="837" type="curve" smooth="yes"/>
      <point x="383" y="837"/>
      <point x="344" y="809"/>
      <point x="323" y="761" type="curve"/>
      <point x="354" y="761" type="line"/>
      <point x="364" y="771"/>
      <point x="380" y="777"/>
      <point x="399" y="777" type="curve" smooth="yes"/>
      <point x="410" y="777"/>
      <point x="439" y="772"/>
      <point x="463" y="766" type="curve" smooth="yes"/>
      <point x="498" y="757"/>
      <point x="501" y="756"/>
      <point x="517" y="756" type="curve" smooth="yes"/>
      <point x="567" y="756"/>
      <point x="606" y="784"/>
      <point x="631" y="839" type="curve"/>
    </contour>
  </outline>
</glyph>
<glyph name="AE" format="1">
  <advance width="1220"/>
  <unicode hex="00C6"/>
  <outline>
    <contour>
      <point x="700" y="338" type="line"/>
      <point x="662" y="128" type="line" smooth="yes"/>
      <point x="647" y="59"/>
      <point x="628" y="38"/>
      <point x="573" y="31" type="curve" smooth="yes"/>
      <point x="557" y="29" type="line"/>
      <point x="551" y="0" type="line"/>
      <point x="1141" y="0" type="line"/>
      <point x="1239" y="205" type="line"/>
      <point x="1208" y="217" type="line"/>
      <point x="1161" y="165"/>
      <point x="1127" y="136"/>
      <point x="1083" y="108" type="curve" smooth="yes"/>
      <point x="1022" y="70"/>
      <point x="937" y="45"/>
      <point x="869" y="45" type="curve" smooth="yes"/>
      <point x="833" y="45"/>
      <point x="794" y="51"/>
      <point x="778" y="58" type="curve"/>
      <point x="766" y="64"/>
      <point x="757" y="79"/>
      <point x="757" y="93" type="curve" smooth="yes"/>
      <point x="757" y="99"/>
      <point x="757" y="99"/>
      <point x="762" y="132" type="curve" smooth="yes"/>
      <point x="800" y="338" type="line"/>
      <point x="876" y="338" type="line" smooth="yes"/>
      <point x="936" y="338"/>
      <point x="968" y="308"/>
      <point x="968" y="251" type="curve" smooth="yes"/>
      <point x="968" y="244"/>
      <point x="968" y="236"/>
      <point x="966" y="217" type="curve"/>
      <point x="998" y="217" type="line"/>
      <point x="1049" y="500" type="line"/>
      <point x="1018" y="500" type="line"/>
      <point x="999" y="448"/>
      <point x="997" y="442"/>
      <point x="987" y="429" type="curve" smooth="yes"/>
      <point x="965" y="398"/>
      <point x="930" y="382"/>
      <point x="882" y="382" type="curve" smooth="yes"/>
      <point x="808" y="382" type="line"/>
      <point x="837" y="543" type="line" smooth="yes"/>
      <point x="843" y="579"/>
      <point x="852" y="602"/>
      <point x="861" y="613" type="curve"/>
      <point x="877" y="630"/>
      <point x="916" y="640"/>
      <point x="970" y="640" type="curve" smooth="yes"/>
      <point x="1098" y="640"/>
      <point x="1172" y="593"/>
      <point x="1227" y="475" type="curve"/>
      <point x="1269" y="486" type="line"/>
      <point x="1231" y="681" type="line"/>
      <point x="747" y="681" type="line"/>
      <point x="195" y="163" type="line" smooth="yes"/>
      <point x="126" y="95"/>
      <point x="44" y="48"/>
      <point x="-40" y="29" type="curve"/>
      <point x="-45" y="0" type="line"/>
      <point x="273" y="0" type="line"/>
      <point x="278" y="29" type="line"/>
      <point x="263" y="31" type="line" smooth="yes"/>
      <point x="220" y="37"/>
      <point x="220" y="37"/>
      <point x="209" y="44" type="curve"/>
      <point x="202" y="49"/>
      <point x="198" y="58"/>
      <point x="198" y="68" type="curve" smooth="yes"/>
      <point x="198" y="89"/>
      <point x="218" y="116"/>
      <point x="266" y="162" type="curve" smooth="yes"/>
      <point x="454" y="338" type="line"/>
    </contour>
    <contour>
      <point x="708" y="385" type="line"/>
      <point x="501" y="385" type="line"/>
      <point x="751" y="621" type="line"/>
    </contour>
  </outline>
</glyph>
<glyph name="Ccedilla" format="1">
  <advance width="720"/>
  <unicode hex="00C7"/>
  <outline>
    <contour>
      <point x="386" y="-13" type="line"/>
      <point x="530" y="-15"/>
      <point x="678" y="69"/>
      <point x="731" y="183" type="curve"/>
      <point x="690" y="203" type="line"/>
      <point x="624" y="95"/>
      <point x="523" y="34"/>
      <point x="409" y="34" type="curve" smooth="yes"/>
      <point x="278" y="34"/>
      <point x="195" y="119"/>
      <point x="195" y="253" type="curve" smooth="yes"/>
      <point x="195" y="354"/>
      <point x="233" y="459"/>
      <point x="297" y="539" type="curve" smooth="yes"/>
      <point x="354" y="609"/>
      <point x="425" y="647"/>
      <point x="500" y="647" type="curve" smooth="yes"/>
      <point x="600" y="647"/>
      <point x="660" y="589"/>
      <point x="708" y="444" type="curve"/>
      <point x="746" y="444" type="line"/>
      <point x="734" y="681" type="line"/>
      <point x="703" y="681" type="line"/>
      <point x="673" y="630" type="line"/>
      <point x="614" y="676"/>
      <point x="565" y="694"/>
      <point x="493" y="694" type="curve" smooth="yes"/>
      <point x="272" y="694"/>
      <point x="88" y="503"/>
      <point x="88" y="275" type="curve" smooth="yes"/>
      <point x="88" y="114"/>
      <point x="189" y="4"/>
      <point x="349" y="-11" type="curve"/>
      <point x="324" y="-74" type="line"/>
      <point x="339" y="-70"/>
      <point x="353" y="-68"/>
      <point x="365" y="-68" type="curve" smooth="yes"/>
      <point x="398" y="-68"/>
      <point x="421" y="-84"/>
      <point x="421" y="-107" type="curve" smooth="yes"/>
      <point x="421" y="-132"/>
      <point x="394" y="-155"/>
      <point x="364" y="-155" type="curve" smooth="yes"/>
      <point x="344" y="-155"/>
      <point x="331" y="-145"/>
      <point x="328" y="-128" type="curve"/>
      <point x="326" y="-111"/>
      <point x="320" y="-106"/>
      <point x="303" y="-106" type="curve" smooth="yes"/>
      <point x="289" y="-106"/>
      <point x="278" y="-119"/>
      <point x="278" y="-134" type="curve" smooth="yes"/>
      <point x="278" y="-162"/>
      <point x="313" y="-182"/>
      <point x="361" y="-182" type="curve" smooth="yes"/>
      <point x="423" y="-182"/>
      <point x="473" y="-146"/>
      <point x="473" y="-101" type="curve" smooth="yes"/>
      <point x="473" y="-66"/>
      <point x="442" y="-43"/>
      <point x="395" y="-43" type="curve" smooth="yes"/>
      <point x="385" y="-43" type="line"/>
      <point x="376" y="-43" type="line"/>
    </contour>
  </outline>
</glyph>
<glyph name="Igrave" format="1">
  <advance width="320"/>
  <unicode hex="00CC"/>
  <outline>
    <contour>
      <point x="294" y="29" type="line"/>
      <point x="278" y="31" type="line" smooth="yes"/>
      <point x="242" y="36"/>
      <point x="224" y="54"/>
      <point x="224" y="87" type="curve" smooth="yes"/>
      <point x="224" y="97"/>
      <point x="226" y="117"/>
      <point x="228" y="128" type="curve" smooth="yes"/>
      <point x="305" y="553" type="line" smooth="yes"/>
      <point x="319" y="620"/>
      <point x="337" y="641"/>
      <point x="390" y="650" type="curve"/>
      <point x="407" y="652" type="line"/>
      <point x="412" y="681" type="line"/>
      <point x="145" y="681" type="line"/>
      <point x="139" y="652" type="line"/>
      <point x="155" y="650" type="line" smooth="yes"/>
      <point x="191" y="645"/>
      <point x="209" y="627"/>
      <point x="209" y="594" type="curve" smooth="yes"/>
      <point x="209" y="584"/>
      <point x="207" y="564"/>
      <point x="205" y="553" type="curve" smooth="yes"/>
      <point x="128" y="128" type="line" smooth="yes"/>
      <point x="114" y="61"/>
      <point x="96" y="40"/>
      <point x="43" y="31" type="curve"/>
      <point x="26" y="29" type="line"/>
      <point x="21" y="0" type="line"/>
      <point x="288" y="0" type="line"/>
    </contour>
    <contour>
      <point x="324" y="725" type="line"/>
      <point x="337" y="754" type="line"/>
      <point x="268" y="822" type="line" smooth="yes"/>
      <point x="229" y="861"/>
      <point x="206" y="876"/>
      <point x="186" y="876" type="curve" smooth="yes"/>
      <point x="162" y="876"/>
      <point x="142" y="857"/>
      <point x="142" y="834" type="curve" smooth="yes"/>
      <point x="142" y="807"/>
      <point x="161" y="790"/>
      <point x="212" y="770" type="curve" smooth="yes"/>
    </contour>
  </outline>
</glyph>
<glyph name="Iacute" format="1">
  <advance width="320"/>
  <unicode hex="00CD"/>
  <outline>
    <contour>
      <point x="294" y="29" type="line"/>
      <point x="278" y="31" type="line" smooth="yes"/>
      <point x="242" y="36"/>
      <point x="224" y="54"/>
      <point x="224" y="87" type="curve" smooth="yes"/>
      <point x="224" y="97"/>
      <point x="226" y="117"/>
      <point x="228" y="128" type="curve" smooth="yes"/>
      <point x="305" y="553" type="line" smooth="yes"/>
      <point x="319" y="620"/>
      <point x="337" y="641"/>
      <point x="390" y="650" type="curve"/>
      <point x="407" y="652" type="line"/>
      <point x="412" y="681" type="line"/>
      <point x="145" y="681" type="line"/>
      <point x="139" y="652" type="line"/>
      <point x="155" y="650" type="line" smooth="yes"/>
      <point x="191" y="645"/>
      <point x="209" y="627"/>
      <point x="209" y="594" type="curve" smooth="yes"/>
      <point x="209" y="584"/>
      <point x="207" y="564"/>
      <point x="205" y="553" type="curve" smooth="yes"/>
      <point x="128" y="128" type="line" smooth="yes"/>
      <point x="114" y="61"/>
      <point x="96" y="40"/>
      <point x="43" y="31" type="curve"/>
      <point x="26" y="29" type="line"/>
      <point x="21" y="0" type="line"/>
      <point x="288" y="0" type="line"/>
    </contour>
    <contour>
      <point x="190" y="725" type="line"/>
      <point x="303" y="770" type="line" smooth="yes"/>
      <point x="352" y="789"/>
      <point x="373" y="808"/>
      <point x="373" y="833" type="curve" smooth="yes"/>
      <point x="373" y="856"/>
      <point x="353" y="876"/>
      <point x="331" y="876" type="curve" smooth="yes"/>
      <point x="310" y="876"/>
      <point x="288" y="861"/>
      <point x="247" y="822" type="curve" smooth="yes"/>
      <point x="178" y="754" type="line"/>
    </contour>
  </outline>
</glyph>
<glyph name="Icircumflex" format="1">
  <advance width="320"/>
  <unicode hex="00CE"/>
  <outline>
    <contour>
      <point x="294" y="29" type="line"/>
      <point x="278" y="31" type="line" smooth="yes"/>
      <point x="242" y="36"/>
      <point x="224" y="54"/>
      <point x="224" y="87" type="curve" smooth="yes"/>
      <point x="224" y="97"/>
      <point x="226" y="117"/>
      <point x="228" y="128" type="curve" smooth="yes"/>
      <point x="305" y="553" type="line" smooth="yes"/>
      <point x="319" y="620"/>
      <point x="337" y="641"/>
      <point x="390" y="650" type="curve"/>
      <point x="407" y="652" type="line"/>
      <point x="412" y="681" type="line"/>
      <point x="145" y="681" type="line"/>
      <point x="139" y="652" type="line"/>
      <point x="155" y="650" type="line" smooth="yes"/>
      <point x="191" y="645"/>
      <point x="209" y="627"/>
      <point x="209" y="594" type="curve" smooth="yes"/>
      <point x="209" y="584"/>
      <point x="207" y="564"/>
      <point x="205" y="553" type="curve" smooth="yes"/>
      <point x="128" y="128" type="line" smooth="yes"/>
      <point x="114" y="61"/>
      <point x="96" y="40"/>
      <point x="43" y="31" type="curve"/>
      <point x="26" y="29" type="line"/>
      <point x="21" y="0" type="line"/>
      <point x="288" y="0" type="line"/>
    </contour>
    <contour>
      <point x="144" y="754" type="line"/>
      <point x="166" y="728" type="line"/>
      <point x="285" y="774" type="line"/>
      <point x="394" y="729" type="line"/>
      <point x="419" y="754" type="line"/>
      <point x="296" y="853" type="line"/>
    </contour>
  </outline>
</glyph>
<glyph name="Ntilde" format="1">
  <advance width="720"/>
  <unicode hex="00D1"/>
  <outline>
    <contour>
      <point x="360" y="681" type="line"/>
      <point x="142" y="681" type="line"/>
      <point x="136" y="652" type="line"/>
      <point x="152" y="650" type="line" smooth="yes"/>
      <point x="192" y="645"/>
      <point x="209" y="628"/>
      <point x="209" y="596" type="curve" smooth="yes"/>
      <point x="209" y="587"/>
      <point x="207" y="561"/>
      <point x="205" y="553" type="curve"/>
      <point x="128" y="128" type="line" smooth="yes"/>
      <point x="114" y="59"/>
      <point x="95" y="38"/>
      <point x="40" y="31" type="curve" smooth="yes"/>
      <point x="23" y="29" type="line"/>
      <point x="18" y="0" type="line"/>
      <point x="247" y="0" type="line"/>
      <point x="252" y="29" type="line"/>
      <point x="237" y="31" type="line" smooth="yes"/>
      <point x="196" y="36"/>
      <point x="179" y="53"/>
      <point x="179" y="87" type="curve" smooth="yes"/>
      <point x="179" y="97"/>
      <point x="181" y="115"/>
      <point x="183" y="128" type="curve" smooth="yes"/>
      <point x="273" y="622" type="line"/>
      <point x="526" y="0" type="line"/>
      <point x="612" y="0" type="line"/>
      <point x="713" y="553" type="line" smooth="yes"/>
      <point x="727" y="621"/>
      <point x="746" y="643"/>
      <point x="801" y="650" type="curve" smooth="yes"/>
      <point x="818" y="652" type="line"/>
      <point x="823" y="681" type="line"/>
      <point x="594" y="681" type="line"/>
      <point x="589" y="652" type="line"/>
      <point x="604" y="650" type="line" smooth="yes"/>
      <point x="644" y="645"/>
      <point x="661" y="628"/>
      <point x="661" y="596" type="curve" smooth="yes"/>
      <point x="661" y="587"/>
      <point x="659" y="560"/>
      <point x="658" y="553" type="curve" smooth="yes"/>
      <point x="581" y="130" type="line"/>
    </contour>
    <contour>
      <point x="619" y="839" type="line"/>
      <point x="599" y="823"/>
      <point x="584" y="816"/>
      <point x="565" y="816" type="curve" smooth="yes"/>
      <point x="558" y="816"/>
      <point x="547" y="818"/>
      <point x="528" y="822" type="curve" smooth="yes"/>
      <point x="472" y="835"/>
      <point x="462" y="837"/>
      <point x="445" y="837" type="curve" smooth="yes"/>
      <point x="400" y="837"/>
      <point x="361" y="809"/>
      <point x="340" y="761" type="curve"/>
      <point x="371" y="761" type="line"/>
      <point x="381" y="771"/>
      <point x="397" y="777"/>
      <point x="416" y="777" type="curve" smooth="yes"/>
      <point x="427" y="777"/>
      <point x="456" y="772"/>
      <point x="480" y="766" type="curve" smooth="yes"/>
      <point x="515" y="757"/>
      <point x="518" y="756"/>
      <point x="534" y="756" type="curve" smooth="yes"/>
      <point x="584" y="756"/>
      <point x="623" y="784"/>
      <point x="648" y="839" type="curve"/>
    </contour>
  </outline>
</glyph>
<glyph name="Otilde" format="1">
  <advance width="760"/>
  <unicode hex="00D5"/>
  <outline>
    <contour>
      <point x="512" y="694" type="curve" smooth="yes"/>
      <point x="399" y="694"/>
      <point x="294" y="653"/>
      <point x="218" y="578" type="curve" smooth="yes"/>
      <point x="135" y="497"/>
      <point x="88" y="388"/>
      <point x="88" y="277" type="curve" smooth="yes"/>
      <point x="88" y="105"/>
      <point x="206" y="-13"/>
      <point x="379" y="-13" type="curve" smooth="yes"/>
      <point x="496" y="-13"/>
      <point x="598" y="31"/>
      <point x="680" y="115" type="curve" smooth="yes"/>
      <point x="756" y="193"/>
      <point x="799" y="299"/>
      <point x="799" y="406" type="curve" smooth="yes"/>
      <point x="799" y="576"/>
      <point x="681" y="694"/>
    </contour>
    <contour>
      <point x="501" y="647" type="curve" smooth="yes"/>
      <point x="613" y="647"/>
      <point x="689" y="564"/>
      <point x="689" y="441" type="curve" smooth="yes"/>
      <point x="689" y="344"/>
      <point x="655" y="227"/>
      <point x="607" y="158" type="curve" smooth="yes"/>
      <point x="552" y="80"/>
      <point x="468" y="34"/>
      <point x="383" y="34" type="curve" smooth="yes"/>
      <point x="271" y="34"/>
      <point x="198" y="119"/>
      <point x="198" y="249" type="curve" smooth="yes"/>
      <point x="198" y="347"/>
      <point x="236" y="464"/>
      <point x="289" y="535" type="curve" smooth="yes"/>
      <point x="342" y="603"/>
      <point x="424" y="647"/>
    </contour>
    <contour>
      <point x="658" y="839" type="line"/>
      <point x="638" y="823"/>
      <point x="623" y="816"/>
      <point x="604" y="816" type="curve" smooth="yes"/>
      <point x="597" y="816"/>
      <point x="586" y="818"/>
      <point x="567" y="822" type="curve" smooth="yes"/>
      <point x="511" y="835"/>
      <point x="501" y="837"/>
      <point x="484" y="837" type="curve" smooth="yes"/>
      <point x="439" y="837"/>
      <point x="400" y="809"/>
      <point x="379" y="761" type="curve"/>
      <point x="410" y="761" type="line"/>
      <point x="420" y="771"/>
      <point x="436" y="777"/>
      <point x="455" y="777" type="curve" smooth="yes"/>
      <point x="466" y="777"/>
      <point x="495" y="772"/>
      <point x="519" y="766" type="curve" smooth="yes"/>
      <point x="554" y="757"/>
      <point x="557" y="756"/>
      <point x="573" y="756" type="curve" smooth="yes"/>
      <point x="623" y="756"/>
      <point x="662" y="784"/>
      <point x="687" y="839" type="curve"/>
    </contour>
  </outline>
</glyph>
<glyph name="Odieresis" format="1">
  <advance width="760"/>
  <unicode hex="00D6"/>
  <outline>
    <contour>
      <point x="512" y="694" type="curve" smooth="yes"/>
      <point x="399" y="694"/>
      <point x="294" y="653"/>
      <point x="218" y="578" type="curve" smooth="yes"/>
      <point x="135" y="497"/>
      <point x="88" y="388"/>
      <point x="88" y="277" type="curve" smooth="yes"/>
      <point x="88" y="105"/>
      <point x="206" y="-13"/>
      <point x="379" y="-13" type="curve" smooth="yes"/>
      <point x="496" y="-13"/>
      <point x="598" y="31"/>
      <point x="680" y="115" type="curve" smooth="yes"/>
      <point x="756" y="193"/>
      <point x="799" y="299"/>
      <point x="799" y="406" type="curve" smooth="yes"/>
      <point x="799" y="576"/>
      <point x="681" y="694"/>
    </contour>
    <contour>
      <point x="501" y="647" type="curve" smooth="yes"/>
      <point x="613" y="647"/>
      <point x="689" y="564"/>
      <point x="689" y="441" type="curve" smooth="yes"/>
      <point x="689" y="344"/>
      <point x="655" y="227"/>
      <point x="607" y="158" type="curve" smooth="yes"/>
      <point x="552" y="80"/>
      <point x="468" y="34"/>
      <point x="383" y="34" type="curve" smooth="yes"/>
      <point x="271" y="34"/>
      <point x="198" y="119"/>
      <point x="198" y="249" type="curve" smooth="yes"/>
      <point x="198" y="347"/>
      <point x="236" y="464"/>
      <point x="289" y="535" type="curve" smooth="yes"/>
      <point x="342" y="603"/>
      <point x="424" y="647"/>
    </contour>
    <contour>
      <point x="460" y="859" type="curve" smooth="yes"/>
      <point x="422" y="859"/>
      <point x="389" y="827"/>
      <point x="389" y="791" type="curve" smooth="yes"/>
      <point x="389" y="760"/>
      <point x="408" y="739"/>
      <point x="437" y="739" type="curve" smooth="yes"/>
      <point x="475" y="739"/>
      <point x="509" y="772"/>
      <point x="509" y="809" type="curve" smooth="yes"/>
      <point x="509" y="838"/>
      <point x="489" y="859"/>
    </contour>
    <contour>
      <point x="621" y="859" type="curve" smooth="yes"/>
      <point x="583" y="859"/>
      <point x="550" y="827"/>
      <point x="550" y="791" type="curve" smooth="yes"/>
      <point x="550" y="760"/>
      <point x="569" y="739"/>
      <point x="598" y="739" type="curve" smooth="yes"/>
      <point x="636" y="739"/>
      <point x="670" y="772"/>
      <point x="670" y="809" type="curve" smooth="yes"/>
      <point x="670" y="838"/>
      <point x="650" y="859"/>
    </contour>
  </outline>
</glyph>
<glyph name="multiply" format="1">
  <advance width="600"/>
  <unicode hex="00D7"/>
  <outline>
    <contour>
      <point x="540" y="604" type="line"/>
      <point x="343" y="407" type="line"/>
      <point x="146" y="604" type="line"/>
      <point x="91" y="549" type="line"/>
      <point x="288" y="352" type="line"/>
      <point x="91" y="155" type="line"/>
      <point x="146" y="100" type="line"/>
      <point x="343" y="297" type="line"/>
      <point x="540" y="100" type="line"/>
      <point x="595" y="155" type="line"/>
      <point x="398" y="352" type="line"/>
      <point x="595" y="549" type="line"/>
    </contour>
  </outline>
</glyph>
<glyph name="Oslash" format="1">
  <advance width="760"/>
  <unicode hex="00D8"/>
  <outline>
    <contour>
      <point x="761" y="778" type="line"/>
      <point x="712" y="778" type="line"/>
      <point x="640" y="672" type="line"/>
      <point x="593" y="689"/>
      <point x="563" y="694"/>
      <point x="515" y="694" type="curve" smooth="yes"/>
      <point x="275" y="694"/>
      <point x="88" y="511"/>
      <point x="88" y="275" type="curve" smooth="yes"/>
      <point x="88" y="211"/>
      <point x="105" y="149"/>
      <point x="135" y="104" type="curve" smooth="yes"/>
      <point x="152" y="78"/>
      <point x="168" y="61"/>
      <point x="204" y="34" type="curve"/>
      <point x="117" y="-95" type="line"/>
      <point x="166" y="-95" type="line"/>
      <point x="240" y="13" type="line"/>
      <point x="291" y="-7"/>
      <point x="322" y="-13"/>
      <point x="375" y="-13" type="curve" smooth="yes"/>
      <point x="486" y="-13"/>
      <point x="579" y="23"/>
      <point x="660" y="98" type="curve" smooth="yes"/>
      <point x="751" y="181"/>
      <point x="799" y="290"/>
      <point x="799" y="409" type="curve" smooth="yes"/>
      <point x="799" y="517"/>
      <point x="761" y="592"/>
      <point x="676" y="653" type="curve"/>
    </contour>
    <contour>
      <point x="245" y="95" type="line"/>
      <point x="210" y="141"/>
      <point x="198" y="179"/>
      <point x="198" y="243" type="curve" smooth="yes"/>
      <point x="198" y="347"/>
      <point x="232" y="456"/>
      <point x="288" y="534" type="curve" smooth="yes"/>
      <point x="337" y="603"/>
      <point x="421" y="647"/>
      <point x="503" y="647" type="curve" smooth="yes"/>
      <point x="541" y="647"/>
      <point x="567" y="640"/>
      <point x="604" y="618" type="curve"/>
    </contour>
    <contour>
      <point x="635" y="594" type="line"/>
      <point x="674" y="547"/>
      <point x="689" y="504"/>
      <point x="689" y="440" type="curve" smooth="yes"/>
      <point x="689" y="344"/>
      <point x="657" y="232"/>
      <point x="610" y="163" type="curve" smooth="yes"/>
      <point x="555" y="82"/>
      <point x="469" y="34"/>
      <point x="382" y="34" type="curve" smooth="yes"/>
      <point x="343" y="34"/>
      <point x="318" y="42"/>
      <point x="276" y="67" type="curve"/>
    </contour>
  </outline>
</glyph>
<glyph name="Udieresis" format="1">
  <advance width="720"/>
  <unicode hex="00DC"/>
  <outline>
    <contour>
      <point x="842" y="681" type="line"/>
      <point x="613" y="681" type="line"/>
      <point x="608" y="652" type="line"/>
      <point x="623" y="650" type="line" smooth="yes"/>
      <point x="664" y="645"/>
      <point x="681" y="629"/>
      <point x="681" y="594" type="curve" smooth="yes"/>
      <point x="681" y="584"/>
      <point x="679" y="566"/>
      <point x="677" y="553" type="curve" smooth="yes"/>
      <point x="622" y="252" type="line" smooth="yes"/>
      <point x="606" y="164"/>
      <point x="593" y="129"/>
      <point x="563" y="96" type="curve" smooth="yes"/>
      <point x="527" y="57"/>
      <point x="462" y="34"/>
      <point x="389" y="34" type="curve" smooth="yes"/>
      <point x="283" y="34"/>
      <point x="225" y="79"/>
      <point x="225" y="161" type="curve" smooth="yes"/>
      <point x="225" y="185"/>
      <point x="228" y="229"/>
      <point x="231" y="246" type="curve" smooth="yes"/>
      <point x="287" y="553" type="line" smooth="yes"/>
      <point x="301" y="622"/>
      <point x="321" y="643"/>
      <point x="376" y="650" type="curve" smooth="yes"/>
      <point x="392" y="652" type="line"/>
      <point x="397" y="681" type="line"/>
      <point x="123" y="681" type="line"/>
      <point x="118" y="652" type="line"/>
      <point x="134" y="650" type="line" smooth="yes"/>
      <point x="174" y="645"/>
      <point x="191" y="628"/>
      <point x="191" y="596" type="curve" smooth="yes"/>
      <point x="191" y="586"/>
      <point x="189" y="562"/>
      <point x="187" y="553" type="curve" smooth="yes"/>
      <point x="126" y="217" type="line" smooth="yes"/>
      <point x="122" y="192"/>
      <point x="118" y="160"/>
      <point x="118" y="145" type="curve" smooth="yes"/>
      <point x="118" y="108"/>
      <point x="135" y="71"/>
      <point x="163" y="45" type="curve" smooth="yes"/>
      <point x="207" y="5"/>
      <point x="268" y="-13"/>
      <point x="356" y="-13" type="curve" smooth="yes"/>
      <point x="452" y="-13"/>
      <point x="529" y="8"/>
      <point x="582" y="48" type="curve" smooth="yes"/>
      <point x="634" y="88"/>
      <point x="655" y="132"/>
      <point x="675" y="239" type="curve" smooth="yes"/>
      <point x="732" y="553" type="line" smooth="yes"/>
      <point x="746" y="622"/>
      <point x="765" y="643"/>
      <point x="820" y="650" type="curve" smooth="yes"/>
      <point x="837" y="652" type="line"/>
    </contour>
    <contour>
      <point x="440" y="859" type="curve" smooth="yes"/>
      <point x="402" y="859"/>
      <point x="369" y="827"/>
      <point x="369" y="791" type="curve" smooth="yes"/>
      <point x="369" y="760"/>
      <point x="388" y="739"/>
      <point x="417" y="739" type="curve" smooth="yes"/>
      <point x="455" y="739"/>
      <point x="489" y="772"/>
      <point x="489" y="809" type="curve" smooth="yes"/>
      <point x="489" y="838"/>
      <point x="469" y="859"/>
    </contour>
    <contour>
      <point x="601" y="859" type="curve" smooth="yes"/>
      <point x="563" y="859"/>
      <point x="530" y="827"/>
      <point x="530" y="791" type="curve" smooth="yes"/>
      <point x="530" y="760"/>
      <point x="549" y="739"/>
      <point x="578" y="739" type="curve" smooth="yes"/>
      <point x="616" y="739"/>
      <point x="650" y="772"/>
      <point x="650" y="809" type="curve" smooth="yes"/>
      <point x="650" y="838"/>
      <point x="630" y="859"/>
    </contour>
  </outline>
</glyph>
<glyph name="Yacute" format="1">
  <advance width="660"/>
  <unicode hex="00DD"/>
  <outline>
    <contour>
      <point x="809" y="681" type="line"/>
      <point x="553" y="681" type="line"/>
      <point x="547" y="652" type="line"/>
      <point x="559" y="650" type="line" smooth="yes"/>
      <point x="594" y="644"/>
      <point x="610" y="631"/>
      <point x="610" y="609" type="curve" smooth="yes"/>
      <point x="610" y="598"/>
      <point x="605" y="587"/>
      <point x="596" y="575" type="curve"/>
      <point x="399" y="339" type="line"/>
      <point x="290" y="574" type="line" smooth="yes"/>
      <point x="286" y="582"/>
      <point x="283" y="594"/>
      <point x="283" y="603" type="curve" smooth="yes"/>
      <point x="283" y="621"/>
      <point x="295" y="636"/>
      <point x="315" y="643" type="curve"/>
      <point x="323" y="645"/>
      <point x="329" y="647"/>
      <point x="346" y="650" type="curve" smooth="yes"/>
      <point x="357" y="652" type="line"/>
      <point x="362" y="681" type="line"/>
      <point x="92" y="681" type="line"/>
      <point x="87" y="652" type="line"/>
      <point x="97" y="649" type="line" smooth="yes"/>
      <point x="141" y="636"/>
      <point x="152" y="627"/>
      <point x="170" y="588" type="curve" smooth="yes"/>
      <point x="316" y="281" type="line"/>
      <point x="288" y="128" type="line" smooth="yes"/>
      <point x="274" y="58"/>
      <point x="253" y="36"/>
      <point x="195" y="31" type="curve" smooth="yes"/>
      <point x="165" y="29" type="line"/>
      <point x="160" y="0" type="line"/>
      <point x="470" y="0" type="line"/>
      <point x="475" y="29" type="line"/>
      <point x="445" y="31" type="line" smooth="yes"/>
      <point x="404" y="34"/>
      <point x="384" y="52"/>
      <point x="384" y="87" type="curve" smooth="yes"/>
      <point x="384" y="97"/>
      <point x="386" y="117"/>
      <point x="388" y="128" type="curve" smooth="yes"/>
      <point x="419" y="297" type="line"/>
      <point x="624" y="532" type="line" smooth="yes"/>
      <point x="693" y="617"/>
      <point x="730" y="642"/>
      <point x="804" y="652" type="curve"/>
    </contour>
    <contour>
      <point x="431" y="725" type="line"/>
      <point x="544" y="770" type="line" smooth="yes"/>
      <point x="593" y="789"/>
      <point x="614" y="808"/>
      <point x="614" y="833" type="curve" smooth="yes"/>
      <point x="614" y="856"/>
      <point x="594" y="876"/>
      <point x="572" y="876" type="curve" smooth="yes"/>
      <point x="551" y="876"/>
      <point x="529" y="861"/>
      <point x="488" y="822" type="curve" smooth="yes"/>
      <point x="419" y="754" type="line"/>
    </contour>
  </outline>
</glyph>
<glyph name="Thorn" format="1">
  <advance width="600"/>
  <unicode hex="00DE"/>
  <outline>
    <contour>
      <point x="235" y="147" type="line"/>
      <point x="327" y="147" type="line" smooth="yes"/>
      <point x="443" y="147"/>
      <point x="516" y="162"/>
      <point x="566" y="196" type="curve" smooth="yes"/>
      <point x="619" y="232"/>
      <point x="656" y="306"/>
      <point x="656" y="376" type="curve" smooth="yes"/>
      <point x="656" y="433"/>
      <point x="634" y="477"/>
      <point x="591" y="505" type="curve" smooth="yes"/>
      <point x="552" y="532"/>
      <point x="515" y="539"/>
      <point x="425" y="539" type="curve" smooth="yes"/>
      <point x="306" y="539" type="line"/>
      <point x="319" y="618"/>
      <point x="339" y="643"/>
      <point x="397" y="650" type="curve" smooth="yes"/>
      <point x="413" y="652" type="line"/>
      <point x="419" y="681" type="line"/>
      <point x="145" y="681" type="line"/>
      <point x="139" y="652" type="line"/>
      <point x="155" y="650" type="line" smooth="yes"/>
      <point x="195" y="645"/>
      <point x="212" y="628"/>
      <point x="212" y="596" type="curve" smooth="yes"/>
      <point x="212" y="586"/>
      <point x="210" y="561"/>
      <point x="208" y="553" type="curve"/>
      <point x="131" y="128" type="line" smooth="yes"/>
      <point x="117" y="59"/>
      <point x="98" y="38"/>
      <point x="43" y="31" type="curve" smooth="yes"/>
      <point x="26" y="29" type="line"/>
      <point x="21" y="0" type="line"/>
      <point x="309" y="0" type="line"/>
      <point x="314" y="29" type="line"/>
      <point x="285" y="31" type="line" smooth="yes"/>
      <point x="248" y="33"/>
      <point x="227" y="53"/>
      <point x="227" y="85" type="curve" smooth="yes"/>
      <point x="227" y="95"/>
      <point x="229" y="118"/>
      <point x="231" y="128" type="curve" smooth="yes"/>
    </contour>
    <contour>
      <point x="241" y="184" type="line"/>
      <point x="298" y="502" type="line"/>
      <point x="390" y="502" type="line" smooth="yes"/>
      <point x="510" y="502"/>
      <point x="558" y="467"/>
      <point x="558" y="378" type="curve" smooth="yes"/>
      <point x="558" y="340"/>
      <point x="546" y="300"/>
      <point x="525" y="265" type="curve" smooth="yes"/>
      <point x="489" y="207"/>
      <point x="436" y="184"/>
      <point x="334" y="184" type="curve" smooth="yes"/>
    </contour>
  </outline>
</glyph>
